<svg width="23" height="25" viewBox="0 0 23 25" fill="none" xmlns="http://www.w3.org/2000/svg">
<path d="M22.1415 6.75391H19.5145C19.178 6.75391 18.9062 6.97266 18.9062 7.24349C18.9062 7.51432 19.178 7.73307 19.5145 7.73307H22.1415C22.478 7.73307 22.7498 7.51432 22.7498 7.24349C22.7498 6.97266 22.478 6.75391 22.1415 6.75391Z" fill="#002440"/>
<path d="M19.7994 5.44892L22.4265 4.33434C22.7241 4.19892 22.8276 3.90726 22.6723 3.66767C22.5171 3.43851 22.1547 3.34476 21.8571 3.46976L19.23 4.58434C18.9324 4.70934 18.8159 5.00101 18.9712 5.24059C19.1135 5.46976 19.5147 5.57392 19.7994 5.44892Z" fill="#002440"/>
<path d="M19.23 9.90046L21.8571 11.015C22.1547 11.14 22.5171 11.0567 22.6723 10.8171C22.8276 10.5775 22.7112 10.2859 22.4265 10.1505L19.7865 9.03588C19.4888 8.91088 19.1265 9.00463 18.9712 9.24421C18.8159 9.48379 18.9324 9.77546 19.23 9.90046Z" fill="#002440"/>
<path d="M12.9099 9.34766H10.0758C9.73929 9.34766 9.48047 9.56641 9.48047 9.83724C9.48047 10.0977 9.76517 10.3268 10.0887 10.3164H12.9228C13.2463 10.3164 13.5181 10.1081 13.5181 9.84766C13.5181 9.57682 13.2593 9.34766 12.9099 9.34766Z" fill="#002440"/>
<path d="M7.20773 21.8008H4.3348C3.99833 21.8008 3.72656 22.0195 3.72656 22.2904C3.72656 22.5612 3.99833 22.7799 4.3348 22.7799H7.20773C7.5442 22.7799 7.81597 22.5612 7.81597 22.2904C7.81597 22.0195 7.5442 21.8008 7.20773 21.8008Z" fill="#002440"/>
<path d="M5.73628 12.3071C5.73628 12.3071 17.2668 12.3071 17.2798 12.3071C17.7327 12.3071 18.0304 11.8798 17.7845 11.5672L16.9304 10.4834V2.897C16.9304 2.63648 16.6845 2.42806 16.3351 2.41764H14.5104C14.5104 1.08377 13.1645 0 11.508 0C9.85156 0 8.50568 1.08377 8.50568 2.41764H6.68098C6.35745 2.41764 6.07275 2.62606 6.07275 2.897V10.4834L5.23157 11.5672C4.99863 11.8694 5.28334 12.3175 5.73628 12.3071ZM11.4951 0.969141C12.4786 0.95872 13.3068 1.62566 13.3198 2.41764H9.69627C9.69627 1.62566 10.4986 0.969141 11.4951 0.969141ZM7.18569 10.8794C7.25039 10.8064 7.27627 10.7231 7.27627 10.6293V3.38678H8.50568V4.64771C8.49274 4.91865 8.75157 5.13749 9.08804 5.14791C9.42451 5.15833 9.70921 4.92907 9.69627 4.65813V3.38678H13.3198V4.65813C13.3198 4.91865 13.5916 5.13749 13.9151 5.13749C14.2386 5.13749 14.5104 4.92907 14.5104 4.65813V3.38678H15.7398V10.6293C15.7398 10.7231 15.7786 10.8064 15.8304 10.8794L16.1927 11.3483H6.82333L7.18569 10.8794Z" fill="#002440"/>
<path d="M0.866046 7.73307H3.4931C3.82957 7.73307 4.10133 7.51432 4.10133 7.24349C4.10133 6.97266 3.82957 6.75391 3.4931 6.75391H0.866046C0.529577 6.75391 0.257812 6.97266 0.257812 7.24349C0.257812 7.51432 0.529577 7.73307 0.866046 7.73307Z" fill="#002440"/>
<path d="M22.9312 16.736L21.1324 13.8911C21.0289 13.7243 20.8218 13.6201 20.5889 13.6201H2.41951C2.18657 13.6201 1.97951 13.7243 1.87598 13.8911L0.0642209 16.736C-0.142837 17.059 0.180691 17.4342 0.607749 17.4446H1.13834V24.5099C1.13834 24.7809 1.4101 24.9997 1.74657 24.9997H21.2618C21.5983 24.9997 21.8701 24.7809 21.8701 24.5099V17.4446H22.4006C22.8536 17.4446 23.1383 17.0486 22.9312 16.736ZM1.60422 16.465L2.78186 14.5997H10.5077L9.33008 16.465H1.60422ZM10.896 24.0306H2.3548V17.4446H9.70538C9.93832 17.4446 10.1454 17.3404 10.2489 17.1736L10.896 16.1524V24.0306ZM20.6536 24.0306H12.1124V16.1524L12.7595 17.1841C12.863 17.3404 13.0701 17.4446 13.303 17.455H20.6536V24.0306ZM13.6783 16.465L12.4877 14.5997H20.2265L21.4042 16.465H13.6783Z" fill="#002440"/>
<path d="M0.580393 4.33407L3.20745 5.44865C3.49215 5.57365 3.88039 5.46949 4.03568 5.24032C4.19097 5.00074 4.0745 4.70907 3.77686 4.58407L1.1498 3.46949C0.852157 3.3549 0.489805 3.45907 0.334511 3.69865C0.192158 3.92782 0.308629 4.20907 0.580393 4.33407Z" fill="#002440"/>
<path d="M3.20639 9.03588L0.579336 10.1505C0.28169 10.2859 0.178161 10.5775 0.333454 10.8171C0.488748 11.0463 0.864041 11.1505 1.14875 11.015L3.7758 9.90046C4.07345 9.77546 4.18992 9.48379 4.03462 9.24421C3.87933 9.00463 3.50404 8.91088 3.20639 9.03588Z" fill="#002440"/>
</svg>
