<svg width="24" height="24" viewBox="0 0 24 24" fill="none" xmlns="http://www.w3.org/2000/svg">
<path d="M5.05659 5.17578H4.58859C4.15759 5.17578 3.80859 5.52503 3.80859 5.95578C3.80859 6.38678 4.15784 6.73578 4.58859 6.73578H5.05659C5.48734 6.73578 5.83659 6.38653 5.83659 5.95578C5.83659 5.52528 5.48734 5.17578 5.05659 5.17578Z" fill="white"/>
<path d="M7.70894 5.17578H7.24094C6.80994 5.17578 6.46094 5.52503 6.46094 5.95578C6.46094 6.38678 6.81019 6.73578 7.24094 6.73578H7.70894C8.13969 6.73578 8.48894 6.38653 8.48894 5.95578C8.48894 5.52528 8.13969 5.17578 7.70894 5.17578Z" fill="white"/>
<path d="M10.3613 5.17578H9.89328C9.46228 5.17578 9.11328 5.52503 9.11328 5.95578C9.11328 6.38678 9.46253 6.73578 9.89328 6.73578H10.3613C10.792 6.73578 11.1413 6.38653 11.1413 5.95578C11.1413 5.52528 10.792 5.17578 10.3613 5.17578Z" fill="white"/>
<path d="M4.12775 16.8257C3.2635 16.8257 2.56025 16.1502 2.56025 15.3202V9.07644H21.4398V15.3202C21.4398 16.1504 20.757 16.8257 19.9175 16.8257C19.4867 16.8257 19.1375 17.1749 19.1375 17.6057C19.1375 18.0367 19.4867 18.3857 19.9175 18.3857C21.6172 18.3859 23 17.0107 23 15.3202V5.58919C23 3.86994 21.666 2.52344 19.963 2.52344H4.15375C2.41475 2.52319 1 3.89844 1 5.58919V15.3202C1 17.0107 2.403 18.3859 4.12775 18.3859C4.55875 18.3859 4.90775 18.0367 4.90775 17.6059C4.90775 17.1752 4.5585 16.8257 4.12775 16.8257ZM2.56025 5.58919C2.56025 4.77294 3.29 4.08369 4.15375 4.08369H19.963C20.791 4.08369 21.4398 4.74494 21.4398 5.58919V7.51619H2.56025V5.58919Z" fill="white"/>
<path d="M11.7656 13.4453C11.7656 13.8763 12.1149 14.2253 12.5456 14.2253H17.8224C18.1546 14.2253 18.4589 14.0256 18.5976 13.7171C18.7394 13.4011 18.6854 13.0331 18.4554 12.7748L16.9034 11.0603C16.6141 10.7408 16.1209 10.7163 15.8014 11.0056C15.4819 11.2948 15.4574 11.7881 15.7466 12.1076L16.2516 12.6656H12.5456C12.1149 12.6651 11.7656 13.0143 11.7656 13.4453Z" fill="white"/>
<path d="M18.7855 15.4734C18.7855 15.0424 18.4362 14.6934 18.0055 14.6934H12.7365C12.402 14.6934 12.097 14.8956 11.9595 15.2086C11.8177 15.5309 11.876 15.9021 12.1055 16.1526L13.6335 17.8334C13.7875 18.0029 14.29 18.2911 14.7355 17.8859C15.0542 17.5959 15.0777 17.1024 14.7877 16.7836L14.306 16.2534H18.0055C18.4362 16.2536 18.7855 15.9044 18.7855 15.4734Z" fill="white"/>
<path d="M8.70528 15.1287H8.16228C7.72053 15.1287 7.36128 14.7694 7.36128 14.3277C7.36128 13.8859 7.72053 13.5267 8.16228 13.5267H9.97003C10.401 13.5267 10.75 13.1774 10.75 12.7467C10.75 12.3159 10.4008 11.9667 9.97003 11.9667H9.21353V10.9489C9.21353 10.5179 8.86428 10.1689 8.43353 10.1689C8.00278 10.1689 7.65353 10.5182 7.65353 10.9489V12.0234C6.59553 12.2569 5.80078 13.2009 5.80078 14.3279C5.80078 15.6299 6.86003 16.6892 8.16203 16.6892H8.70503C9.14678 16.6892 9.50603 17.0484 9.50603 17.4902C9.50603 17.9319 9.14678 18.2912 8.70503 18.2912H6.89703C6.46603 18.2912 6.11703 18.6404 6.11703 19.0712C6.11703 19.5022 6.46628 19.8512 6.89703 19.8512H7.65328V20.6957C7.65328 21.1267 8.00253 21.4757 8.43328 21.4757C8.86428 21.4757 9.21328 21.1264 9.21328 20.6957V19.7947C10.2715 19.5612 11.066 18.6172 11.066 17.4902C11.0665 16.1879 10.0073 15.1287 8.70528 15.1287Z" fill="white"/>
</svg>
