<svg width="219" height="179" viewBox="0 0 219 179" fill="none" xmlns="http://www.w3.org/2000/svg">
<path d="M0.771948 89.2338C0.771948 61.7852 6.03823 40.1616 16.5708 24.3627C27.263 8.56384 44.4183 0.664405 68.0368 0.664405C91.6553 0.664405 108.731 8.56384 119.263 24.3627C129.956 40.1616 135.302 61.7852 135.302 89.2338C135.302 117.001 129.956 138.785 119.263 154.584C108.731 170.382 91.6553 178.282 68.0368 178.282C44.4183 178.282 27.263 170.382 16.5708 154.584C6.03823 138.785 0.771948 117.001 0.771948 89.2338ZM95.0863 89.2338C95.0863 73.1157 93.3309 60.7479 89.8201 52.1304C86.3092 43.3532 79.0481 38.9647 68.0368 38.9647C57.0255 38.9647 49.7644 43.3532 46.2535 52.1304C42.7427 60.7479 40.9872 73.1157 40.9872 89.2338C40.9872 100.086 41.6256 109.102 42.9022 116.283C44.1789 123.305 46.7323 129.05 50.5623 133.518C54.5519 137.827 60.3767 139.982 68.0368 139.982C75.6968 139.982 81.4419 137.827 85.2719 133.518C89.2615 129.05 91.8946 123.305 93.1713 116.283C94.448 109.102 95.0863 100.086 95.0863 89.2338ZM152.619 42.3159V4.25506H218.926V179H176.317V42.3159H152.619Z" fill="url(#paint0_linear_671_846)"/>
<defs>
<linearGradient id="paint0_linear_671_846" x1="112.992" y1="12" x2="112.992" y2="168" gradientUnits="userSpaceOnUse">
<stop stop-color="#ABD1EC"/>
<stop offset="1" stop-color="#ABD1EC" stop-opacity="0"/>
</linearGradient>
</defs>
</svg>
