<svg width="278" height="181" viewBox="0 0 278 181" fill="none" xmlns="http://www.w3.org/2000/svg">
<path d="M0.771948 89.2338C0.771948 61.7852 6.03823 40.1616 16.5708 24.3627C27.263 8.56384 44.4183 0.664405 68.0368 0.664405C91.6553 0.664405 108.731 8.56384 119.263 24.3627C129.956 40.1616 135.302 61.7852 135.302 89.2338C135.302 117.001 129.956 138.785 119.263 154.584C108.731 170.382 91.6553 178.282 68.0368 178.282C44.4183 178.282 27.263 170.382 16.5708 154.584C6.03823 138.785 0.771948 117.001 0.771948 89.2338ZM95.0863 89.2338C95.0863 73.1157 93.3309 60.7479 89.8201 52.1304C86.3092 43.3532 79.0481 38.9647 68.0368 38.9647C57.0255 38.9647 49.7644 43.3532 46.2535 52.1304C42.7427 60.7479 40.9872 73.1157 40.9872 89.2338C40.9872 100.086 41.6256 109.102 42.9022 116.283C44.1789 123.305 46.7323 129.05 50.5623 133.518C54.5519 137.827 60.3767 139.982 68.0368 139.982C75.6968 139.982 81.4419 137.827 85.2719 133.518C89.2615 129.05 91.8946 123.305 93.1713 116.283C94.448 109.102 95.0863 100.086 95.0863 89.2338ZM158.364 53.5666C159.002 36.4911 164.588 23.3254 175.12 14.0695C185.653 4.81361 199.936 0.185658 217.969 0.185658C229.938 0.185658 240.151 2.26026 248.609 6.40946C257.227 10.5586 263.69 16.2239 267.999 23.4052C272.467 30.5865 274.701 38.6455 274.701 47.5822C274.701 58.1148 272.068 66.7324 266.802 73.4349C261.535 79.9779 255.391 84.4462 248.37 86.84V87.7975C257.466 90.8296 264.647 95.8565 269.914 102.878C275.18 109.9 277.813 118.916 277.813 129.928C277.813 139.822 275.499 148.599 270.871 156.259C266.403 163.76 259.78 169.664 251.003 173.973C242.385 178.282 232.092 180.436 220.123 180.436C200.973 180.436 185.653 175.729 174.163 166.313C162.832 156.898 156.848 142.695 156.21 123.704H195.946C196.106 130.726 198.101 136.311 201.931 140.46C205.761 144.45 211.346 146.445 218.687 146.445C224.911 146.445 229.698 144.689 233.05 141.178C236.56 137.508 238.316 132.721 238.316 126.816C238.316 119.156 235.842 113.65 230.895 110.299C226.108 106.788 218.368 105.033 207.676 105.033H200.016V71.7593H207.676C215.814 71.7593 222.357 70.4028 227.305 67.6899C232.411 64.8173 234.965 59.7904 234.965 52.6091C234.965 46.8641 233.369 42.3957 230.177 39.204C226.985 36.0124 222.597 34.4165 217.011 34.4165C210.947 34.4165 206.399 36.2517 203.367 39.9222C200.494 43.5926 198.819 48.1408 198.34 53.5666H158.364Z" fill="url(#paint0_linear_671_848)"/>
<defs>
<linearGradient id="paint0_linear_671_848" x1="140.379" y1="12" x2="140.478" y2="168" gradientUnits="userSpaceOnUse">
<stop stop-color="#ABD1EC"/>
<stop offset="1" stop-color="#ABD1EC" stop-opacity="0"/>
</linearGradient>
</defs>
</svg>
