<svg width="561" height="860" viewBox="0 0 561 860" fill="none" xmlns="http://www.w3.org/2000/svg">
<path d="M288.999 787.56C396.082 787.56 482.889 782.492 482.889 776.24C482.889 769.988 396.082 764.92 288.999 764.92C181.917 764.92 95.1094 769.988 95.1094 776.24C95.1094 782.492 181.917 787.56 288.999 787.56Z" fill="#F5F5F5"/>
<path d="M383.19 482.08L393.61 467.61L376.81 467.53L369.31 448.51L358.89 462.98L341.31 454.2L348.02 474.48L331.32 486.6L350.95 492.41L347.02 506.2L367.57 502.08L370.71 509.49L376.08 499.35L393.63 516.74L380.82 495.84L392.43 491.47L383.19 482.08Z" fill="#FBA200"/>
<path d="M361.308 470.276L363.315 486.35L365.853 486.068L364.283 469.946L361.308 470.276ZM365.303 492.683C365.843 492.623 366.284 492.378 366.628 491.949C366.971 491.519 367.113 491.035 367.053 490.495C366.993 489.956 366.749 489.514 366.319 489.171C365.89 488.828 365.405 488.686 364.866 488.746C364.326 488.806 363.885 489.05 363.541 489.48C363.198 489.909 363.056 490.393 363.116 490.933C363.156 491.29 363.283 491.608 363.499 491.887C363.707 492.166 363.971 492.38 364.29 492.53C364.601 492.672 364.939 492.723 365.303 492.683Z" fill="white"/>
<path d="M378.272 521.7L378.072 524.22C378.035 524.686 377.888 525.136 377.64 525.533C377.393 525.93 377.054 526.262 376.652 526.5L372.852 528.78C372.104 529.227 371.26 529.49 370.39 529.546C369.521 529.601 368.65 529.448 367.852 529.1L366.852 528.66C366.902 524.46 370.042 519.97 370.042 519.97L370.792 518.58C370.937 518.291 371.139 518.034 371.386 517.825C371.632 517.615 371.918 517.457 372.226 517.359C372.534 517.261 372.859 517.226 373.181 517.255C373.503 517.284 373.816 517.378 374.102 517.53L376.862 518.98C377.333 519.25 377.716 519.65 377.966 520.132C378.216 520.615 378.322 521.159 378.272 521.7Z" fill="#EBB376"/>
<path d="M370.191 568.389C361.811 563.389 354.241 557.009 348.661 548.899C342.851 538.789 362.721 527.699 369.931 523.899C370.487 523.639 371.118 523.587 371.709 523.752C372.3 523.918 372.812 524.29 373.151 524.802C373.49 525.313 373.635 525.93 373.558 526.539C373.48 527.147 373.187 527.708 372.731 528.119C369.211 531.119 365.591 534.279 362.351 537.539C360.231 539.739 357.931 542.049 356.811 544.619C356.531 545.469 356.931 544.989 356.641 544.299L356.161 543.449C357.46 545.025 358.849 546.524 360.321 547.939C364.977 552.259 370.021 556.139 375.391 559.529C381.051 563.169 376.111 571.529 370.191 568.359V568.389Z" fill="#E9B376"/>
<path d="M375.171 556.1L361.911 546.229C361.911 546.229 355.781 555.599 356.361 562.939L374.161 577.169C376.503 574.821 378.344 572.021 379.571 568.939C381.451 563.999 375.171 556.1 375.171 556.1Z" fill="#FBA200"/>
<path d="M337.701 758.58L342.441 776.53H349.571L345.871 756.51L337.701 758.58Z" fill="#FFB573"/>
<path d="M420.08 757.959L425.34 775.769L432.46 775.559L428.2 755.649L420.08 757.959Z" fill="#FFB573"/>
<path d="M375.54 556.21C375.54 556.21 363.37 589.8 366.06 617.87L403.42 624.51C404.75 618.51 404.26 598.69 415.08 571.43C415.08 571.43 405.35 567.95 394.19 564.77C387.636 562.719 381.369 559.842 375.54 556.21Z" fill="#FBA200"/>
<path opacity="0.5" d="M375.54 556.21C375.54 556.21 363.37 589.8 366.06 617.87L403.42 624.51C404.75 618.51 404.26 598.69 415.08 571.43C415.08 571.43 405.35 567.95 394.19 564.77C387.636 562.719 381.369 559.842 375.54 556.21Z" fill="white"/>
<path d="M423.65 772.5L432.8 772.65C432.95 772.649 433.096 772.7 433.213 772.795C433.329 772.89 433.41 773.022 433.44 773.17L434.82 779.9C434.876 780.19 434.814 780.49 434.65 780.736C434.485 780.981 434.23 781.152 433.94 781.21H433.69C430.69 781.11 428.58 780.9 424.86 780.84C422.57 780.84 415.66 780.93 412.5 780.84C409.34 780.75 408.97 777.66 410.27 777.4C416.1 776.22 420.5 774.54 422.38 772.9C422.739 772.614 423.191 772.472 423.65 772.5Z" fill="#263238"/>
<path d="M404.531 621.76L404.241 634.76C407.361 647.62 411.821 687.38 412.751 695.06C414.521 709.66 432.461 764.18 432.461 764.18L419.771 767.72C419.771 767.72 395.771 719.72 391.601 706.12C387.431 692.52 380.091 658.49 380.091 658.49C380.091 658.49 347.501 696.79 342.281 704.33C337.061 711.87 349.401 763.77 349.401 763.77L336.681 766.77C336.681 766.77 318.391 719.92 320.901 700.77C323.411 681.62 357.701 638.61 358.441 636.35C359.081 634.42 362.371 626.58 364.161 622.59L365.081 616.59L404.531 621.76Z" fill="#263238"/>
<path d="M340.28 772.5L349.43 772.65C349.58 772.649 349.726 772.7 349.843 772.795C349.96 772.89 350.04 773.022 350.07 773.17L351.45 779.9C351.506 780.19 351.445 780.49 351.28 780.736C351.115 780.981 350.86 781.152 350.57 781.21H350.32C347.32 781.11 345.21 780.9 341.49 780.84C339.2 780.84 332.29 780.93 329.13 780.84C325.97 780.75 325.61 777.66 326.9 777.4C332.73 776.22 337.13 774.54 339.01 772.9C339.369 772.614 339.822 772.472 340.28 772.5Z" fill="#263238"/>
<path opacity="0.2" d="M370.281 670.06C371.77 665.064 372.981 659.989 373.911 654.86C364.131 647.28 365.241 638.43 365.241 638.43C369.531 643.48 379.241 645.5 379.241 645.5L380.081 658.5C380.081 658.5 375.901 663.4 370.281 670.06Z" fill="black"/>
<path d="M402.381 626.44L402.981 622.12L366.351 617.67L364.781 621.73L402.381 626.44Z" fill="#263238"/>
<path opacity="0.2" d="M402.381 626.44L402.981 622.12L366.351 617.67L364.781 621.73L402.381 626.44Z" fill="white"/>
<path d="M377 619.23L376.48 623.1C376.465 623.245 376.393 623.378 376.281 623.472C376.169 623.565 376.025 623.611 375.88 623.6L370.31 622.7C370.188 622.673 370.08 622.602 370.008 622.5C369.936 622.399 369.904 622.274 369.92 622.15L370.23 618.26C370.232 618.185 370.25 618.111 370.282 618.043C370.314 617.976 370.359 617.915 370.415 617.865C370.472 617.816 370.537 617.778 370.609 617.755C370.68 617.731 370.755 617.723 370.83 617.73L376.61 618.64C376.674 618.653 376.735 618.679 376.79 618.715C376.844 618.752 376.891 618.799 376.927 618.854C376.963 618.909 376.988 618.97 377.001 619.035C377.013 619.099 377.013 619.165 377 619.23Z" fill="white"/>
<path d="M384.451 619.989L383.561 625.129L385.251 625.649L386.101 620.179L384.451 619.989Z" fill="#263238"/>
<path d="M399.021 621.67L398.551 626.84L399.751 627.21L400.191 621.8L399.021 621.67Z" fill="#263238"/>
<path d="M368.32 617.539L367.08 622.489L366 622.519L367 617.189L368.32 617.539Z" fill="#263238"/>
<path d="M388.831 558C391.081 559.866 393.787 561.102 396.671 561.58C401.471 562.37 406.871 562.87 406.871 562.87C406.871 562.87 400.741 572.14 390.871 569.04C381.001 565.94 388.831 558 388.831 558Z" fill="#FBA200"/>
<path opacity="0.2" d="M388.831 558C391.081 559.866 393.787 561.102 396.671 561.58C401.471 562.37 406.871 562.87 406.871 562.87C406.871 562.87 400.741 572.14 390.871 569.04C381.001 565.94 388.831 558 388.831 558Z" fill="black"/>
<path d="M401.491 562.39C401.576 563.654 401.983 564.876 402.671 565.94C399.871 566.54 396.011 567.73 392.901 568.76C392.089 569.042 391.219 569.12 390.369 568.986C389.519 568.852 388.716 568.512 388.029 567.994C387.342 567.476 386.793 566.797 386.431 566.017C386.068 565.236 385.904 564.379 385.951 563.52C385.977 563.226 386.03 562.934 386.111 562.65C391.761 562.44 392.881 558.76 392.881 554.83C392.881 554.43 392.881 554.03 392.881 553.63L404.751 547C403.111 551 401.001 557.61 401.491 562.39Z" fill="#FFB573"/>
<path d="M390.93 568.14C390.93 568.14 400.54 563.08 405.82 562.75C411.1 562.42 411.82 566.75 411.82 566.75C411.82 566.75 414.63 566.28 413.55 569.5C412.47 572.72 390.29 569.88 390.29 569.88C390.29 569.88 380.93 565.04 380.87 559.75C380.81 554.46 385.48 557.92 385.48 557.92C385.48 557.92 388.48 556.81 389.43 558C390.38 559.19 390.93 568.14 390.93 568.14Z" fill="#FBA200"/>
<path opacity="0.2" d="M411.81 566.76C411.81 566.76 400.64 570.48 398.29 569.19C395.94 567.9 411.81 566.76 411.81 566.76Z" fill="black"/>
<path opacity="0.2" d="M385.471 557.93C384.996 559.35 384.965 560.881 385.381 562.32C386.131 564.32 383.801 562.32 383.581 560.05C383.526 559.78 383.534 559.5 383.606 559.233C383.677 558.967 383.81 558.721 383.994 558.515C384.177 558.309 384.407 558.149 384.663 558.047C384.92 557.946 385.196 557.905 385.471 557.93Z" fill="black"/>
<path opacity="0.2" d="M401.491 562.39C396.491 562.87 393.901 557.67 392.881 554.83C392.881 554.43 392.881 554.03 392.881 553.63L404.751 547C403.111 551 401.001 557.61 401.491 562.39Z" fill="black"/>
<path d="M412.211 533C417.301 536.28 412.901 548.39 410.211 549.2C405.211 550.69 405.901 528.9 412.211 533Z" fill="#263238"/>
<path d="M392.591 540.4C391.771 547.72 390.911 551.97 393.921 556.33C398.451 562.89 407.971 561.13 410.971 554.2C413.661 547.96 414.561 537.03 407.971 532.91C406.526 531.977 404.865 531.433 403.148 531.33C401.432 531.227 399.717 531.569 398.171 532.322C396.625 533.075 395.299 534.214 394.322 535.629C393.344 537.044 392.748 538.687 392.591 540.4Z" fill="#FFB573"/>
<path d="M387.71 533.68C386.79 537.91 389.61 550.1 392.71 550.36C395.81 550.62 397.85 544.17 397.37 537.92L387.71 533.68Z" fill="#263238"/>
<path d="M387.92 547.81C388.624 549.526 389.98 550.893 391.69 551.61C393.96 552.55 395.38 550.61 394.99 548.29C394.64 546.22 392.99 543.29 390.63 543.29C390.107 543.308 389.596 543.457 389.145 543.723C388.693 543.989 388.316 544.364 388.047 544.813C387.777 545.263 387.624 545.772 387.602 546.296C387.58 546.819 387.69 547.34 387.92 547.81Z" fill="#FFB573"/>
<path d="M409.901 545.509C409.791 546.099 410.021 546.639 410.411 546.699C410.801 546.759 411.191 546.349 411.291 545.759C411.391 545.169 411.171 544.629 410.781 544.569C410.391 544.509 410.001 544.919 409.901 545.509Z" fill="#263238"/>
<path d="M407.72 545.439C408.111 547.363 408.764 549.223 409.66 550.969C409.205 551.183 408.708 551.293 408.205 551.293C407.702 551.293 407.205 551.183 406.75 550.969L407.72 545.439Z" fill="#ED893E"/>
<path d="M401.331 549.21C401.288 549.203 401.243 549.213 401.207 549.237C401.17 549.261 401.143 549.298 401.131 549.34C401.125 549.362 401.124 549.384 401.126 549.407C401.129 549.429 401.136 549.45 401.147 549.47C401.159 549.49 401.173 549.507 401.191 549.52C401.209 549.534 401.23 549.544 401.251 549.55C401.972 549.74 402.638 550.098 403.196 550.593C403.753 551.088 404.187 551.707 404.461 552.4C404.464 552.426 404.473 552.451 404.486 552.474C404.5 552.496 404.518 552.516 404.54 552.53C404.562 552.545 404.587 552.554 404.613 552.558C404.639 552.562 404.666 552.56 404.691 552.553C404.716 552.546 404.74 552.533 404.759 552.515C404.779 552.498 404.795 552.476 404.805 552.452C404.816 552.428 404.821 552.402 404.82 552.376C404.819 552.349 404.813 552.324 404.801 552.3C404.517 551.547 404.054 550.873 403.454 550.337C402.853 549.801 402.132 549.418 401.351 549.22L401.331 549.21Z" fill="#263238"/>
<path d="M403.231 541.469C403.258 541.507 403.292 541.54 403.331 541.564C403.371 541.588 403.415 541.603 403.461 541.609C403.9 541.667 404.319 541.828 404.684 542.078C405.049 542.328 405.349 542.661 405.561 543.049C405.6 543.134 405.67 543.2 405.758 543.233C405.845 543.266 405.941 543.263 406.026 543.224C406.111 543.186 406.177 543.115 406.21 543.028C406.243 542.941 406.24 542.844 406.201 542.759C405.941 542.265 405.567 541.84 405.11 541.52C404.652 541.2 404.125 540.994 403.571 540.919C403.48 540.905 403.386 540.927 403.311 540.982C403.236 541.036 403.186 541.118 403.171 541.209C403.163 541.254 403.164 541.301 403.175 541.345C403.185 541.39 403.204 541.432 403.231 541.469Z" fill="#263238"/>
<path d="M410.621 542.15C410.595 542.179 410.575 542.213 410.561 542.25C410.543 542.292 410.533 542.338 410.533 542.384C410.533 542.431 410.542 542.477 410.56 542.519C410.577 542.562 410.603 542.601 410.636 542.634C410.669 542.666 410.708 542.692 410.751 542.71C411.26 542.938 411.816 543.041 412.373 543.01C412.93 542.979 413.471 542.814 413.951 542.53C413.992 542.505 414.027 542.473 414.055 542.434C414.083 542.396 414.103 542.352 414.113 542.306C414.124 542.259 414.125 542.211 414.116 542.164C414.107 542.118 414.089 542.073 414.062 542.034C414.036 541.994 414.001 541.96 413.961 541.935C413.921 541.909 413.877 541.892 413.83 541.884C413.783 541.876 413.735 541.878 413.688 541.889C413.642 541.9 413.599 541.921 413.561 541.95C413.176 542.167 412.745 542.29 412.304 542.31C411.862 542.329 411.423 542.243 411.021 542.06C410.953 542.031 410.878 542.024 410.806 542.04C410.734 542.056 410.669 542.095 410.621 542.15Z" fill="#263238"/>
<path d="M403.001 545.59C402.96 545.589 402.92 545.579 402.883 545.56C402.847 545.541 402.815 545.513 402.791 545.48C402.773 545.452 402.76 545.421 402.753 545.389C402.746 545.356 402.746 545.322 402.753 545.29C402.759 545.257 402.772 545.226 402.791 545.199C402.81 545.171 402.834 545.148 402.861 545.13C403.351 544.898 403.874 544.746 404.411 544.68C404.034 544.337 403.541 544.151 403.031 544.16C402.965 544.16 402.901 544.133 402.855 544.086C402.808 544.039 402.781 543.976 402.781 543.91C402.778 543.877 402.783 543.844 402.794 543.813C402.804 543.782 402.822 543.754 402.845 543.73C402.867 543.706 402.895 543.688 402.925 543.676C402.956 543.664 402.989 543.658 403.021 543.66C403.421 543.652 403.815 543.749 404.166 543.94C404.516 544.131 404.811 544.41 405.021 544.75C405.041 544.785 405.051 544.824 405.051 544.865C405.051 544.905 405.041 544.944 405.021 544.98C405.005 545.015 404.98 545.045 404.948 545.068C404.917 545.09 404.88 545.105 404.841 545.11C404.245 545.176 403.66 545.321 403.101 545.54C403.072 545.564 403.038 545.581 403.001 545.59Z" fill="#263238"/>
<path d="M388.39 535.559C388.102 534.897 387.951 534.183 387.947 533.461C387.943 532.739 388.086 532.023 388.366 531.358C388.647 530.692 389.059 530.09 389.579 529.589C390.099 529.087 390.715 528.696 391.39 528.439C396.47 525.999 402.8 527.849 405.24 526.989C405.24 526.989 405.44 524.219 408.74 524.819C412.04 525.419 413.04 529.559 413.04 529.559C413.04 529.559 413.81 525.339 416.32 528.639C418.83 531.939 415.46 538.929 409.07 539.259C402.68 539.589 391.69 537.799 388.39 535.559Z" fill="#263238"/>
<path opacity="0.1" d="M409.401 589.53C406.801 581.47 412.181 576.77 412.181 576.77C412.489 576.937 412.787 577.124 413.071 577.33C411.611 581.59 410.411 585.67 409.401 589.53Z" fill="black"/>
<path d="M418.17 766.519L432.46 762.449L433.62 765.699L419.51 769.169L418.17 766.519Z" fill="#FBA200"/>
<path d="M335.25 765.7L349.57 761.52L350.41 764.55L336.43 768.24L335.25 765.7Z" fill="#FBA200"/>
<path d="M365.66 583.609L368.18 583.419C368.646 583.392 369.112 583.473 369.541 583.657C369.969 583.841 370.349 584.123 370.65 584.479L373.48 587.899C374.037 588.571 374.425 589.367 374.611 590.219C374.797 591.072 374.776 591.956 374.55 592.799L374.27 593.859C370.11 594.449 365.19 592.029 365.19 592.029L363.71 591.489C363.404 591.388 363.12 591.226 362.876 591.015C362.632 590.803 362.433 590.546 362.289 590.257C362.144 589.968 362.059 589.653 362.037 589.331C362.015 589.009 362.057 588.685 362.16 588.379L363.16 585.429C363.352 584.914 363.692 584.467 364.136 584.143C364.581 583.819 365.111 583.634 365.66 583.609Z" fill="#EBB376"/>
<path d="M413.001 584.529C409.271 593.529 404.171 602.009 397.001 608.759C387.891 616.029 373.921 598.069 369.091 591.509C368.752 590.999 368.608 590.384 368.684 589.777C368.76 589.169 369.051 588.609 369.505 588.198C369.958 587.786 370.544 587.551 371.156 587.535C371.768 587.519 372.366 587.723 372.841 588.109C376.341 591.109 380.011 594.229 383.731 596.939C386.221 598.709 388.851 600.629 391.561 601.339C392.451 601.489 391.911 601.169 391.271 601.559L390.511 602.169C391.863 600.642 393.131 599.043 394.311 597.379C397.871 592.118 400.941 586.542 403.481 580.719C406.231 574.569 415.251 578.189 413.001 584.529Z" fill="#E9B376"/>
<path d="M402.591 579.88C399.751 583.73 392.381 596.06 392.381 596.06C392.381 596.06 402.571 600.7 409.741 599.06C409.741 599.06 416.241 588.46 418.001 584.71C419.361 581.81 421.441 575.44 416.271 572.01C411.881 569.05 404.941 576.71 402.591 579.88Z" fill="#FBA200"/>
<path d="M497 741.31C497 741.31 497.92 739.08 498 738.94C498.47 737.22 498.36 733.62 496.69 732.54C496.409 732.366 496.093 732.254 495.765 732.211C495.437 732.167 495.104 732.194 494.786 732.288C494.469 732.382 494.176 732.543 493.925 732.759C493.674 732.974 493.471 733.241 493.33 733.54C493.079 734.212 492.978 734.932 493.035 735.647C493.092 736.362 493.306 737.056 493.66 737.68C494.26 739.08 497 741.31 497 741.31Z" fill="#263238"/>
<path d="M462.001 736.05C463.341 736.86 466.831 737.22 466.831 737.22C466.831 737.22 466.371 734.85 466.321 734.71C465.771 733.02 463.701 730.08 461.701 730.09C461.37 730.103 461.046 730.186 460.749 730.333C460.452 730.479 460.189 730.686 459.977 730.941C459.765 731.195 459.609 731.491 459.518 731.81C459.428 732.128 459.405 732.462 459.451 732.79C459.614 733.486 459.926 734.138 460.367 734.701C460.807 735.264 461.365 735.724 462.001 736.05Z" fill="#263238"/>
<path d="M461.87 746.26C463.31 746.67 466.52 746.16 466.78 746.12C467.066 747.958 467.47 749.775 467.99 751.56C468.29 752.56 468.63 753.64 468.99 754.68C468.76 754.23 468.55 753.83 468.51 753.78C467.51 752.29 464.75 750 462.83 750.55C462.515 750.649 462.223 750.813 461.975 751.032C461.727 751.251 461.528 751.519 461.39 751.82C461.252 752.121 461.179 752.447 461.176 752.778C461.173 753.109 461.239 753.437 461.37 753.74C461.715 754.368 462.191 754.914 462.766 755.342C463.34 755.77 464 756.069 464.7 756.22C466.287 756.419 467.895 756.378 469.47 756.1C469.61 756.49 469.74 756.89 469.88 757.29C470.55 759.19 471.23 761.08 471.83 762.96C472.05 763.62 472.23 764.28 472.42 764.96C472.22 764.56 472.04 764.23 472.01 764.18C471.01 762.69 468.25 760.41 466.33 760.95C466.015 761.049 465.723 761.213 465.475 761.432C465.227 761.651 465.028 761.919 464.89 762.22C464.752 762.521 464.679 762.847 464.676 763.178C464.673 763.509 464.739 763.837 464.87 764.14C465.215 764.768 465.691 765.314 466.266 765.742C466.84 766.17 467.5 766.469 468.2 766.62C469.743 766.822 471.308 766.788 472.84 766.52C473.01 767.2 473.19 767.88 473.33 768.52C473.41 768.97 473.52 769.41 473.58 769.87C473.64 770.33 473.71 770.79 473.78 771.24C473.87 772.11 473.97 773.01 474.05 773.86C474.05 774.45 474.14 775.02 474.18 775.58C473.98 774.92 473.55 773.64 473.5 773.58C472.75 771.97 470.36 769.29 468.38 769.53C468.053 769.578 467.739 769.695 467.459 769.873C467.18 770.051 466.941 770.286 466.759 770.563C466.576 770.839 466.455 771.151 466.402 771.478C466.348 771.805 466.365 772.14 466.45 772.46C466.685 773.143 467.068 773.766 467.571 774.284C468.074 774.803 468.685 775.204 469.36 775.46C470.937 775.907 472.572 776.11 474.21 776.06C474.28 777.01 474.34 777.92 474.37 778.79C474.49 781.17 474.51 783.22 474.51 784.85H475.82C475.82 783.2 475.72 781.12 475.55 778.72C475.49 777.72 475.4 776.72 475.3 775.72C476.273 775.462 477.231 775.152 478.17 774.79C479.23 775.969 480.448 776.996 481.79 777.84C481.32 778.66 480.86 779.45 480.42 780.2C479.33 782.02 478.33 783.59 477.49 784.87H479C479.73 783.7 480.55 782.33 481.42 780.79C481.89 779.96 482.42 779.06 482.88 778.13C484.417 778.706 486.032 779.043 487.67 779.13C488.386 779.112 489.09 778.936 489.731 778.617C490.372 778.297 490.935 777.841 491.38 777.28C491.562 777.004 491.684 776.692 491.738 776.366C491.792 776.039 491.777 775.705 491.694 775.385C491.611 775.065 491.462 774.765 491.256 774.506C491.051 774.247 490.793 774.034 490.5 773.88C488.71 773.01 485.57 774.78 484.34 776.06C484.27 776.14 483.57 777.06 483.15 777.63L483.75 776.49C484.15 775.71 484.53 774.92 484.94 774.08L485.5 772.82C485.7 772.4 485.85 771.94 486.03 771.5C486.42 770.5 486.77 769.39 487.09 768.3C488.48 769.074 489.981 769.627 491.54 769.94C492.259 770.036 492.991 769.973 493.683 769.753C494.374 769.533 495.009 769.164 495.54 768.67C495.764 768.425 495.933 768.136 496.037 767.822C496.14 767.507 496.177 767.174 496.143 766.844C496.109 766.515 496.005 766.196 495.839 765.909C495.674 765.623 495.449 765.374 495.18 765.18C493.54 764.05 490.18 765.32 488.77 766.4C488.68 766.47 487.77 767.4 487.25 767.86C487.44 767.21 487.64 766.56 487.81 765.86C488.3 763.93 488.74 761.96 489.19 760L489.61 758.2C491.049 759 492.6 759.58 494.21 759.92C494.929 760.011 495.659 759.944 496.35 759.725C497.041 759.506 497.675 759.139 498.21 758.65C498.434 758.405 498.603 758.116 498.707 757.802C498.81 757.487 498.846 757.154 498.813 756.824C498.779 756.495 498.675 756.176 498.509 755.889C498.344 755.603 498.119 755.354 497.85 755.16C496.21 754.03 492.85 755.29 491.44 756.38C491.33 756.46 490 757.75 489.68 758.09C489.99 756.77 490.31 755.46 490.68 754.18C491.17 752.453 491.771 750.759 492.48 749.11C492.6 749.17 495.58 750.75 497.11 750.84C497.821 750.929 498.543 750.861 499.226 750.642C499.908 750.422 500.534 750.057 501.06 749.57C501.283 749.325 501.451 749.037 501.555 748.723C501.659 748.409 501.695 748.076 501.662 747.747C501.629 747.418 501.527 747.1 501.363 746.812C501.199 746.525 500.977 746.276 500.71 746.08C499.07 744.95 495.71 746.21 494.29 747.3C494.2 747.37 493.19 748.3 492.72 748.83L492.62 748.76C493.384 747.12 494.291 745.551 495.33 744.07C495.89 743.25 496.48 742.49 497.06 741.77C498.382 742.702 499.834 743.434 501.37 743.94C502.069 744.102 502.793 744.111 503.496 743.968C504.198 743.825 504.861 743.532 505.44 743.11C505.687 742.889 505.883 742.618 506.018 742.316C506.153 742.013 506.223 741.686 506.223 741.355C506.223 741.024 506.153 740.697 506.018 740.394C505.883 740.092 505.687 739.821 505.44 739.6C503.94 738.29 500.44 739.18 498.93 740.11C498.85 740.16 498.06 740.76 497.5 741.21C497.77 740.89 498.04 740.55 498.3 740.21C499.3 739.07 500.3 738.08 501.13 737.21C501.63 736.72 502.13 736.29 502.53 735.89C504.124 736.114 505.743 736.093 507.33 735.83C508.024 735.652 508.672 735.327 509.229 734.876C509.786 734.426 510.24 733.861 510.56 733.22C510.678 732.911 510.73 732.581 510.712 732.251C510.695 731.921 510.608 731.598 510.459 731.303C510.309 731.008 510.099 730.748 509.843 730.539C509.586 730.33 509.289 730.177 508.97 730.09C507.03 729.62 504.35 732.02 503.42 733.54C503.34 733.67 502.33 735.87 502.37 735.88C501.94 736.26 501.49 736.66 501 737.12C500.11 737.96 499.11 738.93 498.1 740.05C496.994 741.248 495.959 742.51 495 743.83C493.916 745.302 492.965 746.868 492.16 748.51V748.57C492.25 747.99 492.43 746.37 492.43 746.24C492.43 744.46 491.37 741.02 489.43 740.41C489.111 740.315 488.775 740.288 488.444 740.332C488.113 740.376 487.796 740.49 487.512 740.666C487.229 740.842 486.986 741.075 486.799 741.352C486.613 741.629 486.487 741.941 486.43 742.27C486.369 742.983 486.463 743.702 486.706 744.375C486.95 745.049 487.337 745.661 487.84 746.17C489.095 747.239 490.504 748.113 492.02 748.76C491.236 750.449 490.568 752.19 490.02 753.97C489.7 754.97 489.4 756.06 489.12 757.11C489.18 756.61 489.22 756.16 489.22 756.11C489.22 754.33 488.22 750.89 486.27 750.28C485.951 750.185 485.615 750.158 485.284 750.202C484.953 750.246 484.636 750.36 484.352 750.536C484.069 750.712 483.826 750.945 483.639 751.222C483.453 751.499 483.327 751.811 483.27 752.14C483.209 752.854 483.303 753.572 483.546 754.245C483.79 754.919 484.177 755.531 484.68 756.04C485.891 757.088 487.257 757.942 488.73 758.57C488.62 758.98 488.51 759.39 488.41 759.79C487.92 761.79 487.41 763.7 486.91 765.6C486.72 766.27 486.51 766.92 486.31 767.6C486.36 767.15 486.39 766.78 486.39 766.72C486.39 764.94 485.39 761.5 483.44 760.89C483.121 760.795 482.785 760.768 482.454 760.812C482.123 760.856 481.806 760.97 481.522 761.146C481.239 761.322 480.996 761.555 480.809 761.832C480.623 762.109 480.497 762.421 480.44 762.75C480.383 763.463 480.479 764.18 480.722 764.853C480.965 765.526 481.35 766.139 481.85 766.65C483.026 767.672 484.352 768.509 485.78 769.13C485.54 769.79 485.31 770.45 485.06 771.13C484.88 771.55 484.73 771.98 484.52 772.4C484.31 772.82 484.13 773.23 483.94 773.65C483.53 774.42 483.12 775.23 482.71 775.98L482 777.4C482.19 776.73 482.54 775.4 482.56 775.31C482.737 773.752 482.51 772.175 481.9 770.73C481.915 770.557 481.915 770.383 481.9 770.21C481.901 769.879 481.831 769.551 481.697 769.248C481.562 768.946 481.366 768.675 481.119 768.453C480.873 768.231 480.583 768.064 480.268 767.962C479.953 767.86 479.62 767.825 479.29 767.86C477.29 768.12 475.67 771.32 475.36 773.07C475.36 773.18 475.26 774.32 475.22 775.07C475.22 774.65 475.15 774.23 475.1 773.79C475 772.92 474.89 772.05 474.76 771.12C474.69 770.67 474.61 770.22 474.53 769.76C474.45 769.3 474.34 768.83 474.24 768.37C474 767.28 473.7 766.2 473.37 765.11C474.962 764.981 476.523 764.606 478 764C478.642 763.681 479.206 763.226 479.653 762.666C480.101 762.107 480.421 761.456 480.59 760.76C480.643 760.433 480.625 760.098 480.539 759.778C480.453 759.457 480.3 759.159 480.091 758.902C479.881 758.645 479.619 758.435 479.323 758.287C479.026 758.138 478.702 758.054 478.37 758.04C476.37 758.04 474.27 760.92 473.69 762.6C473.69 762.7 473.38 763.96 473.24 764.6C473.04 763.95 472.84 763.3 472.61 762.65C471.96 760.77 471.24 758.88 470.53 757C470.31 756.42 470.11 755.84 469.89 755.27C470.16 755.27 473.39 754.91 474.68 754.16C475.323 753.842 475.888 753.387 476.335 752.828C476.783 752.268 477.102 751.617 477.27 750.92C477.321 750.593 477.303 750.259 477.216 749.939C477.129 749.619 476.976 749.322 476.767 749.065C476.557 748.809 476.296 748.599 476.001 748.45C475.705 748.301 475.381 748.216 475.05 748.2C473.05 748.2 470.95 751.08 470.38 752.76C470.33 752.89 469.93 754.7 469.85 755.16C469.39 753.89 468.93 752.62 468.54 751.35C467.996 749.633 467.565 747.883 467.25 746.11C467.37 746.11 470.74 745.78 472.06 745.01C472.703 744.691 473.268 744.236 473.717 743.677C474.166 743.117 474.488 742.467 474.66 741.77C474.71 741.443 474.69 741.109 474.603 740.79C474.515 740.472 474.362 740.174 474.153 739.918C473.944 739.662 473.683 739.453 473.388 739.303C473.094 739.153 472.771 739.067 472.44 739.05C470.44 739.05 468.33 741.93 467.76 743.61C467.76 743.72 467.41 745.1 467.28 745.75H467.17C466.9 743.96 466.79 742.15 466.84 740.34C466.84 739.34 466.93 738.39 467.01 737.47C468.63 737.523 470.248 737.331 471.81 736.9C472.481 736.648 473.089 736.256 473.595 735.748C474.1 735.241 474.491 734.631 474.74 733.96C474.827 733.641 474.846 733.307 474.795 732.98C474.743 732.653 474.624 732.34 474.444 732.062C474.263 731.785 474.026 731.549 473.748 731.369C473.47 731.189 473.157 731.07 472.83 731.02C470.83 730.76 468.44 733.42 467.68 735.02C467.68 735.11 467.32 736.02 467.1 736.73C467.1 736.32 467.18 735.89 467.24 735.49C467.43 733.99 467.7 732.64 467.95 731.44C468.1 730.76 468.24 730.14 468.39 729.57C469.856 728.879 471.205 727.965 472.39 726.86C472.874 726.332 473.237 725.706 473.455 725.024C473.672 724.342 473.739 723.62 473.65 722.91C473.579 722.586 473.44 722.281 473.243 722.013C473.047 721.746 472.796 721.524 472.507 721.36C472.219 721.196 471.899 721.094 471.569 721.061C471.239 721.029 470.905 721.066 470.59 721.17C468.72 721.86 467.81 725.33 467.87 727.11C467.87 727.27 468.25 729.66 468.28 729.64C468.13 730.19 467.98 730.78 467.82 731.43C467.55 732.62 467.25 733.98 467.02 735.43C466.757 737.039 466.59 738.662 466.52 740.29C466.428 742.116 466.499 743.947 466.73 745.76C466.73 745.76 466.73 745.76 466.73 745.82C466.48 745.29 465.73 743.82 465.67 743.73C464.67 742.25 461.91 739.96 459.99 740.5C459.675 740.599 459.383 740.763 459.135 740.982C458.887 741.201 458.688 741.469 458.55 741.77C458.412 742.071 458.339 742.397 458.336 742.728C458.333 743.059 458.399 743.387 458.53 743.69C458.863 744.339 459.334 744.906 459.912 745.35C460.489 745.794 461.158 746.105 461.87 746.26Z" fill="#263238"/>
<path opacity="0.3" d="M462.001 736.05C463.341 736.86 466.831 737.22 466.831 737.22C466.831 737.22 466.371 734.85 466.321 734.71C465.771 733.02 463.701 730.08 461.701 730.09C461.37 730.103 461.046 730.186 460.749 730.333C460.452 730.479 460.189 730.686 459.977 730.941C459.765 731.195 459.609 731.491 459.518 731.81C459.428 732.128 459.405 732.462 459.451 732.79C459.614 733.486 459.926 734.138 460.367 734.701C460.807 735.264 461.365 735.724 462.001 736.05Z" fill="#263238"/>
<path opacity="0.3" d="M497 741.31C497 741.31 497.92 739.08 498 738.94C498.47 737.22 498.36 733.62 496.69 732.54C496.409 732.366 496.093 732.254 495.765 732.211C495.437 732.167 495.104 732.194 494.786 732.288C494.469 732.382 494.176 732.543 493.925 732.759C493.674 732.974 493.471 733.241 493.33 733.54C493.079 734.212 492.978 734.932 493.035 735.647C493.092 736.362 493.306 737.056 493.66 737.68C494.26 739.08 497 741.31 497 741.31Z" fill="#263238"/>
<path opacity="0.3" d="M461.87 746.26C463.31 746.67 466.52 746.16 466.78 746.12C467.066 747.958 467.47 749.775 467.99 751.56C468.29 752.56 468.63 753.64 468.99 754.68C468.76 754.23 468.55 753.83 468.51 753.78C467.51 752.29 464.75 750 462.83 750.55C462.515 750.649 462.223 750.813 461.975 751.032C461.727 751.251 461.528 751.519 461.39 751.82C461.252 752.121 461.179 752.447 461.176 752.778C461.173 753.109 461.239 753.437 461.37 753.74C461.715 754.368 462.191 754.914 462.766 755.342C463.34 755.77 464 756.069 464.7 756.22C466.287 756.419 467.895 756.378 469.47 756.1C469.61 756.49 469.74 756.89 469.88 757.29C470.55 759.19 471.23 761.08 471.83 762.96C472.05 763.62 472.23 764.28 472.42 764.96C472.22 764.56 472.04 764.23 472.01 764.18C471.01 762.69 468.25 760.41 466.33 760.95C466.015 761.049 465.723 761.213 465.475 761.432C465.227 761.651 465.028 761.919 464.89 762.22C464.752 762.521 464.679 762.847 464.676 763.178C464.673 763.509 464.739 763.837 464.87 764.14C465.215 764.768 465.691 765.314 466.266 765.742C466.84 766.17 467.5 766.469 468.2 766.62C469.743 766.822 471.308 766.788 472.84 766.52C473.01 767.2 473.19 767.88 473.33 768.52C473.41 768.97 473.52 769.41 473.58 769.87C473.64 770.33 473.71 770.79 473.78 771.24C473.87 772.11 473.97 773.01 474.05 773.86C474.05 774.45 474.14 775.02 474.18 775.58C473.98 774.92 473.55 773.64 473.5 773.58C472.75 771.97 470.36 769.29 468.38 769.53C468.053 769.578 467.739 769.695 467.459 769.873C467.18 770.051 466.941 770.286 466.759 770.563C466.576 770.839 466.455 771.151 466.402 771.478C466.348 771.805 466.365 772.14 466.45 772.46C466.685 773.143 467.068 773.766 467.571 774.284C468.074 774.803 468.685 775.204 469.36 775.46C470.937 775.907 472.572 776.11 474.21 776.06C474.28 777.01 474.34 777.92 474.37 778.79C474.49 781.17 474.51 783.22 474.51 784.85H475.82C475.82 783.2 475.72 781.12 475.55 778.72C475.49 777.72 475.4 776.72 475.3 775.72C476.273 775.462 477.231 775.152 478.17 774.79C479.23 775.969 480.448 776.996 481.79 777.84C481.32 778.66 480.86 779.45 480.42 780.2C479.33 782.02 478.33 783.59 477.49 784.87H479C479.73 783.7 480.55 782.33 481.42 780.79C481.89 779.96 482.42 779.06 482.88 778.13C484.417 778.706 486.032 779.043 487.67 779.13C488.386 779.112 489.09 778.936 489.731 778.617C490.372 778.297 490.935 777.841 491.38 777.28C491.562 777.004 491.684 776.692 491.738 776.366C491.792 776.039 491.777 775.705 491.694 775.385C491.611 775.065 491.462 774.765 491.256 774.506C491.051 774.247 490.793 774.034 490.5 773.88C488.71 773.01 485.57 774.78 484.34 776.06C484.27 776.14 483.57 777.06 483.15 777.63L483.75 776.49C484.15 775.71 484.53 774.92 484.94 774.08L485.5 772.82C485.7 772.4 485.85 771.94 486.03 771.5C486.42 770.5 486.77 769.39 487.09 768.3C488.48 769.074 489.981 769.627 491.54 769.94C492.259 770.036 492.991 769.973 493.683 769.753C494.374 769.533 495.009 769.164 495.54 768.67C495.764 768.425 495.933 768.136 496.037 767.822C496.14 767.507 496.177 767.174 496.143 766.844C496.109 766.515 496.005 766.196 495.839 765.909C495.674 765.623 495.449 765.374 495.18 765.18C493.54 764.05 490.18 765.32 488.77 766.4C488.68 766.47 487.77 767.4 487.25 767.86C487.44 767.21 487.64 766.56 487.81 765.86C488.3 763.93 488.74 761.96 489.19 760L489.61 758.2C491.049 759 492.6 759.58 494.21 759.92C494.929 760.011 495.659 759.944 496.35 759.725C497.041 759.506 497.675 759.139 498.21 758.65C498.434 758.405 498.603 758.116 498.707 757.802C498.81 757.487 498.846 757.154 498.813 756.824C498.779 756.495 498.675 756.176 498.509 755.889C498.344 755.603 498.119 755.354 497.85 755.16C496.21 754.03 492.85 755.29 491.44 756.38C491.33 756.46 490 757.75 489.68 758.09C489.99 756.77 490.31 755.46 490.68 754.18C491.17 752.453 491.771 750.759 492.48 749.11C492.6 749.17 495.58 750.75 497.11 750.84C497.821 750.929 498.543 750.861 499.226 750.642C499.908 750.422 500.534 750.057 501.06 749.57C501.283 749.325 501.451 749.037 501.555 748.723C501.659 748.409 501.695 748.076 501.662 747.747C501.629 747.418 501.527 747.1 501.363 746.812C501.199 746.525 500.977 746.276 500.71 746.08C499.07 744.95 495.71 746.21 494.29 747.3C494.2 747.37 493.19 748.3 492.72 748.83L492.62 748.76C493.384 747.12 494.291 745.551 495.33 744.07C495.89 743.25 496.48 742.49 497.06 741.77C498.382 742.702 499.834 743.434 501.37 743.94C502.069 744.102 502.793 744.111 503.496 743.968C504.198 743.825 504.861 743.532 505.44 743.11C505.687 742.889 505.883 742.618 506.018 742.316C506.153 742.013 506.223 741.686 506.223 741.355C506.223 741.024 506.153 740.697 506.018 740.394C505.883 740.092 505.687 739.821 505.44 739.6C503.94 738.29 500.44 739.18 498.93 740.11C498.85 740.16 498.06 740.76 497.5 741.21C497.77 740.89 498.04 740.55 498.3 740.21C499.3 739.07 500.3 738.08 501.13 737.21C501.63 736.72 502.13 736.29 502.53 735.89C504.124 736.114 505.743 736.093 507.33 735.83C508.024 735.652 508.672 735.327 509.229 734.876C509.786 734.426 510.24 733.861 510.56 733.22C510.678 732.911 510.73 732.581 510.712 732.251C510.695 731.921 510.608 731.598 510.459 731.303C510.309 731.008 510.099 730.748 509.843 730.539C509.586 730.33 509.289 730.177 508.97 730.09C507.03 729.62 504.35 732.02 503.42 733.54C503.34 733.67 502.33 735.87 502.37 735.88C501.94 736.26 501.49 736.66 501 737.12C500.11 737.96 499.11 738.93 498.1 740.05C496.994 741.248 495.959 742.51 495 743.83C493.916 745.302 492.965 746.868 492.16 748.51V748.57C492.25 747.99 492.43 746.37 492.43 746.24C492.43 744.46 491.37 741.02 489.43 740.41C489.111 740.315 488.775 740.288 488.444 740.332C488.113 740.376 487.796 740.49 487.512 740.666C487.229 740.842 486.986 741.075 486.799 741.352C486.613 741.629 486.487 741.941 486.43 742.27C486.369 742.983 486.463 743.702 486.706 744.375C486.95 745.049 487.337 745.661 487.84 746.17C489.095 747.239 490.504 748.113 492.02 748.76C491.236 750.449 490.568 752.19 490.02 753.97C489.7 754.97 489.4 756.06 489.12 757.11C489.18 756.61 489.22 756.16 489.22 756.11C489.22 754.33 488.22 750.89 486.27 750.28C485.951 750.185 485.615 750.158 485.284 750.202C484.953 750.246 484.636 750.36 484.352 750.536C484.069 750.712 483.826 750.945 483.639 751.222C483.453 751.499 483.327 751.811 483.27 752.14C483.209 752.854 483.303 753.572 483.546 754.245C483.79 754.919 484.177 755.531 484.68 756.04C485.891 757.088 487.257 757.942 488.73 758.57C488.62 758.98 488.51 759.39 488.41 759.79C487.92 761.79 487.41 763.7 486.91 765.6C486.72 766.27 486.51 766.92 486.31 767.6C486.36 767.15 486.39 766.78 486.39 766.72C486.39 764.94 485.39 761.5 483.44 760.89C483.121 760.795 482.785 760.768 482.454 760.812C482.123 760.856 481.806 760.97 481.522 761.146C481.239 761.322 480.996 761.555 480.809 761.832C480.623 762.109 480.497 762.421 480.44 762.75C480.383 763.463 480.479 764.18 480.722 764.853C480.965 765.526 481.35 766.139 481.85 766.65C483.026 767.672 484.352 768.509 485.78 769.13C485.54 769.79 485.31 770.45 485.06 771.13C484.88 771.55 484.73 771.98 484.52 772.4C484.31 772.82 484.13 773.23 483.94 773.65C483.53 774.42 483.12 775.23 482.71 775.98L482 777.4C482.19 776.73 482.54 775.4 482.56 775.31C482.737 773.752 482.51 772.175 481.9 770.73C481.915 770.557 481.915 770.383 481.9 770.21C481.901 769.879 481.831 769.551 481.697 769.248C481.562 768.946 481.366 768.675 481.119 768.453C480.873 768.231 480.583 768.064 480.268 767.962C479.953 767.86 479.62 767.825 479.29 767.86C477.29 768.12 475.67 771.32 475.36 773.07C475.36 773.18 475.26 774.32 475.22 775.07C475.22 774.65 475.15 774.23 475.1 773.79C475 772.92 474.89 772.05 474.76 771.12C474.69 770.67 474.61 770.22 474.53 769.76C474.45 769.3 474.34 768.83 474.24 768.37C474 767.28 473.7 766.2 473.37 765.11C474.962 764.981 476.523 764.606 478 764C478.642 763.681 479.206 763.226 479.653 762.666C480.101 762.107 480.421 761.456 480.59 760.76C480.643 760.433 480.625 760.098 480.539 759.778C480.453 759.457 480.3 759.159 480.091 758.902C479.881 758.645 479.619 758.435 479.323 758.287C479.026 758.138 478.702 758.054 478.37 758.04C476.37 758.04 474.27 760.92 473.69 762.6C473.69 762.7 473.38 763.96 473.24 764.6C473.04 763.95 472.84 763.3 472.61 762.65C471.96 760.77 471.24 758.88 470.53 757C470.31 756.42 470.11 755.84 469.89 755.27C470.16 755.27 473.39 754.91 474.68 754.16C475.323 753.842 475.888 753.387 476.335 752.828C476.783 752.268 477.102 751.617 477.27 750.92C477.321 750.593 477.303 750.259 477.216 749.939C477.129 749.619 476.976 749.322 476.767 749.065C476.557 748.809 476.296 748.599 476.001 748.45C475.705 748.301 475.381 748.216 475.05 748.2C473.05 748.2 470.95 751.08 470.38 752.76C470.33 752.89 469.93 754.7 469.85 755.16C469.39 753.89 468.93 752.62 468.54 751.35C467.996 749.633 467.565 747.883 467.25 746.11C467.37 746.11 470.74 745.78 472.06 745.01C472.703 744.691 473.268 744.236 473.717 743.677C474.166 743.117 474.488 742.467 474.66 741.77C474.71 741.443 474.69 741.109 474.603 740.79C474.515 740.472 474.362 740.174 474.153 739.918C473.944 739.662 473.683 739.453 473.388 739.303C473.094 739.153 472.771 739.067 472.44 739.05C470.44 739.05 468.33 741.93 467.76 743.61C467.76 743.72 467.41 745.1 467.28 745.75H467.17C466.9 743.96 466.79 742.15 466.84 740.34C466.84 739.34 466.93 738.39 467.01 737.47C468.63 737.523 470.248 737.331 471.81 736.9C472.481 736.648 473.089 736.256 473.595 735.748C474.1 735.241 474.491 734.631 474.74 733.96C474.827 733.641 474.846 733.307 474.795 732.98C474.743 732.653 474.624 732.34 474.444 732.062C474.263 731.785 474.026 731.549 473.748 731.369C473.47 731.189 473.157 731.07 472.83 731.02C470.83 730.76 468.44 733.42 467.68 735.02C467.68 735.11 467.32 736.02 467.1 736.73C467.1 736.32 467.18 735.89 467.24 735.49C467.43 733.99 467.7 732.64 467.95 731.44C468.1 730.76 468.24 730.14 468.39 729.57C469.856 728.879 471.205 727.965 472.39 726.86C472.874 726.332 473.237 725.706 473.455 725.024C473.672 724.342 473.739 723.62 473.65 722.91C473.579 722.586 473.44 722.281 473.243 722.013C473.047 721.746 472.796 721.524 472.507 721.36C472.219 721.196 471.899 721.094 471.569 721.061C471.239 721.029 470.905 721.066 470.59 721.17C468.72 721.86 467.81 725.33 467.87 727.11C467.87 727.27 468.25 729.66 468.28 729.64C468.13 730.19 467.98 730.78 467.82 731.43C467.55 732.62 467.25 733.98 467.02 735.43C466.757 737.039 466.59 738.662 466.52 740.29C466.428 742.116 466.499 743.947 466.73 745.76C466.73 745.76 466.73 745.76 466.73 745.82C466.48 745.29 465.73 743.82 465.67 743.73C464.67 742.25 461.91 739.96 459.99 740.5C459.675 740.599 459.383 740.763 459.135 740.982C458.887 741.201 458.688 741.469 458.55 741.77C458.412 742.071 458.339 742.397 458.336 742.728C458.333 743.059 458.399 743.387 458.53 743.69C458.863 744.339 459.334 744.906 459.912 745.35C460.489 745.794 461.158 746.105 461.87 746.26Z" fill="#263238"/>
<path d="M124.289 756.79C124.289 756.79 123.699 755.36 123.669 755.27C123.369 754.16 123.439 751.85 124.509 751.15C124.691 751.038 124.894 750.965 125.106 750.937C125.317 750.909 125.532 750.926 125.737 750.986C125.942 751.046 126.131 751.149 126.294 751.288C126.456 751.426 126.588 751.597 126.679 751.79C126.841 752.222 126.906 752.684 126.87 753.143C126.834 753.603 126.697 754.049 126.469 754.45C125.862 755.333 125.127 756.121 124.289 756.79Z" fill="#263238"/>
<path d="M146.83 753.41C145.84 753.814 144.796 754.067 143.73 754.16C143.73 754.16 144.02 752.64 144.05 752.54C144.41 751.46 145.74 749.54 147.05 749.54C147.264 749.549 147.472 749.603 147.664 749.697C147.855 749.792 148.024 749.925 148.161 750.089C148.297 750.253 148.398 750.444 148.456 750.649C148.515 750.854 148.53 751.069 148.5 751.28C148.397 751.736 148.193 752.164 147.904 752.532C147.615 752.9 147.249 753.2 146.83 753.41Z" fill="#263238"/>
<path d="M146.89 760C145.838 760.132 144.772 760.101 143.73 759.91C143.54 761.092 143.28 762.26 142.95 763.41C142.75 764.08 142.54 764.75 142.31 765.41C142.46 765.12 142.59 764.86 142.62 764.83C143.25 763.83 145.04 762.4 146.27 762.75C146.473 762.813 146.662 762.918 146.822 763.058C146.982 763.198 147.111 763.371 147.199 763.565C147.288 763.758 147.335 763.968 147.337 764.181C147.339 764.394 147.295 764.605 147.21 764.8C146.993 765.208 146.688 765.563 146.318 765.839C145.949 766.116 145.522 766.307 145.07 766.4C144.048 766.53 143.013 766.503 142 766.32L141.73 767.09C141.3 768.31 140.87 769.53 140.48 770.74C140.34 771.17 140.22 771.59 140.1 772.02C140.18 771.845 140.27 771.675 140.37 771.51C141 770.56 142.78 769.08 144.02 769.43C144.224 769.494 144.412 769.6 144.572 769.741C144.733 769.883 144.861 770.056 144.95 770.25C145.039 770.445 145.085 770.656 145.087 770.869C145.089 771.083 145.045 771.295 144.96 771.49C144.739 771.894 144.434 772.246 144.064 772.52C143.695 772.795 143.27 772.986 142.82 773.08C141.823 773.214 140.811 773.194 139.82 773.02C139.71 773.46 139.6 773.89 139.51 774.32C139.42 774.75 139.38 774.9 139.35 775.2C139.32 775.5 139.26 775.79 139.22 776.08C139.16 776.64 139.09 777.21 139.05 777.76C139.01 778.14 138.98 778.51 138.96 778.87C139.09 778.45 139.37 777.62 139.4 777.55C139.88 776.55 141.4 774.79 142.69 774.94C142.905 774.965 143.112 775.036 143.298 775.147C143.484 775.258 143.644 775.408 143.768 775.585C143.892 775.763 143.977 775.965 144.017 776.178C144.057 776.391 144.051 776.61 144 776.82C143.845 777.256 143.596 777.651 143.271 777.98C142.946 778.308 142.553 778.561 142.12 778.72C141.107 779.013 140.054 779.145 139 779.11C139 779.72 138.92 780.31 138.89 780.87C138.82 782.4 138.81 783.72 138.81 784.77H137.96C137.96 783.71 138.03 782.37 138.13 780.83C138.13 780.21 138.23 779.55 138.3 778.88C137.672 778.716 137.054 778.516 136.45 778.28C135.773 779.055 134.988 779.728 134.12 780.28C134.42 780.81 134.72 781.28 135 781.8C135.7 782.98 136.35 783.99 136.89 784.8H135.89C135.43 784.05 134.89 783.17 134.34 782.18C134.03 781.64 133.71 781.06 133.4 780.46C132.411 780.826 131.373 781.042 130.32 781.1C129.857 781.088 129.403 780.975 128.989 780.77C128.574 780.564 128.21 780.271 127.92 779.91C127.803 779.732 127.726 779.531 127.691 779.321C127.657 779.111 127.667 778.896 127.721 778.689C127.774 778.483 127.871 778.291 128.003 778.124C128.135 777.957 128.301 777.819 128.49 777.72C129.64 777.16 131.66 778.3 132.49 779.12C132.49 779.17 132.99 779.76 133.26 780.12L132.88 779.39C132.62 778.89 132.37 778.39 132.11 777.84L131.75 777.03C131.62 776.76 131.52 776.46 131.41 776.17C131.16 775.51 130.93 774.82 130.72 774.17C129.824 774.651 128.859 774.988 127.86 775.17C127.401 775.229 126.936 775.186 126.495 775.047C126.055 774.907 125.65 774.673 125.31 774.36C125.166 774.202 125.058 774.016 124.991 773.813C124.925 773.611 124.901 773.396 124.923 773.184C124.945 772.972 125.011 772.767 125.117 772.582C125.223 772.397 125.367 772.236 125.54 772.11C126.6 771.38 128.76 772.2 129.67 772.9C129.73 772.9 130.32 773.51 130.67 773.84C130.54 773.41 130.42 772.99 130.31 772.56C129.99 771.32 129.71 770.05 129.42 768.79L129.15 767.63C128.215 768.156 127.202 768.531 126.15 768.74C125.693 768.798 125.229 768.755 124.79 768.615C124.352 768.475 123.949 768.242 123.61 767.93C123.466 767.772 123.358 767.586 123.291 767.383C123.225 767.181 123.201 766.966 123.223 766.754C123.245 766.542 123.311 766.337 123.417 766.152C123.523 765.967 123.667 765.806 123.84 765.68C124.84 764.95 127.06 765.76 127.97 766.46C128.04 766.52 128.89 767.34 129.1 767.56C128.9 766.72 128.69 765.87 128.45 765.05C128.133 763.937 127.745 762.845 127.29 761.78C126.351 762.301 125.34 762.678 124.29 762.9C123.832 762.957 123.368 762.913 122.929 762.772C122.49 762.63 122.088 762.394 121.75 762.08C121.606 761.923 121.497 761.737 121.429 761.535C121.362 761.333 121.338 761.119 121.358 760.906C121.379 760.694 121.444 760.489 121.55 760.303C121.655 760.118 121.798 759.957 121.97 759.83C123.03 759.1 125.2 759.92 126.1 760.62C126.16 760.62 126.82 761.29 127.1 761.62H127.16C126.666 760.573 126.084 759.569 125.42 758.62C125.05 758.09 124.68 757.62 124.3 757.14C123.451 757.739 122.517 758.207 121.53 758.53C121.081 758.637 120.614 758.645 120.162 758.553C119.709 758.462 119.282 758.273 118.91 758C118.75 757.859 118.622 757.685 118.534 757.49C118.447 757.295 118.401 757.084 118.401 756.87C118.401 756.657 118.447 756.446 118.534 756.251C118.622 756.056 118.75 755.882 118.91 755.74C119.91 754.9 122.12 755.47 123.1 756.07C123.15 756.07 123.66 756.49 124.02 756.78C123.85 756.57 123.67 756.35 123.5 756.16C122.87 755.42 122.24 754.79 121.68 754.24C121.36 753.92 121.06 753.65 120.78 753.39C119.753 753.532 118.711 753.515 117.69 753.34C117.244 753.23 116.827 753.023 116.47 752.735C116.112 752.446 115.822 752.083 115.62 751.67C115.544 751.474 115.509 751.264 115.519 751.054C115.529 750.843 115.583 750.637 115.677 750.449C115.771 750.261 115.904 750.094 116.066 749.96C116.228 749.826 116.417 749.727 116.62 749.67C117.87 749.37 119.62 750.91 120.19 751.89C120.24 751.98 120.89 753.39 120.87 753.4C121.15 753.64 121.44 753.9 121.75 754.2C122.32 754.74 122.96 755.36 123.62 756.08C124.327 756.859 124.995 757.674 125.62 758.52C126.313 759.465 126.922 760.469 127.44 761.52C127.39 761.14 127.27 760.1 127.27 760.02C127.27 758.87 127.95 756.66 129.17 756.27C129.374 756.209 129.589 756.192 129.801 756.22C130.013 756.249 130.216 756.321 130.397 756.434C130.579 756.546 130.734 756.696 130.854 756.873C130.973 757.05 131.053 757.25 131.09 757.46C131.131 757.92 131.071 758.383 130.914 758.817C130.757 759.25 130.506 759.644 130.18 759.97C129.374 760.661 128.466 761.224 127.49 761.64C127.994 762.726 128.421 763.845 128.77 764.99C128.98 765.66 129.17 766.34 129.35 766.99C129.35 766.66 129.29 766.38 129.29 766.33C129.29 765.19 129.97 762.97 131.19 762.58C131.395 762.523 131.61 762.508 131.821 762.539C132.032 762.569 132.234 762.643 132.415 762.756C132.596 762.869 132.751 763.018 132.871 763.195C132.99 763.371 133.072 763.571 133.11 763.78C133.147 764.24 133.085 764.701 132.928 765.134C132.771 765.568 132.523 765.962 132.2 766.29C131.419 766.965 130.539 767.515 129.59 767.92L129.8 768.71C130.11 769.96 130.42 771.22 130.8 772.44C130.92 772.88 131.06 773.3 131.19 773.72C131.19 773.43 131.19 773.19 131.19 773.15C131.19 772 131.86 769.79 133.09 769.4C133.294 769.343 133.509 769.328 133.719 769.358C133.929 769.387 134.131 769.46 134.312 769.572C134.493 769.684 134.648 769.832 134.768 770.008C134.888 770.183 134.971 770.382 135.01 770.59C135.048 771.051 134.986 771.515 134.829 771.949C134.672 772.384 134.423 772.78 134.1 773.11C133.341 773.765 132.488 774.301 131.57 774.7C131.72 775.13 131.87 775.56 132.03 775.96C132.19 776.36 132.24 776.51 132.38 776.78C132.52 777.05 132.63 777.32 132.75 777.58C133.01 778.09 133.28 778.58 133.54 779.09L134.08 780.09C133.96 779.66 133.73 778.82 133.72 778.75C133.604 777.747 133.749 776.731 134.14 775.8C134.125 775.691 134.125 775.58 134.14 775.47C134.139 775.257 134.183 775.045 134.269 774.849C134.355 774.654 134.481 774.478 134.64 774.335C134.799 774.191 134.986 774.083 135.189 774.017C135.392 773.95 135.607 773.928 135.82 773.95C137.09 774.12 138.14 776.18 138.35 777.31C138.35 777.38 138.41 778.11 138.43 778.58C138.43 778.3 138.43 778.04 138.52 777.75C138.58 777.19 138.65 776.63 138.73 776.03L138.88 775.16C138.88 774.87 139 774.56 139.06 774.26C139.22 773.56 139.42 772.87 139.63 772.17C138.601 772.088 137.589 771.852 136.63 771.47C136.217 771.263 135.855 770.968 135.567 770.608C135.278 770.247 135.071 769.828 134.96 769.38C134.929 769.17 134.942 768.955 134.999 768.75C135.055 768.546 135.154 768.355 135.289 768.19C135.423 768.025 135.591 767.89 135.78 767.794C135.97 767.698 136.177 767.642 136.39 767.63C137.68 767.63 139.03 769.48 139.39 770.57C139.39 770.64 139.59 771.44 139.68 771.89C139.81 771.47 139.94 771.05 140.08 770.63C140.5 769.42 140.96 768.21 141.42 766.99C141.56 766.62 141.7 766.25 141.83 765.88C140.774 765.796 139.736 765.557 138.75 765.17C138.312 764.965 137.928 764.663 137.624 764.287C137.321 763.911 137.108 763.471 137 763C136.967 762.79 136.979 762.575 137.035 762.369C137.092 762.163 137.19 761.972 137.325 761.807C137.46 761.642 137.628 761.507 137.818 761.411C138.009 761.315 138.217 761.26 138.43 761.25C139.71 761.25 141.07 763.1 141.43 764.19C141.43 764.27 141.72 765.43 141.77 765.73C142.07 764.91 142.36 764.1 142.61 763.28C142.962 762.176 143.243 761.051 143.45 759.91C142.387 759.826 141.343 759.587 140.35 759.2C139.936 758.995 139.571 758.702 139.283 758.341C138.994 757.98 138.788 757.56 138.68 757.11C138.646 756.9 138.657 756.684 138.712 756.478C138.767 756.271 138.866 756.079 139.001 755.914C139.136 755.748 139.305 755.613 139.496 755.518C139.687 755.423 139.896 755.369 140.11 755.36C141.39 755.36 142.75 757.21 143.11 758.3C143.11 758.37 143.33 759.25 143.41 759.68H143.49C143.662 758.525 143.732 757.358 143.7 756.19C143.7 755.55 143.64 754.94 143.58 754.34C142.541 754.381 141.501 754.26 140.5 753.98C140.067 753.82 139.675 753.568 139.349 753.241C139.023 752.915 138.771 752.523 138.61 752.09C138.554 751.884 138.542 751.669 138.575 751.458C138.608 751.247 138.685 751.045 138.801 750.866C138.917 750.687 139.069 750.534 139.248 750.417C139.427 750.301 139.629 750.224 139.84 750.19C141.11 750.02 142.67 751.74 143.15 752.78C143.15 752.78 143.39 753.44 143.53 753.88C143.53 753.61 143.53 753.33 143.44 753.08C143.32 752.08 143.14 751.24 142.98 750.47C142.89 750.03 142.79 749.63 142.7 749.27C141.766 748.82 140.906 748.23 140.15 747.52C139.838 747.181 139.605 746.778 139.465 746.34C139.325 745.901 139.282 745.437 139.34 744.98C139.384 744.768 139.474 744.567 139.602 744.392C139.731 744.217 139.895 744.071 140.085 743.965C140.274 743.859 140.485 743.795 140.701 743.777C140.917 743.759 141.135 743.787 141.34 743.86C142.54 744.3 143.13 746.54 143.09 747.68C143.09 747.78 142.85 749.32 142.83 749.31C142.93 749.66 143.03 750.04 143.12 750.46C143.3 751.23 143.5 752.1 143.64 753.06C143.807 754.1 143.917 755.148 143.97 756.2C144.026 757.372 143.979 758.547 143.83 759.71C143.83 759.71 143.83 759.71 143.83 759.76C143.99 759.42 144.47 758.48 144.52 758.41C145.15 757.41 146.94 755.98 148.17 756.33C148.374 756.394 148.562 756.5 148.722 756.641C148.883 756.783 149.011 756.956 149.1 757.15C149.189 757.345 149.235 757.556 149.237 757.769C149.239 757.983 149.195 758.195 149.11 758.39C148.883 758.807 148.566 759.168 148.182 759.447C147.798 759.726 147.357 759.915 146.89 760Z" fill="#263238"/>
<path opacity="0.3" d="M146.83 753.41C145.84 753.814 144.796 754.067 143.73 754.16C143.73 754.16 144.02 752.64 144.05 752.54C144.41 751.46 145.74 749.54 147.05 749.54C147.264 749.549 147.472 749.603 147.664 749.697C147.855 749.792 148.024 749.925 148.161 750.089C148.297 750.253 148.398 750.444 148.456 750.649C148.515 750.854 148.53 751.069 148.5 751.28C148.397 751.736 148.193 752.164 147.904 752.532C147.615 752.9 147.249 753.2 146.83 753.41Z" fill="#263238"/>
<path opacity="0.3" d="M124.289 756.79C124.289 756.79 123.699 755.36 123.669 755.27C123.369 754.16 123.439 751.85 124.509 751.15C124.691 751.038 124.894 750.965 125.106 750.937C125.317 750.909 125.532 750.926 125.737 750.986C125.942 751.046 126.131 751.149 126.294 751.288C126.456 751.426 126.588 751.597 126.679 751.79C126.841 752.222 126.906 752.684 126.87 753.143C126.834 753.603 126.697 754.049 126.469 754.45C125.862 755.333 125.127 756.121 124.289 756.79Z" fill="#263238"/>
<path opacity="0.3" d="M146.89 760C145.838 760.132 144.772 760.101 143.73 759.91C143.54 761.092 143.28 762.26 142.95 763.41C142.75 764.08 142.54 764.75 142.31 765.41C142.46 765.12 142.59 764.86 142.62 764.83C143.25 763.83 145.04 762.4 146.27 762.75C146.473 762.813 146.662 762.918 146.822 763.058C146.982 763.198 147.111 763.371 147.199 763.565C147.288 763.758 147.335 763.968 147.337 764.181C147.339 764.394 147.295 764.605 147.21 764.8C146.993 765.208 146.688 765.563 146.318 765.839C145.949 766.116 145.522 766.307 145.07 766.4C144.048 766.53 143.013 766.503 142 766.32L141.73 767.09C141.3 768.31 140.87 769.53 140.48 770.74C140.34 771.17 140.22 771.59 140.1 772.02C140.18 771.845 140.27 771.675 140.37 771.51C141 770.56 142.78 769.08 144.02 769.43C144.224 769.494 144.412 769.6 144.572 769.741C144.733 769.883 144.861 770.056 144.95 770.25C145.039 770.445 145.085 770.656 145.087 770.869C145.089 771.083 145.045 771.295 144.96 771.49C144.739 771.894 144.434 772.246 144.064 772.52C143.695 772.795 143.27 772.986 142.82 773.08C141.823 773.214 140.811 773.194 139.82 773.02C139.71 773.46 139.6 773.89 139.51 774.32C139.42 774.75 139.38 774.9 139.35 775.2C139.32 775.5 139.26 775.79 139.22 776.08C139.16 776.64 139.09 777.21 139.05 777.76C139.01 778.14 138.98 778.51 138.96 778.87C139.09 778.45 139.37 777.62 139.4 777.55C139.88 776.55 141.4 774.79 142.69 774.94C142.905 774.965 143.112 775.036 143.298 775.147C143.484 775.258 143.644 775.408 143.768 775.585C143.892 775.763 143.977 775.965 144.017 776.178C144.057 776.391 144.051 776.61 144 776.82C143.845 777.256 143.596 777.651 143.271 777.98C142.946 778.308 142.553 778.561 142.12 778.72C141.107 779.013 140.054 779.145 139 779.11C139 779.72 138.92 780.31 138.89 780.87C138.82 782.4 138.81 783.72 138.81 784.77H137.96C137.96 783.71 138.03 782.37 138.13 780.83C138.13 780.21 138.23 779.55 138.3 778.88C137.672 778.716 137.054 778.516 136.45 778.28C135.773 779.055 134.988 779.728 134.12 780.28C134.42 780.81 134.72 781.28 135 781.8C135.7 782.98 136.35 783.99 136.89 784.8H135.89C135.43 784.05 134.89 783.17 134.34 782.18C134.03 781.64 133.71 781.06 133.4 780.46C132.411 780.826 131.373 781.042 130.32 781.1C129.857 781.088 129.403 780.975 128.989 780.77C128.574 780.564 128.21 780.271 127.92 779.91C127.803 779.732 127.726 779.531 127.691 779.321C127.657 779.111 127.667 778.896 127.721 778.689C127.774 778.483 127.871 778.291 128.003 778.124C128.135 777.957 128.301 777.819 128.49 777.72C129.64 777.16 131.66 778.3 132.49 779.12C132.49 779.17 132.99 779.76 133.26 780.12L132.88 779.39C132.62 778.89 132.37 778.39 132.11 777.84L131.75 777.03C131.62 776.76 131.52 776.46 131.41 776.17C131.16 775.51 130.93 774.82 130.72 774.17C129.824 774.651 128.859 774.988 127.86 775.17C127.401 775.229 126.936 775.186 126.495 775.047C126.055 774.907 125.65 774.673 125.31 774.36C125.166 774.202 125.058 774.016 124.991 773.813C124.925 773.611 124.901 773.396 124.923 773.184C124.945 772.972 125.011 772.767 125.117 772.582C125.223 772.397 125.367 772.236 125.54 772.11C126.6 771.38 128.76 772.2 129.67 772.9C129.73 772.9 130.32 773.51 130.67 773.84C130.54 773.41 130.42 772.99 130.31 772.56C129.99 771.32 129.71 770.05 129.42 768.79L129.15 767.63C128.215 768.156 127.202 768.531 126.15 768.74C125.693 768.798 125.229 768.755 124.79 768.615C124.352 768.475 123.949 768.242 123.61 767.93C123.466 767.772 123.358 767.586 123.291 767.383C123.225 767.181 123.201 766.966 123.223 766.754C123.245 766.542 123.311 766.337 123.417 766.152C123.523 765.967 123.667 765.806 123.84 765.68C124.84 764.95 127.06 765.76 127.97 766.46C128.04 766.52 128.89 767.34 129.1 767.56C128.9 766.72 128.69 765.87 128.45 765.05C128.133 763.937 127.745 762.845 127.29 761.78C126.351 762.301 125.34 762.678 124.29 762.9C123.832 762.957 123.368 762.913 122.929 762.772C122.49 762.63 122.088 762.394 121.75 762.08C121.606 761.923 121.497 761.737 121.429 761.535C121.362 761.333 121.338 761.119 121.358 760.906C121.379 760.694 121.444 760.489 121.55 760.303C121.655 760.118 121.798 759.957 121.97 759.83C123.03 759.1 125.2 759.92 126.1 760.62C126.16 760.62 126.82 761.29 127.1 761.62H127.16C126.666 760.573 126.084 759.569 125.42 758.62C125.05 758.09 124.68 757.62 124.3 757.14C123.451 757.739 122.517 758.207 121.53 758.53C121.081 758.637 120.614 758.645 120.162 758.553C119.709 758.462 119.282 758.273 118.91 758C118.75 757.859 118.622 757.685 118.534 757.49C118.447 757.295 118.401 757.084 118.401 756.87C118.401 756.657 118.447 756.446 118.534 756.251C118.622 756.056 118.75 755.882 118.91 755.74C119.91 754.9 122.12 755.47 123.1 756.07C123.15 756.07 123.66 756.49 124.02 756.78C123.85 756.57 123.67 756.35 123.5 756.16C122.87 755.42 122.24 754.79 121.68 754.24C121.36 753.92 121.06 753.65 120.78 753.39C119.753 753.532 118.711 753.515 117.69 753.34C117.244 753.23 116.827 753.023 116.47 752.735C116.112 752.446 115.822 752.083 115.62 751.67C115.544 751.474 115.509 751.264 115.519 751.054C115.529 750.843 115.583 750.637 115.677 750.449C115.771 750.261 115.904 750.094 116.066 749.96C116.228 749.826 116.417 749.727 116.62 749.67C117.87 749.37 119.62 750.91 120.19 751.89C120.24 751.98 120.89 753.39 120.87 753.4C121.15 753.64 121.44 753.9 121.75 754.2C122.32 754.74 122.96 755.36 123.62 756.08C124.327 756.859 124.995 757.674 125.62 758.52C126.313 759.465 126.922 760.469 127.44 761.52C127.39 761.14 127.27 760.1 127.27 760.02C127.27 758.87 127.95 756.66 129.17 756.27C129.374 756.209 129.589 756.192 129.801 756.22C130.013 756.249 130.216 756.321 130.397 756.434C130.579 756.546 130.734 756.696 130.854 756.873C130.973 757.05 131.053 757.25 131.09 757.46C131.131 757.92 131.071 758.383 130.914 758.817C130.757 759.25 130.506 759.644 130.18 759.97C129.374 760.661 128.466 761.224 127.49 761.64C127.994 762.726 128.421 763.845 128.77 764.99C128.98 765.66 129.17 766.34 129.35 766.99C129.35 766.66 129.29 766.38 129.29 766.33C129.29 765.19 129.97 762.97 131.19 762.58C131.395 762.523 131.61 762.508 131.821 762.539C132.032 762.569 132.234 762.643 132.415 762.756C132.596 762.869 132.751 763.018 132.871 763.195C132.99 763.371 133.072 763.571 133.11 763.78C133.147 764.24 133.085 764.701 132.928 765.134C132.771 765.568 132.523 765.962 132.2 766.29C131.419 766.965 130.539 767.515 129.59 767.92L129.8 768.71C130.11 769.96 130.42 771.22 130.8 772.44C130.92 772.88 131.06 773.3 131.19 773.72C131.19 773.43 131.19 773.19 131.19 773.15C131.19 772 131.86 769.79 133.09 769.4C133.294 769.343 133.509 769.328 133.719 769.358C133.929 769.387 134.131 769.46 134.312 769.572C134.493 769.684 134.648 769.832 134.768 770.008C134.888 770.183 134.971 770.382 135.01 770.59C135.048 771.051 134.986 771.515 134.829 771.949C134.672 772.384 134.423 772.78 134.1 773.11C133.341 773.765 132.488 774.301 131.57 774.7C131.72 775.13 131.87 775.56 132.03 775.96C132.19 776.36 132.24 776.51 132.38 776.78C132.52 777.05 132.63 777.32 132.75 777.58C133.01 778.09 133.28 778.58 133.54 779.09L134.08 780.09C133.96 779.66 133.73 778.82 133.72 778.75C133.604 777.747 133.749 776.731 134.14 775.8C134.125 775.691 134.125 775.58 134.14 775.47C134.139 775.257 134.183 775.045 134.269 774.849C134.355 774.654 134.481 774.478 134.64 774.335C134.799 774.191 134.986 774.083 135.189 774.017C135.392 773.95 135.607 773.928 135.82 773.95C137.09 774.12 138.14 776.18 138.35 777.31C138.35 777.38 138.41 778.11 138.43 778.58C138.43 778.3 138.43 778.04 138.52 777.75C138.58 777.19 138.65 776.63 138.73 776.03L138.88 775.16C138.88 774.87 139 774.56 139.06 774.26C139.22 773.56 139.42 772.87 139.63 772.17C138.601 772.088 137.589 771.852 136.63 771.47C136.217 771.263 135.855 770.968 135.567 770.608C135.278 770.247 135.071 769.828 134.96 769.38C134.929 769.17 134.942 768.955 134.999 768.75C135.055 768.546 135.154 768.355 135.289 768.19C135.423 768.025 135.591 767.89 135.78 767.794C135.97 767.698 136.177 767.642 136.39 767.63C137.68 767.63 139.03 769.48 139.39 770.57C139.39 770.64 139.59 771.44 139.68 771.89C139.81 771.47 139.94 771.05 140.08 770.63C140.5 769.42 140.96 768.21 141.42 766.99C141.56 766.62 141.7 766.25 141.83 765.88C140.774 765.796 139.736 765.557 138.75 765.17C138.312 764.965 137.928 764.663 137.624 764.287C137.321 763.911 137.108 763.471 137 763C136.967 762.79 136.979 762.575 137.035 762.369C137.092 762.163 137.19 761.972 137.325 761.807C137.46 761.642 137.628 761.507 137.818 761.411C138.009 761.315 138.217 761.26 138.43 761.25C139.71 761.25 141.07 763.1 141.43 764.19C141.43 764.27 141.72 765.43 141.77 765.73C142.07 764.91 142.36 764.1 142.61 763.28C142.962 762.176 143.243 761.051 143.45 759.91C142.387 759.826 141.343 759.587 140.35 759.2C139.936 758.995 139.571 758.702 139.283 758.341C138.994 757.98 138.788 757.56 138.68 757.11C138.646 756.9 138.657 756.684 138.712 756.478C138.767 756.271 138.866 756.079 139.001 755.914C139.136 755.748 139.305 755.613 139.496 755.518C139.687 755.423 139.896 755.369 140.11 755.36C141.39 755.36 142.75 757.21 143.11 758.3C143.11 758.37 143.33 759.25 143.41 759.68H143.49C143.662 758.525 143.732 757.358 143.7 756.19C143.7 755.55 143.64 754.94 143.58 754.34C142.541 754.381 141.501 754.26 140.5 753.98C140.067 753.82 139.675 753.568 139.349 753.241C139.023 752.915 138.771 752.523 138.61 752.09C138.554 751.884 138.542 751.669 138.575 751.458C138.608 751.247 138.685 751.045 138.801 750.866C138.917 750.687 139.069 750.534 139.248 750.417C139.427 750.301 139.629 750.224 139.84 750.19C141.11 750.02 142.67 751.74 143.15 752.78C143.15 752.78 143.39 753.44 143.53 753.88C143.53 753.61 143.53 753.33 143.44 753.08C143.32 752.08 143.14 751.24 142.98 750.47C142.89 750.03 142.79 749.63 142.7 749.27C141.766 748.82 140.906 748.23 140.15 747.52C139.838 747.181 139.605 746.778 139.465 746.34C139.325 745.901 139.282 745.437 139.34 744.98C139.384 744.768 139.474 744.567 139.602 744.392C139.731 744.217 139.895 744.071 140.085 743.965C140.274 743.859 140.485 743.795 140.701 743.777C140.917 743.759 141.135 743.787 141.34 743.86C142.54 744.3 143.13 746.54 143.09 747.68C143.09 747.78 142.85 749.32 142.83 749.31C142.93 749.66 143.03 750.04 143.12 750.46C143.3 751.23 143.5 752.1 143.64 753.06C143.807 754.1 143.917 755.148 143.97 756.2C144.026 757.372 143.979 758.547 143.83 759.71C143.83 759.71 143.83 759.71 143.83 759.76C143.99 759.42 144.47 758.48 144.52 758.41C145.15 757.41 146.94 755.98 148.17 756.33C148.374 756.394 148.562 756.5 148.722 756.641C148.883 756.783 149.011 756.956 149.1 757.15C149.189 757.345 149.235 757.556 149.237 757.769C149.239 757.983 149.195 758.195 149.11 758.39C148.883 758.807 148.566 759.168 148.182 759.447C147.798 759.726 147.357 759.915 146.89 760Z" fill="#263238"/>
<path d="M166 767.81C166 767.81 166.36 766.94 166.37 766.89C166.56 766.22 166.51 764.81 165.86 764.39C165.751 764.321 165.628 764.277 165.5 764.259C165.372 764.242 165.241 764.252 165.117 764.289C164.993 764.326 164.879 764.389 164.781 764.473C164.683 764.558 164.605 764.663 164.55 764.78C164.453 765.042 164.413 765.321 164.436 765.6C164.458 765.878 164.542 766.148 164.68 766.39C165.047 766.927 165.492 767.405 166 767.81Z" fill="#263238"/>
<path d="M152.3 765.76C152.905 766.003 153.541 766.157 154.19 766.22C154.19 766.22 154.01 765.29 153.99 765.22C153.77 764.56 152.99 763.41 152.19 763.42C152.061 763.424 151.934 763.456 151.818 763.512C151.702 763.569 151.599 763.649 151.516 763.749C151.433 763.848 151.371 763.963 151.336 764.087C151.301 764.212 151.292 764.342 151.31 764.47C151.371 764.744 151.491 765.002 151.662 765.225C151.833 765.448 152.051 765.63 152.3 765.76Z" fill="#263238"/>
<path d="M152.271 769.74C152.909 769.823 153.557 769.806 154.191 769.69C154.301 770.406 154.458 771.115 154.661 771.81C154.781 772.22 154.911 772.62 155.041 773.03L154.861 772.68C154.481 772.1 153.391 771.21 152.641 771.42C152.518 771.459 152.405 771.522 152.308 771.607C152.212 771.692 152.134 771.797 152.08 771.914C152.027 772.03 151.998 772.157 151.996 772.286C151.995 772.414 152.02 772.542 152.071 772.66C152.201 772.912 152.385 773.132 152.609 773.305C152.834 773.478 153.094 773.599 153.371 773.66C153.993 773.737 154.623 773.72 155.241 773.61C155.291 773.77 155.341 773.92 155.401 774.08C155.661 774.82 155.921 775.56 156.161 776.29C156.241 776.55 156.311 776.81 156.391 777.06C156.34 776.957 156.283 776.857 156.221 776.76C155.841 776.18 154.761 775.29 154.011 775.5C153.887 775.537 153.773 775.6 153.675 775.685C153.578 775.77 153.5 775.874 153.446 775.992C153.392 776.109 153.364 776.236 153.363 776.365C153.362 776.494 153.388 776.622 153.441 776.74C153.571 776.992 153.755 777.212 153.979 777.385C154.204 777.558 154.464 777.679 154.741 777.74C155.341 777.832 155.951 777.832 156.551 777.74C156.621 778.01 156.681 778.27 156.741 778.53C156.801 778.79 156.811 778.88 156.841 779.06C156.871 779.24 156.841 779.42 156.911 779.59C156.911 779.93 156.991 780.28 157.021 780.59C157.051 780.9 157.021 781.04 157.021 781.26C156.941 781 156.771 780.5 156.761 780.46C156.461 779.83 155.531 778.78 154.761 778.88C154.633 778.9 154.512 778.946 154.403 779.015C154.295 779.085 154.202 779.176 154.13 779.283C154.059 779.39 154.01 779.511 153.988 779.638C153.966 779.765 153.97 779.895 154.001 780.02C154.099 780.283 154.251 780.521 154.447 780.721C154.644 780.921 154.88 781.077 155.141 781.18C155.756 781.35 156.393 781.427 157.031 781.41C157.031 781.78 157.031 782.14 157.101 782.48C157.101 783.4 157.101 784.21 157.101 784.84H157.611C157.611 784.2 157.611 783.39 157.511 782.45C157.511 782.08 157.451 781.68 157.411 781.27C157.501 781.27 158.041 781.1 158.531 780.91C158.969 781.339 159.464 781.705 160.001 782C159.821 782.32 159.641 782.63 159.461 782.92C159.041 783.63 158.651 784.24 158.321 784.74H159.001C159.281 784.28 159.601 783.74 159.941 783.15C160.131 782.82 160.321 782.47 160.511 782.15C161.111 782.373 161.741 782.504 162.381 782.54C162.659 782.528 162.932 782.457 163.182 782.333C163.432 782.209 163.653 782.035 163.831 781.82C163.901 781.712 163.949 781.591 163.97 781.463C163.991 781.336 163.986 781.205 163.954 781.08C163.922 780.955 163.864 780.838 163.784 780.736C163.705 780.635 163.605 780.551 163.491 780.49C162.791 780.15 161.561 780.84 161.081 781.34C161.081 781.34 160.781 781.72 160.621 781.95L160.851 781.51L161.321 780.57C161.391 780.4 161.461 780.24 161.541 780.07C161.621 779.9 161.671 779.73 161.741 779.56C161.891 779.15 162.031 778.74 162.161 778.31C162.7 778.613 163.284 778.829 163.891 778.95C164.169 778.986 164.452 778.961 164.72 778.876C164.988 778.792 165.234 778.65 165.441 778.46C165.526 778.363 165.59 778.249 165.63 778.126C165.669 778.003 165.682 777.873 165.669 777.745C165.656 777.616 165.617 777.492 165.553 777.379C165.49 777.266 165.404 777.168 165.301 777.09C164.661 776.65 163.301 777.15 162.791 777.57L162.201 778.14C162.281 777.88 162.351 777.63 162.421 777.37C162.611 776.62 162.791 775.85 162.961 775.08C162.961 774.85 163.071 774.62 163.131 774.38C163.689 774.694 164.293 774.92 164.921 775.05C165.198 775.087 165.479 775.062 165.745 774.977C166.012 774.892 166.256 774.75 166.461 774.56C166.548 774.464 166.614 774.351 166.655 774.228C166.696 774.105 166.711 773.975 166.699 773.846C166.686 773.717 166.647 773.592 166.584 773.479C166.521 773.366 166.434 773.268 166.331 773.19C165.681 772.75 164.331 773.25 163.821 773.67C163.821 773.67 163.261 774.2 163.141 774.34C163.261 773.83 163.381 773.34 163.531 772.81C163.724 772.13 163.958 771.462 164.231 770.81C164.795 771.13 165.406 771.359 166.041 771.49C166.318 771.525 166.6 771.498 166.866 771.411C167.132 771.325 167.376 771.181 167.581 770.99C167.667 770.894 167.733 770.782 167.773 770.659C167.813 770.537 167.827 770.407 167.813 770.279C167.8 770.151 167.76 770.027 167.696 769.915C167.632 769.803 167.545 769.706 167.441 769.63C166.801 769.19 165.441 769.68 164.941 770.11L164.321 770.7C164.598 770.061 164.933 769.449 165.321 768.87C165.541 768.55 165.771 768.25 166.001 767.97C166.513 768.339 167.08 768.626 167.681 768.82C167.954 768.879 168.237 768.881 168.511 768.824C168.785 768.767 169.044 768.653 169.271 768.49C169.367 768.404 169.444 768.298 169.497 768.18C169.549 768.062 169.577 767.934 169.577 767.805C169.577 767.676 169.549 767.548 169.497 767.43C169.444 767.312 169.367 767.206 169.271 767.12C168.681 766.61 167.331 766.96 166.731 767.32L166.171 767.75L166.491 767.38C166.871 766.93 167.251 766.55 167.591 766.21C167.777 766.017 167.957 765.847 168.131 765.7C168.754 765.794 169.388 765.794 170.011 765.7C170.28 765.634 170.532 765.51 170.75 765.338C170.967 765.165 171.145 764.948 171.271 764.7C171.316 764.58 171.335 764.451 171.328 764.323C171.32 764.194 171.287 764.069 171.228 763.954C171.17 763.839 171.089 763.738 170.989 763.657C170.89 763.575 170.775 763.515 170.651 763.48C169.891 763.3 168.841 764.24 168.481 764.83C168.481 764.88 168.061 765.74 168.071 765.74C167.901 765.89 167.721 766.05 167.541 766.23C167.191 766.56 166.801 766.93 166.401 767.37C166.001 767.81 165.591 768.29 165.191 768.84C164.768 769.416 164.396 770.029 164.081 770.67C164.081 770.45 164.191 769.81 164.191 769.76C164.191 769.07 163.781 767.76 163.041 767.49C162.916 767.454 162.786 767.445 162.658 767.463C162.53 767.48 162.407 767.524 162.297 767.592C162.187 767.66 162.092 767.75 162.019 767.856C161.945 767.963 161.895 768.083 161.871 768.21C161.85 768.489 161.889 768.77 161.983 769.034C162.078 769.297 162.227 769.538 162.421 769.74C162.912 770.151 163.461 770.488 164.051 770.74C163.749 771.389 163.492 772.057 163.281 772.74C163.154 773.14 163.034 773.55 162.921 773.97C162.928 773.837 162.928 773.703 162.921 773.57C162.921 772.88 162.511 771.57 161.771 771.3C161.647 771.264 161.517 771.255 161.39 771.273C161.262 771.29 161.14 771.335 161.031 771.403C160.922 771.47 160.828 771.56 160.755 771.667C160.683 771.773 160.634 771.894 160.611 772.02C160.584 772.298 160.62 772.579 160.715 772.842C160.81 773.105 160.962 773.343 161.161 773.54C161.631 773.955 162.165 774.292 162.741 774.54L162.621 775.02C162.421 775.78 162.241 776.54 162.031 777.28C161.961 777.55 161.871 777.8 161.791 778.06C161.791 777.88 161.791 777.74 161.791 777.71C161.791 777.02 161.381 775.71 160.641 775.44C160.516 775.404 160.386 775.395 160.258 775.413C160.13 775.43 160.007 775.474 159.897 775.542C159.787 775.61 159.692 775.7 159.619 775.806C159.545 775.913 159.495 776.033 159.471 776.16C159.45 776.439 159.489 776.72 159.583 776.984C159.678 777.247 159.827 777.488 160.021 777.69C160.477 778.104 160.997 778.442 161.561 778.69C161.461 778.95 161.371 779.21 161.281 779.46C161.191 779.71 161.151 779.79 161.071 779.95C160.991 780.11 160.911 780.28 160.841 780.44C160.771 780.6 160.521 781.06 160.361 781.35C160.201 781.64 160.141 781.75 160.031 781.94C160.111 781.68 160.251 781.17 160.251 781.13C160.319 780.522 160.233 779.906 160.001 779.34C160.006 779.274 160.006 779.207 160.001 779.14C160.001 779.012 159.975 778.886 159.924 778.769C159.873 778.651 159.798 778.546 159.704 778.46C159.61 778.373 159.498 778.307 159.377 778.266C159.256 778.225 159.128 778.209 159.001 778.22C158.231 778.32 157.591 779.57 157.471 780.22C157.471 780.22 157.471 780.7 157.421 780.99C157.421 780.82 157.421 780.66 157.421 780.48C157.421 780.14 157.331 779.81 157.291 779.48L157.201 778.95C157.201 778.78 157.121 778.59 157.081 778.41C156.991 777.99 156.871 777.56 156.741 777.14C157.36 777.095 157.968 776.95 158.541 776.71C158.789 776.585 159.006 776.407 159.179 776.19C159.352 775.972 159.475 775.72 159.541 775.45C159.559 775.322 159.55 775.192 159.516 775.068C159.481 774.944 159.421 774.828 159.339 774.729C159.257 774.629 159.155 774.547 159.04 774.489C158.925 774.431 158.8 774.397 158.671 774.39C157.891 774.39 157.071 775.51 156.851 776.17C156.851 776.17 156.721 776.7 156.671 776.97C156.591 776.72 156.511 776.46 156.421 776.21C156.171 775.47 155.891 774.74 155.611 774C155.531 773.78 155.451 773.55 155.361 773.33C156.002 773.281 156.632 773.136 157.231 772.9C157.481 772.775 157.7 772.596 157.873 772.377C158.045 772.157 158.168 771.902 158.231 771.63C158.252 771.503 158.246 771.372 158.213 771.248C158.18 771.123 158.121 771.006 158.04 770.906C157.959 770.806 157.857 770.724 157.742 770.666C157.626 770.608 157.5 770.575 157.371 770.57C156.591 770.57 155.771 771.69 155.541 772.35C155.541 772.4 155.371 773.11 155.341 773.29C155.161 772.79 154.981 772.29 154.821 771.8C154.616 771.144 154.449 770.476 154.321 769.8C154.966 769.748 155.6 769.6 156.201 769.36C156.45 769.237 156.669 769.06 156.842 768.842C157.015 768.625 157.138 768.371 157.201 768.1C157.221 767.972 157.213 767.842 157.179 767.717C157.145 767.592 157.085 767.476 157.003 767.376C156.921 767.276 156.818 767.194 156.703 767.136C156.587 767.078 156.46 767.046 156.331 767.04C155.561 767.04 154.731 768.16 154.511 768.82C154.511 768.82 154.371 769.4 154.321 769.66C154.214 768.959 154.171 768.249 154.191 767.54C154.191 767.16 154.191 766.78 154.261 766.42C154.892 766.447 155.523 766.373 156.131 766.2C156.401 766.097 156.646 765.936 156.847 765.729C157.049 765.521 157.204 765.273 157.301 765C157.335 764.875 157.342 764.744 157.321 764.616C157.301 764.488 157.254 764.366 157.183 764.257C157.112 764.149 157.02 764.056 156.911 763.986C156.802 763.916 156.679 763.87 156.551 763.85C155.781 763.75 154.841 764.79 154.551 765.41C154.551 765.41 154.411 765.81 154.321 766.08L154.381 765.59C154.451 765.01 154.561 764.48 154.651 764.01L154.821 763.29C155.387 763.016 155.91 762.659 156.371 762.23C156.561 762.026 156.704 761.781 156.789 761.515C156.873 761.249 156.898 760.967 156.861 760.69C156.835 760.563 156.782 760.443 156.707 760.337C156.631 760.232 156.533 760.144 156.42 760.08C156.307 760.015 156.182 759.976 156.053 759.964C155.924 759.952 155.793 759.968 155.671 760.01C154.941 760.28 154.581 761.63 154.611 762.33C154.611 762.39 154.761 763.33 154.771 763.33C154.711 763.543 154.651 763.773 154.591 764.02C154.491 764.49 154.371 765.02 154.281 765.6C154.18 766.229 154.113 766.864 154.081 767.5C154.047 768.211 154.077 768.924 154.171 769.63C154.081 769.42 153.781 768.85 153.761 768.81C153.371 768.23 152.291 767.34 151.541 767.55C151.417 767.588 151.302 767.653 151.205 767.738C151.108 767.824 151.029 767.929 150.975 768.047C150.922 768.165 150.893 768.293 150.893 768.423C150.892 768.553 150.918 768.681 150.971 768.8C151.105 769.043 151.291 769.252 151.516 769.415C151.741 769.577 151.998 769.688 152.271 769.74Z" fill="#263238"/>
<path opacity="0.3" d="M152.3 765.76C152.905 766.003 153.541 766.157 154.19 766.22C154.19 766.22 154.01 765.29 153.99 765.22C153.77 764.56 152.99 763.41 152.19 763.42C152.061 763.424 151.934 763.456 151.818 763.512C151.702 763.569 151.599 763.649 151.516 763.749C151.433 763.848 151.371 763.963 151.336 764.087C151.301 764.212 151.292 764.342 151.31 764.47C151.371 764.744 151.491 765.002 151.662 765.225C151.833 765.448 152.051 765.63 152.3 765.76Z" fill="#263238"/>
<path opacity="0.3" d="M166 767.81C166 767.81 166.36 766.94 166.37 766.89C166.56 766.22 166.51 764.81 165.86 764.39C165.751 764.321 165.628 764.277 165.5 764.259C165.372 764.242 165.241 764.252 165.117 764.289C164.993 764.326 164.879 764.389 164.781 764.473C164.683 764.558 164.605 764.663 164.55 764.78C164.453 765.042 164.413 765.321 164.436 765.6C164.458 765.878 164.542 766.148 164.68 766.39C165.047 766.927 165.492 767.405 166 767.81Z" fill="#263238"/>
<path opacity="0.3" d="M152.271 769.74C152.909 769.823 153.557 769.806 154.191 769.69C154.301 770.406 154.458 771.115 154.661 771.81C154.781 772.22 154.911 772.62 155.041 773.03L154.861 772.68C154.481 772.1 153.391 771.21 152.641 771.42C152.518 771.459 152.405 771.522 152.308 771.607C152.212 771.692 152.134 771.797 152.08 771.914C152.027 772.03 151.998 772.157 151.996 772.286C151.995 772.414 152.02 772.542 152.071 772.66C152.201 772.912 152.385 773.132 152.609 773.305C152.834 773.478 153.094 773.599 153.371 773.66C153.993 773.737 154.623 773.72 155.241 773.61C155.291 773.77 155.341 773.92 155.401 774.08C155.661 774.82 155.921 775.56 156.161 776.29C156.241 776.55 156.311 776.81 156.391 777.06C156.34 776.957 156.283 776.857 156.221 776.76C155.841 776.18 154.761 775.29 154.011 775.5C153.887 775.537 153.773 775.6 153.675 775.685C153.578 775.77 153.5 775.874 153.446 775.992C153.392 776.109 153.364 776.236 153.363 776.365C153.362 776.494 153.388 776.622 153.441 776.74C153.571 776.992 153.755 777.212 153.979 777.385C154.204 777.558 154.464 777.679 154.741 777.74C155.341 777.832 155.951 777.832 156.551 777.74C156.621 778.01 156.681 778.27 156.741 778.53C156.801 778.79 156.811 778.88 156.841 779.06C156.871 779.24 156.841 779.42 156.911 779.59C156.911 779.93 156.991 780.28 157.021 780.59C157.051 780.9 157.021 781.04 157.021 781.26C156.941 781 156.771 780.5 156.761 780.46C156.461 779.83 155.531 778.78 154.761 778.88C154.633 778.9 154.512 778.946 154.403 779.015C154.295 779.085 154.202 779.176 154.13 779.283C154.059 779.39 154.01 779.511 153.988 779.638C153.966 779.765 153.97 779.895 154.001 780.02C154.099 780.283 154.251 780.521 154.447 780.721C154.644 780.921 154.88 781.077 155.141 781.18C155.756 781.35 156.393 781.427 157.031 781.41C157.031 781.78 157.031 782.14 157.101 782.48C157.101 783.4 157.101 784.21 157.101 784.84H157.611C157.611 784.2 157.611 783.39 157.511 782.45C157.511 782.08 157.451 781.68 157.411 781.27C157.501 781.27 158.041 781.1 158.531 780.91C158.969 781.339 159.464 781.705 160.001 782C159.821 782.32 159.641 782.63 159.461 782.92C159.041 783.63 158.651 784.24 158.321 784.74H159.001C159.281 784.28 159.601 783.74 159.941 783.15C160.131 782.82 160.321 782.47 160.511 782.15C161.111 782.373 161.741 782.504 162.381 782.54C162.659 782.528 162.932 782.457 163.182 782.333C163.432 782.209 163.653 782.035 163.831 781.82C163.901 781.712 163.949 781.591 163.97 781.463C163.991 781.336 163.986 781.205 163.954 781.08C163.922 780.955 163.864 780.838 163.784 780.736C163.705 780.635 163.605 780.551 163.491 780.49C162.791 780.15 161.561 780.84 161.081 781.34C161.081 781.34 160.781 781.72 160.621 781.95L160.851 781.51L161.321 780.57C161.391 780.4 161.461 780.24 161.541 780.07C161.621 779.9 161.671 779.73 161.741 779.56C161.891 779.15 162.031 778.74 162.161 778.31C162.7 778.613 163.284 778.829 163.891 778.95C164.169 778.986 164.452 778.961 164.72 778.876C164.988 778.792 165.234 778.65 165.441 778.46C165.526 778.363 165.59 778.249 165.63 778.126C165.669 778.003 165.682 777.873 165.669 777.745C165.656 777.616 165.617 777.492 165.553 777.379C165.49 777.266 165.404 777.168 165.301 777.09C164.661 776.65 163.301 777.15 162.791 777.57L162.201 778.14C162.281 777.88 162.351 777.63 162.421 777.37C162.611 776.62 162.791 775.85 162.961 775.08C162.961 774.85 163.071 774.62 163.131 774.38C163.689 774.694 164.293 774.92 164.921 775.05C165.198 775.087 165.479 775.062 165.745 774.977C166.012 774.892 166.256 774.75 166.461 774.56C166.548 774.464 166.614 774.351 166.655 774.228C166.696 774.105 166.711 773.975 166.699 773.846C166.686 773.717 166.647 773.592 166.584 773.479C166.521 773.366 166.434 773.268 166.331 773.19C165.681 772.75 164.331 773.25 163.821 773.67C163.821 773.67 163.261 774.2 163.141 774.34C163.261 773.83 163.381 773.34 163.531 772.81C163.724 772.13 163.958 771.462 164.231 770.81C164.795 771.13 165.406 771.359 166.041 771.49C166.318 771.525 166.6 771.498 166.866 771.411C167.132 771.325 167.376 771.181 167.581 770.99C167.667 770.894 167.733 770.782 167.773 770.659C167.813 770.537 167.827 770.407 167.813 770.279C167.8 770.151 167.76 770.027 167.696 769.915C167.632 769.803 167.545 769.706 167.441 769.63C166.801 769.19 165.441 769.68 164.941 770.11L164.321 770.7C164.598 770.061 164.933 769.449 165.321 768.87C165.541 768.55 165.771 768.25 166.001 767.97C166.513 768.339 167.08 768.626 167.681 768.82C167.954 768.879 168.237 768.881 168.511 768.824C168.785 768.767 169.044 768.653 169.271 768.49C169.367 768.404 169.444 768.298 169.497 768.18C169.549 768.062 169.577 767.934 169.577 767.805C169.577 767.676 169.549 767.548 169.497 767.43C169.444 767.312 169.367 767.206 169.271 767.12C168.681 766.61 167.331 766.96 166.731 767.32L166.171 767.75L166.491 767.38C166.871 766.93 167.251 766.55 167.591 766.21C167.777 766.017 167.957 765.847 168.131 765.7C168.754 765.794 169.388 765.794 170.011 765.7C170.28 765.634 170.532 765.51 170.75 765.338C170.967 765.165 171.145 764.948 171.271 764.7C171.316 764.58 171.335 764.451 171.328 764.323C171.32 764.194 171.287 764.069 171.228 763.954C171.17 763.839 171.089 763.738 170.989 763.657C170.89 763.575 170.775 763.515 170.651 763.48C169.891 763.3 168.841 764.24 168.481 764.83C168.481 764.88 168.061 765.74 168.071 765.74C167.901 765.89 167.721 766.05 167.541 766.23C167.191 766.56 166.801 766.93 166.401 767.37C166.001 767.81 165.591 768.29 165.191 768.84C164.768 769.416 164.396 770.029 164.081 770.67C164.081 770.45 164.191 769.81 164.191 769.76C164.191 769.07 163.781 767.76 163.041 767.49C162.916 767.454 162.786 767.445 162.658 767.463C162.53 767.48 162.407 767.524 162.297 767.592C162.187 767.66 162.092 767.75 162.019 767.856C161.945 767.963 161.895 768.083 161.871 768.21C161.85 768.489 161.889 768.77 161.983 769.034C162.078 769.297 162.227 769.538 162.421 769.74C162.912 770.151 163.461 770.488 164.051 770.74C163.749 771.389 163.492 772.057 163.281 772.74C163.154 773.14 163.034 773.55 162.921 773.97C162.928 773.837 162.928 773.703 162.921 773.57C162.921 772.88 162.511 771.57 161.771 771.3C161.647 771.264 161.517 771.255 161.39 771.273C161.262 771.29 161.14 771.335 161.031 771.403C160.922 771.47 160.828 771.56 160.755 771.667C160.683 771.773 160.634 771.894 160.611 772.02C160.584 772.298 160.62 772.579 160.715 772.842C160.81 773.105 160.962 773.343 161.161 773.54C161.631 773.955 162.165 774.292 162.741 774.54L162.621 775.02C162.421 775.78 162.241 776.54 162.031 777.28C161.961 777.55 161.871 777.8 161.791 778.06C161.791 777.88 161.791 777.74 161.791 777.71C161.791 777.02 161.381 775.71 160.641 775.44C160.516 775.404 160.386 775.395 160.258 775.413C160.13 775.43 160.007 775.474 159.897 775.542C159.787 775.61 159.692 775.7 159.619 775.806C159.545 775.913 159.495 776.033 159.471 776.16C159.45 776.439 159.489 776.72 159.583 776.984C159.678 777.247 159.827 777.488 160.021 777.69C160.477 778.104 160.997 778.442 161.561 778.69C161.461 778.95 161.371 779.21 161.281 779.46C161.191 779.71 161.151 779.79 161.071 779.95C160.991 780.11 160.911 780.28 160.841 780.44C160.771 780.6 160.521 781.06 160.361 781.35C160.201 781.64 160.141 781.75 160.031 781.94C160.111 781.68 160.251 781.17 160.251 781.13C160.319 780.522 160.233 779.906 160.001 779.34C160.006 779.274 160.006 779.207 160.001 779.14C160.001 779.012 159.975 778.886 159.924 778.769C159.873 778.651 159.798 778.546 159.704 778.46C159.61 778.373 159.498 778.307 159.377 778.266C159.256 778.225 159.128 778.209 159.001 778.22C158.231 778.32 157.591 779.57 157.471 780.22C157.471 780.22 157.471 780.7 157.421 780.99C157.421 780.82 157.421 780.66 157.421 780.48C157.421 780.14 157.331 779.81 157.291 779.48L157.201 778.95C157.201 778.78 157.121 778.59 157.081 778.41C156.991 777.99 156.871 777.56 156.741 777.14C157.36 777.095 157.968 776.95 158.541 776.71C158.789 776.585 159.006 776.407 159.179 776.19C159.352 775.972 159.475 775.72 159.541 775.45C159.559 775.322 159.55 775.192 159.516 775.068C159.481 774.944 159.421 774.828 159.339 774.729C159.257 774.629 159.155 774.547 159.04 774.489C158.925 774.431 158.8 774.397 158.671 774.39C157.891 774.39 157.071 775.51 156.851 776.17C156.851 776.17 156.721 776.7 156.671 776.97C156.591 776.72 156.511 776.46 156.421 776.21C156.171 775.47 155.891 774.74 155.611 774C155.531 773.78 155.451 773.55 155.361 773.33C156.002 773.281 156.632 773.136 157.231 772.9C157.481 772.775 157.7 772.596 157.873 772.377C158.045 772.157 158.168 771.902 158.231 771.63C158.252 771.503 158.246 771.372 158.213 771.248C158.18 771.123 158.121 771.006 158.04 770.906C157.959 770.806 157.857 770.724 157.742 770.666C157.626 770.608 157.5 770.575 157.371 770.57C156.591 770.57 155.771 771.69 155.541 772.35C155.541 772.4 155.371 773.11 155.341 773.29C155.161 772.79 154.981 772.29 154.821 771.8C154.616 771.144 154.449 770.476 154.321 769.8C154.966 769.748 155.6 769.6 156.201 769.36C156.45 769.237 156.669 769.06 156.842 768.842C157.015 768.625 157.138 768.371 157.201 768.1C157.221 767.972 157.213 767.842 157.179 767.717C157.145 767.592 157.085 767.476 157.003 767.376C156.921 767.276 156.818 767.194 156.703 767.136C156.587 767.078 156.46 767.046 156.331 767.04C155.561 767.04 154.731 768.16 154.511 768.82C154.511 768.82 154.371 769.4 154.321 769.66C154.214 768.959 154.171 768.249 154.191 767.54C154.191 767.16 154.191 766.78 154.261 766.42C154.892 766.447 155.523 766.373 156.131 766.2C156.401 766.097 156.646 765.936 156.847 765.729C157.049 765.521 157.204 765.273 157.301 765C157.335 764.875 157.342 764.744 157.321 764.616C157.301 764.488 157.254 764.366 157.183 764.257C157.112 764.149 157.02 764.056 156.911 763.986C156.802 763.916 156.679 763.87 156.551 763.85C155.781 763.75 154.841 764.79 154.551 765.41C154.551 765.41 154.411 765.81 154.321 766.08L154.381 765.59C154.451 765.01 154.561 764.48 154.651 764.01L154.821 763.29C155.387 763.016 155.91 762.659 156.371 762.23C156.561 762.026 156.704 761.781 156.789 761.515C156.873 761.249 156.898 760.967 156.861 760.69C156.835 760.563 156.782 760.443 156.707 760.337C156.631 760.232 156.533 760.144 156.42 760.08C156.307 760.015 156.182 759.976 156.053 759.964C155.924 759.952 155.793 759.968 155.671 760.01C154.941 760.28 154.581 761.63 154.611 762.33C154.611 762.39 154.761 763.33 154.771 763.33C154.711 763.543 154.651 763.773 154.591 764.02C154.491 764.49 154.371 765.02 154.281 765.6C154.18 766.229 154.113 766.864 154.081 767.5C154.047 768.211 154.077 768.924 154.171 769.63C154.081 769.42 153.781 768.85 153.761 768.81C153.371 768.23 152.291 767.34 151.541 767.55C151.417 767.588 151.302 767.653 151.205 767.738C151.108 767.824 151.029 767.929 150.975 768.047C150.922 768.165 150.893 768.293 150.893 768.423C150.892 768.553 150.918 768.681 150.971 768.8C151.105 769.043 151.291 769.252 151.516 769.415C151.741 769.577 151.998 769.688 152.271 769.74Z" fill="#263238"/>
<path d="M288.166 624.376L268.851 634.034L281.727 636.18L283.873 649.056L303.189 634.034L288.166 624.376Z" fill="#FEF8FF"/>
<path d="M291.385 685.54L279.581 669.445L259.193 681.248L291.385 685.54Z" fill="#FEF8FF"/>
<path d="M250.609 726.317L233.44 709.148C223.997 728.034 205.182 729.894 196.955 728.463C197.313 729.178 201.892 731.682 217.344 735.974C232.796 740.267 245.959 731.324 250.609 726.317Z" fill="#FEF8FF"/>
<path d="M83.2109 711.294L63.8958 717.732L83.2109 729.536L93.9415 722.025L83.2109 711.294Z" fill="#FEF8FF"/>
<path d="M1.6582 674.81L14.5349 663.006C29.987 682.751 42.4345 683.394 46.7268 681.248C47.0845 682.679 43.7222 686.184 27.4117 688.76C11.1011 691.335 3.44664 680.533 1.6582 674.81Z" fill="#FEF8FF"/>
<path d="M288.166 624.376L268.851 634.034L281.727 636.18L283.873 649.056L303.189 634.034L288.166 624.376Z" stroke="#79747E" stroke-width="2" stroke-linecap="round" stroke-linejoin="round"/>
<path d="M291.385 685.54L279.581 669.445L259.193 681.248L291.385 685.54Z" stroke="#79747E" stroke-width="2" stroke-linecap="round" stroke-linejoin="round"/>
<path d="M250.609 726.317L233.44 709.148C223.997 728.034 205.182 729.894 196.955 728.463C197.313 729.178 201.892 731.682 217.344 735.974C232.796 740.267 245.959 731.324 250.609 726.317Z" stroke="#79747E" stroke-width="2" stroke-linecap="round" stroke-linejoin="round"/>
<path d="M83.2109 711.294L63.8958 717.732L83.2109 729.536L93.9415 722.025L83.2109 711.294Z" stroke="#79747E" stroke-width="2" stroke-linecap="round" stroke-linejoin="round"/>
<path d="M1.6582 674.81L14.5349 663.006C29.987 682.751 42.4345 683.394 46.7268 681.248C47.0845 682.679 43.7222 686.184 27.4117 688.76C11.1011 691.335 3.44664 680.533 1.6582 674.81Z" stroke="#79747E" stroke-width="2" stroke-linecap="round" stroke-linejoin="round"/>
<g filter="url(#filter0_i_4933_11240)">
<path d="M69.2598 660.86L102.525 665.152L143.301 619.01L163.689 632.96L193.735 599.695L221.635 629.741L232.365 619.01L245.242 626.522C245.047 635.676 243.028 651.404 234.716 667.298C228.181 679.796 217.754 692.396 201.264 701.982C194.798 705.992 187.412 709.19 178.862 711.048C157.13 716.267 134.604 712.271 115.401 703.327C93.9815 693.351 76.6962 677.22 69.2598 660.86Z" fill="#FEF8FF"/>
</g>
<path d="M69.2598 660.86L102.525 665.152L143.301 619.01L163.689 632.96L193.735 599.695L221.635 629.741L232.365 619.01L245.242 626.522C244.884 643.333 238.374 682.321 198.027 703.782C147.593 730.609 85.3557 696.271 69.2598 660.86ZM115.401 703.327L135.79 671.59L149.739 682.321L166.908 667.298L181.931 679.102L193.735 637.252L210.904 672.664L223.781 652.275L234.716 667.298C216.269 693.052 188.37 730.609 115.401 703.327Z" stroke="#49454F" stroke-width="2" stroke-linecap="round" stroke-linejoin="round"/>
<g filter="url(#filter1_i_4933_11240)">
<path d="M177.541 230.464L158.423 211.346C157.673 210.595 156.655 210.174 155.594 210.174H149.203H142.696C141.705 210.174 140.748 210.542 140.013 211.208L119.937 229.371C119.099 230.13 118.621 231.207 118.621 232.337V269.485C118.621 271.694 120.412 273.485 122.621 273.485H174.713C176.922 273.485 178.713 271.694 178.713 269.485V233.292C178.713 232.231 178.291 231.214 177.541 230.464Z" fill="#FEF8FF"/>
</g>
<path d="M149.203 210.174H142.696C141.705 210.174 140.748 210.542 140.013 211.208L119.937 229.371C119.099 230.129 118.621 231.207 118.621 232.337V269.485C118.621 271.694 120.412 273.485 122.621 273.485H174.713C176.922 273.485 178.713 271.694 178.713 269.485V233.292C178.713 232.231 178.291 231.214 177.541 230.464L158.423 211.346C157.673 210.595 156.655 210.174 155.594 210.174H149.203ZM149.203 210.174V2" stroke="#79747E" stroke-width="3" stroke-linecap="round" stroke-linejoin="round"/>
<g filter="url(#filter2_i_4933_11240)">
<path d="M106.814 288.507C107.672 279.923 117.187 274.915 121.837 273.484H177.64C182.647 275.988 192.662 284.859 192.662 300.311C192.662 315.763 206.612 330.357 214.124 335.722C222.708 347.526 228.717 361.905 231.293 380.791C233.868 399.676 224.854 420.136 219.489 428.005L210.904 412.982L198.028 431.224L183.005 396.886L172.274 433.371L159.397 423.713L144.375 436.59L130.425 425.859L103.598 455.905C95.0125 451.613 75.9095 434.658 68.1834 401.179C58.5259 359.329 93.9369 324.991 101.448 317.48C108.96 309.968 105.741 299.238 106.814 288.507Z" fill="#FEF8FF"/>
</g>
<path d="M106.814 288.507C107.672 279.923 117.187 274.915 121.837 273.484H177.64C182.647 275.988 192.662 284.859 192.662 300.311C192.662 315.763 206.612 330.357 214.124 335.722C222.708 347.526 228.717 361.905 231.293 380.791C233.868 399.676 224.854 420.136 219.489 428.005L210.904 412.982L198.028 431.224L183.005 396.886L172.274 433.371L159.397 423.713L144.375 436.59L130.425 425.859L103.598 455.905C95.0125 451.613 75.9095 434.658 68.1834 401.179C58.5259 359.329 93.9369 324.991 101.448 317.48C108.96 309.968 105.741 299.238 106.814 288.507Z" stroke="#79747E" stroke-width="2" stroke-linecap="round" stroke-linejoin="round"/>
<path d="M118.621 254.169H159.397M118.621 233.781H159.397" stroke="black" stroke-width="2" stroke-linecap="round" stroke-linejoin="round"/>
<path d="M264.14 597.624L289.238 536.385L256.844 594.088C255.768 596.004 256.439 598.429 258.347 599.519L258.454 599.58C260.552 600.779 263.224 599.859 264.14 597.624Z" fill="#221A1A"/>
<path d="M294.274 604.169L322.16 567.174L289.963 600.477C288.894 601.583 288.917 603.344 290.015 604.422L290.076 604.482C291.283 605.667 293.256 605.519 294.274 604.169Z" fill="#221A1A"/>
<path d="M141.843 581.514L124.332 526.729L135.011 583.244C135.371 585.15 137.201 586.408 139.109 586.062C141.207 585.682 142.492 583.544 141.843 581.514Z" fill="#221A1A"/>
<path d="M76.625 625.289L33.1984 573.942L69.2838 629.828C70.3711 631.512 72.7812 632.072 74.786 631.107L75.0456 630.982C77.412 629.843 78.1688 627.115 76.625 625.289Z" fill="#221A1A"/>
<path d="M49.015 644.587L0.440063 614.719L44.3232 650.203C45.6902 651.309 47.8516 651.115 49.2576 649.762C50.9173 648.165 50.801 645.685 49.015 644.587Z" fill="#221A1A"/>
<circle cx="253.827" cy="608.28" r="4.29225" fill="#221A1A"/>
<circle cx="285.394" cy="609.547" r="3.00457" transform="rotate(14.7221 285.394 609.547)" fill="#221A1A"/>
<circle cx="140.942" cy="594.435" r="3.73387" transform="rotate(-40.0106 140.942 594.435)" fill="#221A1A"/>
<ellipse cx="4.30787" cy="4.5879" rx="4.30787" ry="4.5879" transform="matrix(0.572715 -0.819754 0.883447 0.46853 74.207 640.466)" fill="#221A1A"/>
<defs>
<filter id="filter0_i_4933_11240" x="68.2598" y="594.695" width="181.982" height="119.678" filterUnits="userSpaceOnUse" color-interpolation-filters="sRGB">
<feFlood flood-opacity="0" result="BackgroundImageFix"/>
<feBlend mode="normal" in="SourceGraphic" in2="BackgroundImageFix" result="shape"/>
<feColorMatrix in="SourceAlpha" type="matrix" values="0 0 0 0 0 0 0 0 0 0 0 0 0 0 0 0 0 0 127 0" result="hardAlpha"/>
<feOffset dx="5" dy="-5"/>
<feGaussianBlur stdDeviation="2"/>
<feComposite in2="hardAlpha" operator="arithmetic" k2="-1" k3="1"/>
<feColorMatrix type="matrix" values="0 0 0 0 0 0 0 0 0 0 0 0 0 0 0 0 0 0 0.25 0"/>
<feBlend mode="normal" in2="shape" result="effect1_innerShadow_4933_11240"/>
</filter>
<filter id="filter1_i_4933_11240" x="117.121" y="0.5" width="67.0918" height="278.484" filterUnits="userSpaceOnUse" color-interpolation-filters="sRGB">
<feFlood flood-opacity="0" result="BackgroundImageFix"/>
<feBlend mode="normal" in="SourceGraphic" in2="BackgroundImageFix" result="shape"/>
<feColorMatrix in="SourceAlpha" type="matrix" values="0 0 0 0 0 0 0 0 0 0 0 0 0 0 0 0 0 0 127 0" result="hardAlpha"/>
<feOffset dx="6" dy="4"/>
<feGaussianBlur stdDeviation="2"/>
<feComposite in2="hardAlpha" operator="arithmetic" k2="-1" k3="1"/>
<feColorMatrix type="matrix" values="0 0 0 0 0 0 0 0 0 0 0 0 0 0 0 0 0 0 0.25 0"/>
<feBlend mode="normal" in2="shape" result="effect1_innerShadow_4933_11240"/>
</filter>
<filter id="filter2_i_4933_11240" x="65.5273" y="268.484" width="171.219" height="188.421" filterUnits="userSpaceOnUse" color-interpolation-filters="sRGB">
<feFlood flood-opacity="0" result="BackgroundImageFix"/>
<feBlend mode="normal" in="SourceGraphic" in2="BackgroundImageFix" result="shape"/>
<feColorMatrix in="SourceAlpha" type="matrix" values="0 0 0 0 0 0 0 0 0 0 0 0 0 0 0 0 0 0 127 0" result="hardAlpha"/>
<feOffset dx="11" dy="-7"/>
<feGaussianBlur stdDeviation="2"/>
<feComposite in2="hardAlpha" operator="arithmetic" k2="-1" k3="1"/>
<feColorMatrix type="matrix" values="0 0 0 0 0 0 0 0 0 0 0 0 0 0 0 0 0 0 0.25 0"/>
<feBlend mode="normal" in2="shape" result="effect1_innerShadow_4933_11240"/>
</filter>
</defs>
</svg>
