<svg width="84" height="69" viewBox="0 0 84 69" fill="none" xmlns="http://www.w3.org/2000/svg">
<g id="logo">
<g id="Clip path group">
<mask id="mask0_512_1547" style="mask-type:luminance" maskUnits="userSpaceOnUse" x="0" y="0" width="84" height="69">
<g id="clip0">
<path id="Vector" d="M83.3832 0H0V68.1368H83.3832V0Z" fill="white"/>
</g>
</mask>
<g mask="url(#mask0_512_1547)">
<g id="Group">
<path id="Vector_2" d="M41.7098 68.1366H41.6802C41.4482 68.1366 41.209 68.1286 40.977 68.1142C40.7298 68.099 40.4834 68.0766 40.2442 68.0462C40.005 68.0158 39.7578 67.979 39.5186 67.9414C39.5044 67.9356 39.4891 67.9332 39.4738 67.9342C39.249 67.8894 39.0242 67.8374 38.8002 67.7846C38.4428 67.7043 38.0906 67.602 37.7458 67.4782H37.7378C37.3866 67.3582 37.0498 67.2238 36.713 67.0742C36.601 67.0214 36.489 66.9766 36.3842 66.9142C36.2794 66.8518 36.1594 66.8094 36.0546 66.7542L36.0474 66.747C35.9354 66.687 35.8306 66.627 35.7274 66.567C35.6242 66.507 35.5106 66.4478 35.4074 66.3806C35.2202 66.2678 35.033 66.1558 34.8538 66.0358C34.4159 65.7345 33.9962 65.4075 33.597 65.0566C33.477 64.9518 33.3722 64.8542 33.2602 64.7422C33.1858 64.675 33.1186 64.607 33.0434 64.5326C32.909 64.3982 32.7738 64.2558 32.6434 64.1134C32.513 63.971 32.3898 63.8222 32.2626 63.6726C32.1354 63.523 32.0154 63.3734 31.9034 63.2158C31.7914 63.0582 31.6714 62.8958 31.5594 62.7294L31.2898 62.3294L31.2002 62.1942C30.0604 60.2854 29.4581 58.1038 29.457 55.8806C29.4532 53.4453 30.183 51.0655 31.5514 49.051L41.4482 34.375L41.6954 34.0158L42.0466 33.4918L48.061 24.5678L60.4114 6.263C60.415 6.25482 60.4198 6.24727 60.4258 6.24061L61.0019 5.3878C61.8835 4.01656 63.0302 2.83528 64.3746 1.91327C65.7191 0.991253 67.2342 0.347093 68.831 0.0186117C70.4278 -0.309869 72.0741 -0.316038 73.6733 0.000423223C75.2725 0.316884 76.7924 0.949613 78.1438 1.86148C79.4951 2.77336 80.6504 3.94599 81.5424 5.31056C82.4344 6.67512 83.0448 8.20413 83.3376 9.80781C83.6312 11.4115 83.6008 13.0575 83.2488 14.6493C82.8968 16.2412 82.2304 17.7466 81.2888 19.0774L62.169 47.4206C62.1618 47.4278 62.1618 47.4358 62.1538 47.443L56.8882 55.2526L51.9434 62.583C51.921 62.6134 51.9058 62.6358 51.8906 62.6582C51.8778 62.6859 51.8602 62.7111 51.8386 62.7326V62.7406C51.689 62.9574 51.5322 63.167 51.3746 63.3686C51.3568 63.4059 51.3315 63.4392 51.3002 63.4662C51.1954 63.6086 51.0754 63.7502 50.9562 63.8846C50.769 64.1094 50.5666 64.3262 50.3578 64.5358L50.3426 64.551C50.1826 64.711 50.0282 64.8574 49.8626 65.007C49.7954 65.0598 49.7282 65.119 49.661 65.179C49.541 65.291 49.4138 65.3886 49.2866 65.4862C49.2531 65.5205 49.2154 65.5506 49.1746 65.5758C49.055 65.6745 48.9303 65.7669 48.801 65.8526C48.7211 65.919 48.6361 65.9789 48.5466 66.0318C48.5466 66.039 48.5386 66.039 48.5386 66.039C48.1311 66.3113 47.7092 66.5612 47.2746 66.7878C47.0802 66.8846 46.8786 66.9822 46.6834 67.0718C46.6762 67.0718 46.6762 67.079 46.669 67.079C46.4442 67.1766 46.2274 67.2662 46.0034 67.3486C45.7794 67.431 45.5394 67.5134 45.3002 67.5886C45.061 67.6638 44.829 67.723 44.597 67.783C44.365 67.843 44.1402 67.8878 43.9162 67.9326C43.889 67.9339 43.8621 67.9391 43.8362 67.9478C43.6042 67.9854 43.3802 68.0222 43.1482 68.0446C42.9162 68.067 42.6618 68.0974 42.4146 68.1126C42.181 68.1286 41.9498 68.1366 41.7098 68.1366Z" fill="url(#paint0_linear_512_1547)"/>
<g id="Group_2" style="mix-blend-mode:multiply" opacity="0.1">
<path id="Vector_3" d="M41.7108 68.1367H41.6812C41.4492 68.1367 41.2099 68.1286 40.9779 68.1142C40.7307 68.099 40.4844 68.0767 40.2452 68.0463C40.006 68.0159 39.7587 67.979 39.5195 67.9414C39.5054 67.9356 39.4901 67.9332 39.4748 67.9343C39.25 67.8895 39.0252 67.8375 38.8012 67.7847C38.4438 67.7044 38.0916 67.602 37.7467 67.4783H37.7388C37.3876 67.3583 37.0508 67.2239 36.714 67.0743C36.602 67.0215 36.49 66.9766 36.3852 66.9142C36.2804 66.8518 36.1604 66.8095 36.0556 66.7543L36.0484 66.7471C35.9364 66.6871 35.8316 66.6271 35.7284 66.5671C35.6252 66.5071 35.5116 66.4479 35.4084 66.3807C35.2212 66.2679 35.034 66.1559 34.8548 66.0359C34.4169 65.7345 33.9972 65.4076 33.598 65.0567C33.478 64.9519 33.3732 64.8542 33.2612 64.7422C33.1868 64.675 33.1196 64.6071 33.0444 64.5327C32.91 64.3983 32.7748 64.2559 32.6444 64.1135C32.514 63.9711 32.3907 63.8222 32.2635 63.6726C32.1363 63.523 32.0164 63.3735 31.9044 63.2159C31.7924 63.0583 31.6724 62.8959 31.5604 62.7295L31.2908 62.3295L31.2012 62.1943C30.0614 60.2854 29.4591 58.1039 29.458 55.8807C29.4542 53.4454 30.184 51.0655 31.5524 49.0511L41.4492 34.3751L41.6964 34.0159L42.0476 33.4919L48.062 24.5679L48.2788 25.331L56.8892 55.2511L51.9444 62.5815C51.922 62.6119 51.9068 62.6343 51.8916 62.6567C51.8787 62.6843 51.8611 62.7095 51.8396 62.731V62.7391C51.69 62.9559 51.5332 63.1655 51.3756 63.3671C51.3578 63.4044 51.3325 63.4376 51.3012 63.4647C51.1964 63.6071 51.0763 63.7486 50.9571 63.883C50.7699 64.1078 50.5676 64.3247 50.3588 64.5343L50.3436 64.5495C50.1836 64.7095 50.0291 64.8559 49.8635 65.0055C49.7963 65.0583 49.7292 65.1175 49.662 65.1775C49.542 65.2895 49.4148 65.3871 49.2876 65.4847C49.2541 65.519 49.2164 65.5491 49.1756 65.5743C49.056 65.673 48.9313 65.7654 48.802 65.8511C48.7221 65.9175 48.6371 65.9774 48.5476 66.0303C48.5476 66.0375 48.5396 66.0375 48.5396 66.0375C48.1321 66.3097 47.7102 66.5597 47.2756 66.7862C47.0812 66.883 46.8795 66.9807 46.6843 67.0703C46.6771 67.0703 46.6772 67.0775 46.67 67.0775C46.4452 67.1751 46.2284 67.2647 46.0044 67.3471C45.7804 67.4295 45.5404 67.5118 45.3012 67.587C45.062 67.6622 44.83 67.7215 44.598 67.7815C44.366 67.8415 44.1412 67.8862 43.9172 67.931C43.8899 67.9324 43.8631 67.9375 43.8372 67.9463C43.6052 67.9839 43.3812 68.0207 43.1492 68.0431C42.9172 68.0655 42.6627 68.0958 42.4155 68.111C42.1819 68.1286 41.9508 68.1367 41.7108 68.1367Z" fill="black"/>
</g>
<path id="Vector_4" d="M41.711 68.1365H41.6815C41.4495 68.1365 41.2102 68.1285 40.9782 68.1141C40.731 68.0989 40.4847 68.0765 40.2455 68.0461C40.0063 68.0157 39.759 67.9789 39.5198 67.9413C39.5057 67.9355 39.4904 67.9331 39.4751 67.9341C39.2503 67.8893 39.0255 67.8373 38.8015 67.7845C38.0858 67.6108 37.3873 67.3731 36.7143 67.0741C36.4903 66.9765 36.2727 66.8645 36.0559 66.7597L36.0486 66.7525C35.8318 66.6405 35.615 66.5125 35.4086 66.3861C35.2214 66.2733 35.0342 66.1613 34.855 66.0413C34.4172 65.74 33.9975 65.413 33.5982 65.0621C33.4038 64.8901 33.2238 64.7173 33.0446 64.5381C32.4955 63.9849 31.9997 63.3811 31.5638 62.7349L31.2942 62.3349L31.2046 62.1997L28.5038 58.2053L28.4966 58.1981C28.4966 58.1901 28.4895 58.1901 28.4895 58.1829C28.4895 58.1757 28.4815 58.1757 28.4815 58.1677H28.4743C28.463 58.1535 28.4529 58.1386 28.4439 58.1229L19.0038 44.1269L17.8895 42.4741L2.09826 19.0829C0.723125 17.0471 -0.00668049 14.6443 0.0040223 12.1877C0.0147251 9.73099 0.76545 7.33459 2.15827 5.31091C2.21027 5.23652 2.25507 5.17652 2.29267 5.13172C3.37453 3.60562 4.79389 2.3497 6.44035 1.46167C8.08678 0.573645 9.91598 0.0774641 11.7855 0.0117188H12.9598C14.8388 0.125727 16.6663 0.670821 18.3007 1.60476C19.9351 2.5387 21.3325 3.8364 22.3847 5.39732L31.6158 19.0869L31.9599 19.5957L36.6878 26.5973L37.4207 27.6893C37.428 27.706 37.4382 27.7211 37.451 27.7341L41.6999 34.0253L41.7366 34.0773L51.843 49.0533C53.1919 51.0556 53.9192 53.4118 53.9334 55.826C53.9477 58.2403 53.2482 60.6049 51.9231 62.6229C51.8927 62.6677 51.863 62.7125 51.843 62.7501C51.6934 62.9669 51.5367 63.1765 51.3791 63.3781C51.2447 63.5581 51.1103 63.7301 50.9607 63.8941C50.7735 64.1189 50.5711 64.3357 50.3623 64.5453L50.347 64.5605C50.1302 64.7773 49.9055 64.9869 49.6663 65.1885C49.5463 65.3005 49.4191 65.3981 49.2919 65.4957C49.2584 65.5301 49.2207 65.5602 49.1798 65.5853C49.0602 65.6841 48.9356 65.7764 48.8063 65.8621C48.7221 65.9288 48.6345 65.991 48.5439 66.0485C47.9509 66.4468 47.3254 66.7947 46.6742 67.0885C46.4494 67.1861 46.2326 67.2757 46.0086 67.3581C45.7847 67.4405 45.5446 67.5229 45.3054 67.5981C45.0662 67.6733 44.8343 67.7325 44.6023 67.7925C44.3703 67.8525 44.1454 67.8973 43.9214 67.9421C43.8942 67.9435 43.8673 67.9486 43.8415 67.9573C43.6095 67.9949 43.3854 68.0317 43.1534 68.0541C42.9214 68.0765 42.667 68.1069 42.4198 68.1221C42.1822 68.1285 41.951 68.1365 41.711 68.1365Z" fill="url(#paint1_linear_512_1547)"/>
<g id="Group_3" style="mix-blend-mode:multiply" opacity="0.1">
<path id="Vector_5" d="M19.0009 44.124L17.8865 42.4712L2.09533 19.08C0.720196 17.0442 -0.00961016 14.6414 0.00109262 12.1847C0.0117954 9.72808 0.762496 7.33166 2.15531 5.30798C2.20731 5.23358 2.25214 5.17358 2.28974 5.12878C3.3716 3.60269 4.79097 2.34677 6.43742 1.45874C8.08386 0.570714 9.91306 0.0745343 11.7826 0.00878906H12.9569C14.8359 0.122798 16.6634 0.667892 18.2978 1.60183C19.9322 2.53577 21.3295 3.83347 22.3817 5.39438L31.6129 19.084L31.9569 19.5928L36.6849 26.5944L19.3753 43.748L19.0009 44.124Z" fill="black"/>
</g>
<path id="Vector_6" d="M17.8855 42.4678L2.09435 19.0765C0.719219 17.0408 -0.0105867 14.638 0.000116054 12.1813C0.0108189 9.72468 0.761519 7.32824 2.15434 5.30456C2.20634 5.23016 2.25116 5.17016 2.28876 5.12536C3.37062 3.59927 4.78999 2.34335 6.43645 1.45532C8.08288 0.567297 9.91208 0.0711164 11.7816 0.00537109H43.9919L31.9559 19.5878L20.7279 37.847C20.7207 37.855 20.7208 37.8621 20.7128 37.8693L18.1999 41.9542L17.8855 42.4678Z" fill="url(#paint2_linear_512_1547)"/>
<g id="Group_4" style="mix-blend-mode:screen" opacity="0.6">
<path id="Vector_7" d="M50.3423 64.5535L50.9255 63.783C51.1252 63.5375 51.3101 63.2803 51.4791 63.0126L51.9655 62.1967C52.1257 61.9257 52.2658 61.6434 52.3847 61.3519C52.5256 61.0695 52.6455 60.7769 52.7431 60.4767L53.0279 59.5863C53.1175 59.2871 53.1623 58.9807 53.2375 58.6735C53.3043 58.3729 53.3492 58.0678 53.3719 57.7606C53.4123 57.4532 53.4348 57.1436 53.4391 56.8335C53.4391 56.5191 53.4615 56.2126 53.4391 55.9054L53.3719 54.9783L53.2295 54.0655C53.1142 53.459 52.9643 52.8596 52.7807 52.2702C52.6839 51.9782 52.5863 51.687 52.4663 51.4023C52.3623 51.1334 52.2351 50.8566 52.1151 50.6175C50.8351 48.7542 49.5551 46.8767 48.3079 44.9991C47.0511 43.1071 45.7943 41.2143 44.5671 39.2991C43.3399 37.3839 42.1135 35.4695 40.9239 33.5391C40.3183 32.5743 39.7351 31.5943 39.1511 30.6215C38.5751 29.6615 37.9991 28.7015 37.4463 27.7271L51.8383 49.0462C53.4255 51.4037 54.1441 54.2394 53.8712 57.0682C53.5984 59.897 52.3508 62.543 50.3423 64.5535Z" fill="white"/>
</g>
<g id="Group_5" style="mix-blend-mode:screen" opacity="0.6">
<path id="Vector_8" d="M62.1689 47.4232C62.9249 46.1216 63.7177 44.8495 64.4953 43.5703C65.2729 42.2911 66.0737 40.9975 66.8745 39.7255C68.4825 37.1751 70.1092 34.6368 71.7545 32.1104C73.3857 29.5744 75.0689 27.0759 76.7289 24.5631C78.4089 22.0831 80.0802 19.5888 81.7786 17.1232L82.0706 16.2104C82.1674 15.8736 82.2946 15.5447 82.3698 15.2079L82.5866 14.1831C82.669 13.8468 82.7226 13.5039 82.7466 13.1584L82.8362 12.1183C82.8514 11.7743 82.8218 11.4304 82.8138 11.0784L82.8066 10.5544L82.7314 10.0455C82.693 9.69862 82.6362 9.35406 82.5594 9.01358L82.2906 8.00318L81.9058 7.02792C81.7786 6.69832 81.5994 6.39194 81.4498 6.07754C81.2866 5.76672 81.1066 5.46468 80.9114 5.17272C80.7242 4.86632 80.4922 4.59674 80.2906 4.31274C80.0658 4.03594 79.8337 3.76633 79.5873 3.50473C79.1002 2.98338 78.5645 2.50976 77.9873 2.09033C80.677 3.90628 82.5354 6.71604 83.1538 9.90182C83.7722 13.0877 83.1002 16.3887 81.2858 19.0792L62.1689 47.4232Z" fill="white"/>
</g>
<g id="Group_6" style="mix-blend-mode:screen" opacity="0.6">
<path id="Vector_9" d="M20.7275 37.8478C21.6027 36.2246 22.5227 34.6238 23.4283 33.0158C23.8915 32.2158 24.3331 31.3998 24.8115 30.607L26.2107 28.207L29.0155 23.4126L31.8731 18.6398L34.7611 13.8974L37.6707 9.1694L40.6179 4.45661C41.4635 3.11741 42.2939 1.78621 43.1539 0.456616L36.2947 0.307007C33.7811 0.202207 31.2675 0.142213 28.7467 0.0078125H43.9915L31.9555 19.5878L20.7275 37.8478Z" fill="white"/>
</g>
<g id="Group_7" style="mix-blend-mode:multiply" opacity="0.3">
<path id="Vector_10" d="M28.4865 58.18C28.4785 58.18 28.4785 58.1729 28.4713 58.1649C28.4601 58.1507 28.4499 58.1358 28.4409 58.1201L19.0009 44.1241L17.8865 42.4713L2.09533 19.08C0.720196 17.0443 -0.00961016 14.6415 0.00109262 12.1848C0.0117954 9.72818 0.762496 7.33174 2.15531 5.30806C2.20731 5.23366 2.25214 5.17366 2.28974 5.12886C2.32734 5.08406 2.35694 5.05365 2.37934 5.03125C1.88524 5.74837 1.47836 6.52183 1.16733 7.33526C0.798997 8.2753 0.550389 9.25794 0.427337 10.2601C0.267305 11.5451 0.327909 12.8482 0.606537 14.1129C0.916625 15.6075 1.4727 17.0403 2.25212 18.3528C2.34172 18.5128 2.45453 18.7337 2.53613 18.8617L2.90334 19.3849C3.14974 19.7369 3.39694 20.0881 3.65134 20.4473C4.15214 21.1673 4.66093 21.9057 5.18493 22.6537C7.26493 25.6385 9.4481 28.8553 11.6329 32.0721C12.7177 33.6873 13.7929 35.3033 14.8569 36.8889C15.9113 38.4889 16.9513 40.0537 17.9537 41.5793C18.0337 41.7065 18.1185 41.8337 18.2009 41.9537C18.5969 42.5593 18.9937 43.1536 19.3753 43.7488C20.8337 45.9776 22.1801 48.0688 23.3697 49.9424C24.9401 52.396 26.2049 54.4761 27.1097 55.9121C27.8801 57.1921 28.3665 57.984 28.4785 58.1632C28.4785 58.1729 28.4865 58.1728 28.4865 58.18Z" fill="black"/>
</g>
<g id="Group_8" style="mix-blend-mode:multiply" opacity="0.3">
<path id="Vector_11" d="M41.7471 34.0481C41.7767 33.9881 41.8815 33.7936 42.0463 33.4944L48.0607 24.5704L60.4111 6.26562C60.2983 6.47523 59.3335 8.2704 57.808 10.7912C57 12.1456 56.0351 13.7017 54.9799 15.3617C54.4415 16.1849 53.9103 17.0416 53.3343 17.9056C52.7583 18.7696 52.1824 19.6336 51.6064 20.5088C50.4864 22.1616 49.3623 23.8001 48.2775 25.3337C48.2255 25.4137 48.1655 25.4936 48.1127 25.5736C46.9759 27.1816 45.8992 28.6633 44.956 29.9273C43.2 32.2905 41.9071 33.8609 41.7471 34.0481Z" fill="black"/>
</g>
</g>
</g>
</g>
</g>
<defs>
<linearGradient id="paint0_linear_512_1547" x1="-638.597" y1="-183.188" x2="-580.452" y2="-153.36" gradientUnits="userSpaceOnUse">
<stop stop-color="#EB643F"/>
<stop offset="1" stop-color="#964C9A"/>
</linearGradient>
<linearGradient id="paint1_linear_512_1547" x1="-584.864" y1="-156.403" x2="-615.073" y2="-133.476" gradientUnits="userSpaceOnUse">
<stop stop-color="#FCC400"/>
<stop offset="0.162" stop-color="#FBC000"/>
<stop offset="0.307" stop-color="#FBB500"/>
<stop offset="0.446" stop-color="#FBA300"/>
<stop offset="0.581" stop-color="#FA8900"/>
<stop offset="0.712" stop-color="#FA6800"/>
<stop offset="0.842" stop-color="#F93F00"/>
<stop offset="0.967" stop-color="#F81000"/>
<stop offset="1" stop-color="#F80300"/>
</linearGradient>
<linearGradient id="paint2_linear_512_1547" x1="-641.622" y1="-124.027" x2="-599.126" y2="-124.027" gradientUnits="userSpaceOnUse">
<stop stop-color="#FC7300"/>
<stop offset="1" stop-color="#F8007A"/>
</linearGradient>
</defs>
</svg>
