<svg height="512" viewBox="0 0 64 64" width="512" xmlns="http://www.w3.org/2000/svg"><g id="Layer_32" data-name="Layer 32"><path d="m40 44v14h-1a4 4 0 0 0 -4 4h14a4 4 0 0 0 -4-4h-1v-14z" fill="#e6e6e6"/><path d="m45 58h-1v-14h-2v14h-1a4 4 0 0 0 -4 4h12a4 4 0 0 0 -4-4z" fill="#f2f2f2"/><path d="m49 24h-14l-1.836 11.014a12.114 12.114 0 0 0 -.164 1.986 9 9 0 0 0 9 9 9 9 0 0 0 9-9 12.123 12.123 0 0 0 -.164-1.986z" fill="#e6e6e6"/><path d="m36 37a8.995 8.995 0 0 0 7.5 8.865 8.995 8.995 0 0 0 7.5-8.865 12.123 12.123 0 0 0 -.164-1.986l-1.836-11.014h-11l-1.836 11.014a12.114 12.114 0 0 0 -.164 1.986z" fill="#f2f2f2"/><path d="m33.042 36q-.042.5-.042 1a9 9 0 0 0 18 0c0-.333-.014-.667-.042-1z" fill="#e73844"/><path d="m36.042 36q-.042.5-.042 1a8.995 8.995 0 0 0 7.5 8.865 8.995 8.995 0 0 0 7.5-8.865c0-.333-.014-.667-.042-1z" fill="#ff4d55"/><path d="m19 8v10a3.236 3.236 0 0 1 -1.789 2.894 7.619 7.619 0 0 0 -4.211 6.814v31.292a3 3 0 0 0 3 3h12a3 3 0 0 0 3-3v-31.292a7.619 7.619 0 0 0 -4.211-6.814 3.236 3.236 0 0 1 -1.789-2.894v-10z" fill="#383838"/><path d="m31 59v-31.292a7.619 7.619 0 0 0 -4.211-6.814 3.236 3.236 0 0 1 -1.789-2.894v-10h-3v10a3.236 3.236 0 0 1 -1.789 2.894 7.619 7.619 0 0 0 -4.211 6.814v31.292a3 3 0 0 0 3 3h9a3 3 0 0 0 3-3z" fill="#4c4c4c"/><path d="m13 28h18v28h-18z" fill="#e6e6e6"/><path d="m16 28h15v28h-15z" fill="#f2f2f2"/><path d="m24 2h-4a2 2 0 0 0 -2 2v4h8v-4a2 2 0 0 0 -2-2z" fill="#785349"/><path d="m13 35h10v14h-10" fill="#e73844"/><path d="m16 35h7v14h-7z" fill="#ff4d55"/><path d="m24 2h-1a2 2 0 0 0 -2 2v4h5v-4a2 2 0 0 0 -2-2z" fill="#916658"/></g></svg>