<svg width="276" height="179" viewBox="0 0 276 179" fill="none" xmlns="http://www.w3.org/2000/svg">
<path d="M0.771948 89.2338C0.771948 61.7852 6.03823 40.1616 16.5708 24.3627C27.263 8.56384 44.4183 0.664405 68.0368 0.664405C91.6553 0.664405 108.731 8.56384 119.263 24.3627C129.956 40.1616 135.302 61.7852 135.302 89.2338C135.302 117.001 129.956 138.785 119.263 154.584C108.731 170.382 91.6553 178.282 68.0368 178.282C44.4183 178.282 27.263 170.382 16.5708 154.584C6.03823 138.785 0.771948 117.001 0.771948 89.2338ZM95.0863 89.2338C95.0863 73.1157 93.3309 60.7479 89.8201 52.1304C86.3092 43.3532 79.0481 38.9647 68.0368 38.9647C57.0255 38.9647 49.7644 43.3532 46.2535 52.1304C42.7427 60.7479 40.9872 73.1157 40.9872 89.2338C40.9872 100.086 41.6256 109.102 42.9022 116.283C44.1789 123.305 46.7323 129.05 50.5623 133.518C54.5519 137.827 60.3767 139.982 68.0368 139.982C75.6968 139.982 81.4419 137.827 85.2719 133.518C89.2615 129.05 91.8946 123.305 93.1713 116.283C94.448 109.102 95.0863 100.086 95.0863 89.2338ZM155.492 146.205C160.917 141.897 163.391 139.902 162.912 140.221C178.551 127.295 190.839 116.682 199.776 108.384C208.873 100.086 216.533 91.3882 222.756 82.2918C228.98 73.1955 232.092 64.3386 232.092 55.721C232.092 49.1781 230.576 44.0714 227.544 40.4009C224.512 36.7305 219.964 34.8953 213.899 34.8953C207.835 34.8953 203.048 37.2092 199.537 41.8372C196.186 46.3056 194.51 52.6889 194.51 60.9873H155.013C155.332 47.4226 158.204 36.0922 163.63 26.9958C169.216 17.8995 176.477 11.197 185.414 6.8882C194.51 2.57942 204.564 0.425031 215.575 0.425031C234.566 0.425031 248.848 5.29235 258.423 15.027C268.158 24.7617 273.025 37.4486 273.025 53.0879C273.025 70.1634 267.201 86.0421 255.551 100.724C243.901 115.246 229.06 129.449 211.027 143.333H275.659V176.606H155.492V146.205Z" fill="url(#paint0_linear_671_847)"/>
<defs>
<linearGradient id="paint0_linear_671_847" x1="135.897" y1="12" x2="136.488" y2="168" gradientUnits="userSpaceOnUse">
<stop stop-color="#ABD1EC"/>
<stop offset="1" stop-color="#ABD1EC" stop-opacity="0"/>
</linearGradient>
</defs>
</svg>
