<svg width="28" height="28" viewBox="0 0 28 28" fill="none" xmlns="http://www.w3.org/2000/svg">
<path d="M24.8187 23.7171L24.3852 20.9737L24.649 16.8518V14.964C24.6495 14.9562 24.6512 14.9492 24.6512 14.9414V8.82391C24.6512 7.89067 23.9677 7.11619 23.0757 6.96891C23.2868 6.62675 23.4117 6.21235 23.4117 5.76519C23.4117 5.64311 23.4005 5.52411 23.3828 5.40763C23.478 5.32167 23.5391 5.19819 23.5391 5.05959V4.58919C23.5391 3.55123 22.6951 2.70703 21.6569 2.70703H21.1862C20.1483 2.70703 19.3041 3.55151 19.3041 4.58919C19.0439 4.58919 18.8337 4.79975 18.8337 5.05959C18.8337 5.31943 19.0439 5.53027 19.3041 5.53027H19.6597C19.6521 5.60755 19.6473 5.68567 19.6473 5.76519C19.6473 6.27395 19.8078 6.74099 20.0746 7.10639C19.868 7.19907 19.677 7.32759 19.5118 7.49251C19.1565 7.84783 18.9608 8.32019 18.9608 8.82307V9.24279L18.7119 10.0677L15.0674 10.309C14.7031 10.2942 14.352 10.4261 14.0795 10.6719C13.9253 10.8108 13.8077 10.9785 13.7284 11.1636L12.8935 10.3289C12.7098 10.145 12.4119 10.145 12.2282 10.3289L10.5641 11.9927C10.4759 12.0809 10.4264 12.2007 10.4264 12.3256C10.4264 12.4505 10.4759 12.57 10.5641 12.6582L13.2261 15.3199C13.3179 15.4118 13.4383 15.4577 13.5587 15.4577C13.6791 15.4577 13.7995 15.4118 13.8914 15.3199L15.5554 13.6562C15.6436 13.568 15.6932 13.4481 15.6932 13.3235C15.6932 13.26 15.68 13.1981 15.6559 13.1407L18.9611 13.1869V14.9052L17.9819 20.2642C17.9533 20.3395 17.9489 20.3865 17.9444 20.4431C17.9396 20.4666 17.9346 20.4949 17.9301 20.5276C17.9021 20.8194 17.8878 21.3184 17.8878 22.057C17.8878 22.9701 17.9113 23.9347 17.9158 24.1181V24.1276L17.9301 24.2264C18.09 24.857 18.6645 25.2946 19.3231 25.2946C19.4407 25.2946 19.5538 25.2804 19.6669 25.2521C20.3115 25.097 20.7631 24.5322 20.7631 23.8832C20.7631 23.7888 20.7536 23.6947 20.7346 23.6102L20.7911 21.0269L21.497 18.2834V19.9825C21.497 20.2406 21.7031 20.4518 21.9655 20.4529C21.9663 20.4529 21.9669 20.4531 21.9674 20.4531C22.2261 20.4531 22.4381 20.2412 22.4381 19.9825L22.4333 17.2956C22.4333 17.1685 22.386 17.0509 22.297 16.9616C22.2074 16.872 22.0898 16.8252 21.9674 16.8252H21.2615C21.0451 16.8252 20.8567 16.9711 20.8051 17.178L19.8685 20.8482L19.7929 23.6482L19.8072 23.7658C19.8165 23.8034 19.8215 23.8456 19.8215 23.8834C19.8215 24.0999 19.6664 24.2833 19.4446 24.3398C19.2049 24.3964 18.9317 24.26 18.8519 24.0386C18.8474 23.7798 18.8283 22.8998 18.8283 22.0576C18.8283 21.639 18.8328 21.2579 18.8426 20.9801C18.8519 20.839 18.8563 20.7119 18.8661 20.627C18.8706 20.5895 18.8751 20.5565 18.8751 20.5472C18.8801 20.5425 18.8751 20.5377 18.8751 20.5332L19.8212 15.4137H23.7079V16.8112L23.4441 20.9664L23.8773 23.7944L23.8821 23.8084V23.8414C23.8821 24.0766 23.7269 24.2886 23.5245 24.3356C23.1997 24.4154 22.9175 24.2085 22.8937 23.9263L22.8559 23.6533C22.8189 23.4046 22.5848 23.217 22.3267 23.2532C22.3258 23.2532 22.325 23.2532 22.3244 23.2532C22.0702 23.2862 21.8915 23.5217 21.9246 23.7756V23.7804L21.9576 24.0346C22.0374 24.7545 22.6489 25.2958 23.3881 25.2958C23.5057 25.2958 23.6278 25.2815 23.7502 25.2532C24.3807 25.0888 24.8231 24.5098 24.8231 23.8417C24.8231 23.7924 24.8187 23.7502 24.8187 23.7171ZM19.9016 13.1488C20.5761 13.0021 21.1302 12.493 21.3175 11.8045L21.9319 9.54211C21.9999 9.29123 21.8521 9.03279 21.6012 8.96475C21.3707 8.90119 21.1291 9.02719 21.0423 9.24811C21.0361 9.26379 21.0289 9.27863 21.0241 9.29543L20.4098 11.5578C20.3356 11.8306 20.1452 12.045 19.9019 12.1598C19.7792 12.2178 19.6437 12.2522 19.5012 12.2522C19.4973 12.2522 19.4925 12.252 19.488 12.252L19.4317 12.2511L18.9611 12.2447L15.001 12.1898C14.7417 12.1764 14.5421 11.9546 14.5553 11.6953C14.5617 11.5699 14.6163 11.4545 14.7098 11.3702C14.8036 11.2862 14.9243 11.244 15.0495 11.2498C15.0682 11.2512 15.0861 11.2507 15.1052 11.2496L18.9616 10.9942L19.0999 10.985C19.2327 10.9763 19.3517 10.911 19.4323 10.8119C19.4704 10.7652 19.5009 10.7114 19.5191 10.6512L19.9027 9.38027L20.0592 8.86227L20.0701 8.82615C20.1147 8.67887 20.0819 8.52767 19.9976 8.41231C20.043 8.31907 20.1029 8.23255 20.1785 8.15695C20.356 7.97971 20.5921 7.88171 20.8429 7.88171L22.7705 7.88199C23.2893 7.88227 23.711 8.30451 23.711 8.82307V14.4701H19.9016V13.1488ZM11.5618 12.3248L12.5603 11.3263L14.5569 13.3227L13.5585 14.3212L11.5618 12.3248ZM22.5977 4.58919H22.5165H21.5292H20.5419H20.2446C20.2446 4.40075 20.3009 4.22519 20.3966 4.07791C20.5646 3.81947 20.8553 3.64811 21.1857 3.64811H21.5289H21.6563C21.7905 3.64811 21.9179 3.67667 22.0335 3.72735C22.3653 3.87323 22.5977 4.20419 22.5977 4.58919ZM20.6069 5.53027H22.4513C22.4636 5.60615 22.4703 5.68483 22.4703 5.76519C22.4703 6.41367 22.0478 6.94119 21.5289 6.94119C21.0104 6.94119 20.5879 6.41367 20.5879 5.76519C20.5881 5.68455 20.5946 5.60615 20.6069 5.53027ZM22.1363 22.3196C21.9011 22.3196 21.7034 22.1458 21.6703 21.915C21.6373 21.6563 21.8159 21.4211 22.0702 21.3833H22.0727C22.3258 21.3519 22.5691 21.5348 22.6022 21.7879C22.6204 21.9103 22.5879 22.0326 22.5126 22.1362C22.4375 22.2345 22.3253 22.2998 22.1993 22.3146C22.1984 22.3146 22.1981 22.3149 22.1973 22.3152C22.1785 22.3196 22.155 22.3196 22.1363 22.3196ZM14.9414 17.2942H11.1771H9.76557V15.412C9.76557 15.1522 9.55501 14.9414 9.29489 14.9414H7.88313V13.0592C7.88313 12.7994 7.67285 12.5888 7.41273 12.5888H3.64813C3.38829 12.5888 3.17773 12.7994 3.17773 13.0592V15.412V17.7646V20.1174V22.4703V24.8231C3.17773 25.083 3.38829 25.2938 3.64813 25.2938H7.41273H11.1771H14.9417C15.2018 25.2938 15.4121 25.083 15.4121 24.8231V22.4703V20.1174V17.7646C15.4121 17.5048 15.2015 17.2942 14.9414 17.2942ZM14.471 24.3524H11.6475V22.9407H13.0589H14.4707L14.471 24.3524ZM4.11853 13.5296H6.94177V14.9414H5.53029H4.11853V13.5296ZM14.471 21.9996H13.5299V20.5881H14.471V21.9996ZM4.11853 15.8824H5.05961V17.2942H4.11853V15.8824ZM12.5885 21.9996H11.1768H9.76529V20.5881H11.1768H12.5885V21.9996ZM7.41245 21.9996H6.00069V20.5881H7.41245H8.82393V21.9996H7.41245ZM4.11853 18.2353H5.53029H6.94177V19.647H5.53029H4.11853V18.2353ZM4.11853 20.5881H5.05961V21.9996H4.11853V20.5881ZM14.471 19.647H13.0592H11.6477V18.2353H14.471V19.647ZM10.7064 19.647H9.29461H7.88285V18.2353H9.29461H10.7064V19.647ZM8.82421 17.2942H7.41273H6.00097V15.8824H7.41273H8.82421V17.2942ZM4.11853 22.9407H5.53029H6.94177V24.3522H4.11853V22.9407ZM7.88313 22.9407H9.29489H10.7067V24.3522H7.88313V22.9407Z" fill="black"/>
</svg>
