<svg width="30" height="30" viewBox="0 0 30 30" fill="none" xmlns="http://www.w3.org/2000/svg">
<circle cx="15" cy="15" r="15" fill="white"/>
<path d="M16.18 6.272L15.916 18.272H14.092L13.828 6.272H16.18ZM15.1 23.144C14.684 23.144 14.332 23 14.044 22.712C13.756 22.424 13.612 22.072 13.612 21.656C13.612 21.24 13.756 20.888 14.044 20.6C14.332 20.312 14.684 20.168 15.1 20.168C15.5 20.168 15.836 20.312 16.108 20.6C16.396 20.888 16.54 21.24 16.54 21.656C16.54 22.072 16.396 22.424 16.108 22.712C15.836 23 15.5 23.144 15.1 23.144Z" fill="black"/>
</svg>
