<svg width="28" height="28" viewBox="0 0 28 28" fill="none" xmlns="http://www.w3.org/2000/svg">
<path d="M20.1535 10.3342C20.1236 10.3342 20.0933 10.3309 20.0629 10.3239C19.8435 10.2741 19.7061 10.0559 19.756 9.83654L20.7992 5.24708C20.8177 5.16542 20.8033 5.08158 20.7586 5.01086C20.7139 4.94015 20.6443 4.89118 20.5626 4.873L17.7957 4.25802C17.4945 4.19148 17.2838 3.92915 17.2838 3.62013V2.18856C17.2838 1.964 17.1011 1.78129 16.8766 1.78129H12.8038C12.5793 1.78129 12.3966 1.964 12.3966 2.18856V3.62013C12.3966 3.92915 12.1858 4.19153 11.8842 4.25812L9.11786 4.87305C9.03626 4.89118 8.96661 4.94015 8.92186 5.01091C8.87716 5.08158 8.86276 5.16537 8.88134 5.24688L9.92452 9.83654C9.97436 10.0559 9.83695 10.2741 9.61764 10.3239C9.39832 10.3737 9.18007 10.2364 9.13023 10.0171L8.08711 5.4276C8.02011 5.1334 8.07209 4.8307 8.23347 4.57554C8.3949 4.32023 8.64619 4.14352 8.94106 4.07795L11.5821 3.49097V2.18862C11.5821 1.51488 12.1302 0.966797 12.8039 0.966797H16.8766C17.5503 0.966797 18.0984 1.51488 18.0984 2.18862V3.49092L20.7394 4.0779C21.0343 4.14352 21.2856 4.32023 21.447 4.57544C21.6084 4.83064 21.6604 5.1333 21.5934 5.42776L20.5503 10.0171C20.5073 10.206 20.3394 10.3342 20.1535 10.3342Z" fill="black"/>
<path d="M22.5196 18.8864H7.16139C6.84097 18.8864 6.55761 18.706 6.42183 18.4157C6.28616 18.1256 6.32948 17.7928 6.53475 17.5471L9.5869 13.8841C9.74859 13.6901 9.83478 13.4446 9.82963 13.193C9.82505 12.9681 10.0036 12.7821 10.2285 12.7774C10.4536 12.7732 10.6394 12.9514 10.644 13.1762C10.6532 13.6241 10.5 14.0607 10.2127 14.4055L7.16022 18.0689C7.15894 18.0693 7.16037 18.0723 7.16149 18.0734L14.8405 18.0719H22.5196C22.5206 18.0725 22.5222 18.0694 22.5223 18.0677L19.4684 14.4054C19.181 14.0606 19.0279 13.624 19.0371 13.1762C19.0417 12.9513 19.2263 12.7736 19.4527 12.7774C19.6775 12.7821 19.8561 12.9682 19.8514 13.193C19.8463 13.4446 19.9324 13.69 20.0942 13.8841L23.1467 17.5475C23.3516 17.7928 23.3949 18.1256 23.2592 18.4158C23.1234 18.706 22.8401 18.8864 22.5196 18.8864Z" fill="black"/>
<path d="M14.8409 24.5886C14.616 24.5886 14.4336 24.4063 14.4336 24.1814V18.4795C14.4336 18.2546 14.616 18.0723 14.8409 18.0723C15.0658 18.0723 15.2481 18.2546 15.2481 18.4795V24.1814C15.2481 24.4063 15.0658 24.5886 14.8409 24.5886Z" fill="black"/>
<path d="M19.7267 27.0316H9.95219C9.72728 27.0316 9.54492 26.8493 9.54492 26.6243C9.54492 25.0523 10.8239 23.7734 12.3958 23.7734H17.2831C18.8551 23.7734 20.134 25.0523 20.134 26.6243C20.134 26.8493 19.9517 27.0316 19.7267 27.0316ZM10.4004 26.2171H19.2785C19.0893 25.2887 18.2665 24.588 17.2831 24.588H12.3958C11.4125 24.588 10.5896 25.2887 10.4004 26.2171Z" fill="black"/>
<path d="M22.5782 13.5923H8.32366C6.30252 13.5923 4.6582 11.9479 4.6582 9.9268C4.6582 9.70189 4.84056 9.51953 5.06548 9.51953H22.5782C22.8031 9.51953 22.9855 9.70189 22.9855 9.9268V13.185C22.9855 13.41 22.8031 13.5923 22.5782 13.5923ZM5.50177 10.3341C5.70001 11.7139 6.88996 12.7777 8.32366 12.7777H22.1709V10.3341H5.50177Z" fill="black"/>
<path d="M5.06548 10.3344C4.84056 10.3344 4.6582 10.152 4.6582 9.92708C4.6582 8.35511 5.93714 7.07617 7.50911 7.07617H8.73093C8.95585 7.07617 9.1382 7.25853 9.1382 7.48344C9.1382 7.70836 8.95585 7.89072 8.73093 7.89072H7.50911C6.38626 7.89072 5.47275 8.80423 5.47275 9.92708C5.47275 10.152 5.29039 10.3344 5.06548 10.3344Z" fill="black"/>
<path d="M18.5049 13.5923C18.28 13.5923 18.0977 13.4099 18.0977 13.185V9.9268C18.0977 9.70189 18.28 9.51953 18.5049 9.51953C18.7298 9.51953 18.9122 9.70189 18.9122 9.9268V13.185C18.9122 13.41 18.7298 13.5923 18.5049 13.5923Z" fill="black"/>
<path d="M20.9484 11.963H20.1338C19.9089 11.963 19.7266 11.7806 19.7266 11.5557C19.7266 11.3308 19.9089 11.1484 20.1338 11.1484H20.9484C21.1733 11.1484 21.3557 11.3308 21.3557 11.5557C21.3557 11.7806 21.1733 11.963 20.9484 11.963Z" fill="black"/>
<path d="M15.6553 13.5921C15.4304 13.5921 15.248 13.4097 15.248 13.1848V11.5557C15.248 11.3308 15.4304 11.1484 15.6553 11.1484C15.8802 11.1484 16.0626 11.3308 16.0626 11.5557V13.1848C16.0626 13.4098 15.8802 13.5921 15.6553 13.5921Z" fill="black"/>
<path d="M12.3956 13.5921C12.1706 13.5921 11.9883 13.4097 11.9883 13.1848V11.5557C11.9883 11.3308 12.1706 11.1484 12.3956 11.1484C12.6205 11.1484 12.8028 11.3308 12.8028 11.5557V13.1848C12.8028 13.4098 12.6205 13.5921 12.3956 13.5921Z" fill="black"/>
<path d="M9.13774 13.5921C8.91283 13.5921 8.73047 13.4097 8.73047 13.1848V11.5557C8.73047 11.3308 8.91283 11.1484 9.13774 11.1484C9.36266 11.1484 9.54501 11.3308 9.54501 11.5557V13.1848C9.54501 13.4098 9.36266 13.5921 9.13774 13.5921Z" fill="black"/>
<path d="M10.7666 13.593C10.5417 13.593 10.3594 13.4106 10.3594 13.1857V11.9639C10.3594 11.739 10.5417 11.5566 10.7666 11.5566C10.9916 11.5566 11.1739 11.739 11.1739 11.9639V13.1857C11.1739 13.4107 10.9916 13.593 10.7666 13.593Z" fill="black"/>
<path d="M14.0264 13.593C13.8015 13.593 13.6191 13.4106 13.6191 13.1857V11.9639C13.6191 11.739 13.8015 11.5566 14.0264 11.5566C14.2513 11.5566 14.4337 11.739 14.4337 11.9639V13.1857C14.4337 13.4107 14.2513 13.593 14.0264 13.593Z" fill="black"/>
</svg>
