<svg width="28" height="28" viewBox="0 0 28 28" fill="none" xmlns="http://www.w3.org/2000/svg">
<path d="M10.6786 11.1442C7.48557 11.1442 4.88791 13.742 4.88791 16.9351C4.88791 20.1282 7.48557 22.726 10.6786 22.726C13.8716 22.726 16.4696 20.1282 16.4696 16.9351C16.4696 13.742 13.8716 11.1442 10.6786 11.1442ZM6.7492 20.0734C8.54662 19.6472 9.13139 20.0822 9.97402 20.7181C10.4472 21.0753 11.0054 21.4948 11.8596 21.8235C11.4801 21.9153 11.0859 21.9692 10.6786 21.9692C9.0895 21.9692 7.67249 21.2272 6.7492 20.0734ZM13.0234 21.3861C11.725 21.0892 11.0373 20.5725 10.4298 20.1141C9.48511 19.4013 8.65971 18.7857 6.29858 19.4075C5.98467 18.8536 5.77451 18.235 5.69018 17.5768C7.44734 16.6203 8.84647 17.019 10.4603 17.4831C11.4577 17.7699 12.5407 18.0813 13.7982 18.0813C14.3676 18.0813 14.9755 18.0119 15.6249 17.8528C15.3408 19.3871 14.3609 20.6786 13.0234 21.3861ZM15.707 17.051C13.6933 17.6219 12.1561 17.183 10.6695 16.756C9.05909 16.2927 7.5302 15.8561 5.65425 16.7452C5.7552 14.0578 7.96688 11.901 10.6786 11.901C13.4544 11.901 15.7128 14.1593 15.7128 16.9351C15.7128 16.9742 15.7078 17.0121 15.707 17.051ZM2.76741 4.72062C2.76741 4.5116 2.93688 4.34223 3.14579 4.34223H5.21259C5.4215 4.34223 5.59098 4.5116 5.59098 4.72062C5.59098 4.92963 5.4215 5.099 5.21259 5.099H3.14579C2.93688 5.099 2.76741 4.92963 2.76741 4.72062ZM28 22.1018C28 21.58 27.7599 21.1135 27.3845 20.8063C27.7599 20.4991 28 20.0325 28 19.5108C28 18.5878 27.2491 17.8369 26.3261 17.8369H21.3574V3.95182C21.3574 2.67416 20.3179 1.63477 19.0404 1.63477H2.31705C1.03955 1.63471 0 2.67416 0 3.95182V24.0501C0 25.3276 1.03955 26.3671 2.31705 26.3671H26.3261C27.2491 26.3671 28 25.6161 28 24.693C28 24.1712 27.7598 23.7047 27.3844 23.3974C27.7598 23.0902 28 22.6236 28 22.1018ZM27.2432 19.5107C27.2432 20.0165 26.8318 20.4279 26.3261 20.4279H19.4811C18.9753 20.4279 18.5639 20.0164 18.5639 19.5107C18.5639 19.005 18.9754 18.5936 19.4811 18.5936H26.3261C26.8319 18.5936 27.2432 19.005 27.2432 19.5107ZM2.31705 2.39148H19.0403C19.9008 2.39148 20.6007 3.09148 20.6007 3.95182V6.98069H0.756766V3.95182C0.756766 3.09148 1.4566 2.39148 2.31705 2.39148ZM0.756766 24.0501V7.73745H20.6007V17.8369H19.4811C19.0399 17.8369 18.6393 18.0097 18.34 18.2895C18.4177 17.8492 18.4605 17.3972 18.4605 16.9351C18.4605 12.6443 14.9696 9.15342 10.6788 9.15342C6.38783 9.15342 2.89696 12.6443 2.89696 16.9351C2.89696 21.2259 6.38783 24.7167 10.6788 24.7167C13.9099 24.7167 16.6868 22.7367 17.8616 19.9266C17.9517 20.2769 18.1508 20.5838 18.4227 20.8063C18.0473 21.1135 17.8072 21.5801 17.8072 22.1018C17.8072 22.6237 18.0474 23.0903 18.4228 23.3975C18.0474 23.7048 17.8072 24.1713 17.8072 24.6931C17.8072 25.0317 17.909 25.3467 18.0826 25.6105H2.31705C1.4566 25.6104 0.756766 24.9105 0.756766 24.0501ZM17.7037 16.935C17.7037 20.8085 14.5523 23.9599 10.6788 23.9599C6.80515 23.9599 3.65373 20.8085 3.65373 16.935C3.65373 13.0614 6.80515 9.91013 10.6788 9.91013C14.5523 9.91013 17.7037 13.0614 17.7037 16.935ZM27.2432 24.693C27.2432 25.1988 26.8318 25.6104 26.3261 25.6104H19.4811C18.9753 25.6104 18.5639 25.1988 18.5639 24.693C18.5639 24.1873 18.9754 23.7759 19.4811 23.7759H26.3261C26.8319 23.7759 27.2432 24.1873 27.2432 24.693ZM19.4811 23.0192C18.9753 23.0192 18.5639 22.6075 18.5639 22.1018C18.5639 21.596 18.9754 21.1847 19.4811 21.1847H26.3261C26.8319 21.1847 27.2432 21.5961 27.2432 22.1018C27.2432 22.6075 26.8318 23.0192 26.3261 23.0192H19.4811Z" fill="black"/>
</svg>
