<svg width="28" height="28" viewBox="0 0 28 28" fill="none" xmlns="http://www.w3.org/2000/svg">
<g clip-path="url(#clip0_6451_10596)">
<path d="M26.5709 19.4126C25.1984 18.0432 23.1219 17.6215 21.3224 18.3212L20.5346 17.5352C20.5971 17.4881 20.6574 17.4365 20.7143 17.3797L22.6799 15.4183C23.0021 15.0969 23.1795 14.6682 23.1795 14.2111C23.1795 13.754 23.0021 13.3253 22.6799 13.0039H22.68C22.3228 12.6475 21.8456 12.4822 21.377 12.5076C21.3887 12.4218 21.3951 12.3347 21.3951 12.2466C21.3951 11.7398 21.1981 11.2646 20.8406 10.9086C20.4936 10.5625 20.0446 10.379 19.5893 10.3579C19.8064 9.69908 19.6539 8.94136 19.1338 8.42108C18.7086 7.99682 18.1301 7.81729 17.5746 7.88149C17.5826 7.80974 17.5873 7.73718 17.5873 7.66384C17.5873 7.15707 17.3908 6.6819 17.0339 6.32584C16.2952 5.58879 15.0933 5.58884 14.3546 6.32584L13.0982 7.57941L13.001 7.48239C12.5308 7.01319 11.7649 7.01385 11.2937 7.48398L10.8768 7.89998L9.66174 6.68655C10.3628 4.89034 9.93981 2.81852 8.56715 1.44891C7.42432 0.308603 5.78736 -0.1921 4.18911 0.109656C3.96036 0.152694 3.26437 0.283666 3.12153 0.816197C2.98187 1.33702 3.47852 1.76396 3.71728 1.96914C3.74145 1.98992 5.67892 3.91945 5.67892 3.91945C6.18197 4.42141 6.21577 5.22934 5.76073 5.77095C5.21726 6.22555 4.40632 6.19197 3.90256 5.6893C3.90256 5.6893 1.96876 3.7561 1.94787 3.73193C1.74219 3.49378 1.314 2.99843 0.793177 3.13826C0.260756 3.28143 0.12951 3.9755 0.0864178 4.20338C-0.216049 5.79933 0.285857 7.43312 1.42912 8.57381C2.80162 9.9432 4.8781 10.3649 6.67759 9.66523L8.08432 11.0688C7.91261 11.5124 7.83255 12.0006 7.86192 12.491C7.92863 13.5914 7.3453 14.6707 5.91127 16.1002L4.41753 17.5906C3.91196 17.3313 3.27498 17.4121 2.85193 17.8342L0.759873 19.9216C0.50635 20.1745 0.366792 20.5118 0.366792 20.8712C0.366792 21.2307 0.506405 21.5679 0.759819 21.8208L6.53699 27.5851C6.79899 27.8465 7.14318 27.9772 7.48737 27.9772C7.83157 27.9772 8.17576 27.8465 8.43781 27.585L10.5299 25.4976C10.7834 25.2447 10.923 24.9074 10.923 24.548C10.923 24.3307 10.8716 24.1216 10.7752 23.9342L13.3162 21.3989C14.0694 20.6475 14.1918 20.6678 14.9896 20.801C15.1238 20.8234 15.276 20.8488 15.4472 20.8732C16.1436 20.9732 16.9522 20.6194 17.411 20.3744L18.3382 21.2998C18.0935 21.9279 17.9798 22.611 18.0085 23.2927C18.0178 23.5131 18.1994 23.6856 18.418 23.6856C18.4238 23.6856 18.4297 23.6855 18.4355 23.6852C18.6618 23.6757 18.8376 23.4846 18.8281 23.2582C18.8008 22.6084 18.9281 21.9579 19.1963 21.3771C19.2684 21.2209 19.2354 21.0363 19.1136 20.9148L12.5506 14.3649C12.8175 13.862 12.9686 13.327 12.9853 12.8018C13.4576 13.2079 14.079 13.5388 14.6864 13.7021C15.1839 13.8358 15.6493 13.8576 16.0672 13.771C16.0672 13.7757 16.0669 13.7803 16.0669 13.7849C16.0672 14.291 16.2643 14.7657 16.6211 15.1206C16.9567 15.4563 17.3978 15.65 17.8714 15.6718C17.8227 15.8318 17.7975 16.0001 17.7975 16.1725C17.7975 16.6295 17.9749 17.0583 18.297 17.3796C18.6303 17.7121 19.0679 17.8784 19.5056 17.8783C19.5723 17.8783 19.6389 17.874 19.7052 17.8662L20.9383 19.0966C21.0596 19.2176 21.2433 19.2505 21.3989 19.179C22.9465 18.4695 24.7922 18.7966 25.9915 19.9932C26.9423 20.9418 27.3595 22.3014 27.1076 23.6303C27.0654 23.853 27.0176 23.9696 26.9869 24.0265C26.9279 23.9879 26.8312 23.9014 26.6731 23.7182C26.6376 23.6771 24.6769 21.7163 24.6769 21.7163C23.8631 20.9043 22.5464 20.8597 21.6794 21.615C21.6654 21.6271 21.6524 21.6402 21.6401 21.6541C20.8825 22.5199 20.9272 23.8348 21.7418 24.6476L24.0558 26.9505C23.9982 26.9813 23.8811 27.0288 23.659 27.0706C22.3265 27.3219 20.9632 26.9057 20.0128 25.9573C19.7113 25.6552 19.4609 25.3116 19.2684 24.936C19.165 24.7344 18.918 24.6548 18.7163 24.7581C18.5147 24.8615 18.4351 25.1087 18.5384 25.3102C18.7698 25.7616 19.0705 26.1743 19.4328 26.5373C20.3566 27.4591 21.603 27.9629 22.891 27.9629C23.1965 27.9629 23.5045 27.9345 23.8109 27.8767C24.0396 27.8337 24.7356 27.7027 24.8784 27.1702C25.0181 26.6494 24.5215 26.2224 24.2827 26.0172C24.2585 25.9964 22.3211 24.0669 22.3211 24.0669C21.818 23.5649 21.7842 22.757 22.2393 22.2154C22.7827 21.7608 23.5937 21.7944 24.0974 22.297C24.0974 22.297 26.0312 24.2302 26.0521 24.2544C26.2578 24.4926 26.6863 24.9881 27.2068 24.8481C27.7391 24.7049 27.8704 24.0108 27.9135 23.783C28.2161 22.1872 27.7141 20.5534 26.5709 19.4126ZM18.554 9.00151C18.9648 9.41237 18.9712 10.0848 18.569 10.5019L17.2506 11.8174C17.0243 11.4894 15.7789 10.2542 15.7789 10.2542L17.0339 9.00189C17.4532 8.58355 18.1353 8.58366 18.554 9.00151ZM14.934 6.90666C15.3533 6.48837 16.0355 6.48848 16.4545 6.90666C16.6561 7.10774 16.7671 7.37669 16.7671 7.66395C16.7671 7.95122 16.6561 8.22016 16.4545 8.42124L15.1982 9.6748L13.679 8.15897L14.934 6.90666ZM7.0617 8.88979C6.94052 8.76882 6.75688 8.73596 6.60108 8.80732C5.05336 9.51682 3.20777 9.18974 2.00857 7.99316C1.05775 7.04453 0.640494 5.68493 0.892432 4.35601C0.934595 4.13338 0.98239 4.01679 1.01318 3.95981C1.07213 3.99847 1.16887 4.08499 1.32697 4.26813C1.36246 4.30925 3.32316 6.27001 3.32316 6.27001C4.13705 7.08215 5.45366 7.12672 6.32065 6.3714C6.3346 6.35926 6.34767 6.34613 6.35992 6.33224C7.11753 5.46646 7.07286 4.15159 6.25826 3.3388C6.25826 3.3388 3.98333 1.09477 3.94423 1.03587C4.00187 1.00503 4.11889 0.957559 4.34103 0.915725C5.67334 0.66428 7.03676 1.08066 7.98786 2.02967C9.18663 3.22576 9.51447 5.06632 8.80366 6.60972C8.7318 6.76579 8.76483 6.95008 8.8864 7.07149L10.2963 8.47948L8.76795 10.0043C8.66979 10.1023 8.57956 10.2086 8.49594 10.3207L7.0617 8.88979ZM16.6215 12.4451C16.5153 12.5511 16.4236 12.6678 16.3467 12.7923C15.473 13.3337 14.0916 12.7374 13.4042 12.0752L13.3189 11.9903C12.6905 11.364 12.3563 11.0306 12.3254 10.999C12.3249 10.9984 12.3243 10.998 12.3238 10.9974C12.3223 10.9959 12.3208 10.9943 12.3193 10.9927C12.3171 10.9905 12.3149 10.989 12.3127 10.987C12.1559 10.8368 11.9074 10.8342 11.7478 10.985C11.5832 11.1407 11.576 11.4002 11.7316 11.5649C11.7331 11.5664 11.7355 11.569 11.7399 11.5733C12.0198 11.8527 12.1678 12.2439 12.1678 12.7048C12.1678 13.4299 11.7973 14.2324 11.1766 14.8516C11.0163 15.0116 11.016 15.2712 11.176 15.4316C11.2562 15.5119 11.3613 15.552 11.4664 15.552C11.5712 15.552 11.676 15.5121 11.7561 15.4322C11.8749 15.3137 11.9851 15.1896 12.0881 15.0622L16.7999 19.7645C16.3222 19.9887 15.8599 20.1038 15.5634 20.0612C15.4014 20.038 15.2543 20.0135 15.1245 19.9918C14.1741 19.8332 13.7482 19.809 12.7368 20.8182L10.2401 23.3093L8.17718 21.251C8.01684 21.091 7.75714 21.0912 7.59718 21.2516C7.43717 21.412 7.4375 21.6717 7.59789 21.8316L9.94966 24.1781C9.94971 24.1782 9.94982 24.1783 9.94988 24.1784L9.95015 24.1787L9.95059 24.1791C10.0487 24.277 10.1027 24.408 10.1027 24.548C10.1027 24.688 10.0487 24.819 9.95053 24.9169L7.85836 27.0044C7.65373 27.2085 7.32086 27.2085 7.11633 27.0044L1.33921 21.2402C1.24111 21.1423 1.18708 21.0112 1.18708 20.8713C1.18708 20.7313 1.24111 20.6003 1.33927 20.5024L3.43133 18.4149C3.63596 18.2108 3.96884 18.2109 4.17336 18.4149L6.24207 20.479C6.40246 20.639 6.66211 20.6388 6.82212 20.4784C6.98213 20.318 6.9818 20.0583 6.82147 19.8984L5.04368 18.1246L6.49051 16.6809C8.108 15.0686 8.76303 13.8007 8.68067 12.4416C8.63917 11.7481 8.8946 11.0366 9.34718 10.5849L11.8731 8.06474C12.0221 7.91589 12.2734 7.91529 12.4216 8.06316L12.8078 8.44853L15.4809 11.1157C15.553 11.1876 15.6249 11.2588 15.6959 11.329C16.0356 11.6651 16.5254 12.1496 16.6585 12.4079L16.6215 12.4451ZM17.9612 14.8537C17.6729 14.8537 17.403 14.7426 17.2005 14.54C16.9987 14.3392 16.8874 14.0708 16.8872 13.7844C16.887 13.4973 16.9984 13.2278 17.2008 13.0258L18.7407 11.4894C18.9503 11.2803 19.2256 11.1758 19.5009 11.1758C19.7763 11.1758 20.0516 11.2803 20.2612 11.4894C20.2613 11.4896 20.2614 11.4897 20.2616 11.4898C20.4635 11.6908 20.5748 11.9596 20.5748 12.2467C20.5748 12.5336 20.4637 12.8023 20.2615 13.0037C20.2614 13.0039 20.2612 13.004 20.2611 13.0041L18.721 14.5408C18.5193 14.7426 18.2494 14.8537 17.9612 14.8537ZM18.8765 16.7991C18.7096 16.6327 18.6178 16.4102 18.6178 16.1726C18.6178 15.935 18.7097 15.7124 18.8766 15.5459L20.8407 13.5847C21.0143 13.4114 21.2425 13.3248 21.4706 13.3248C21.6988 13.3248 21.9269 13.4114 22.1006 13.5847H22.1007C22.2675 13.7511 22.3593 13.9736 22.3593 14.2112C22.3593 14.4488 22.2674 14.6713 22.1006 14.8377L20.135 16.7991C19.7879 17.1453 19.2233 17.1452 18.8765 16.7991Z" fill="black"/>
</g>
<defs>
<clipPath id="clip0_6451_10596">
<rect width="28" height="28" fill="white"/>
</clipPath>
</defs>
</svg>
