<svg width="28" height="28" viewBox="0 0 28 28" fill="none" xmlns="http://www.w3.org/2000/svg">
<g clip-path="url(#clip0_6451_10694)">
<path d="M24.1064 23.791H22.9613C22.9037 23.791 22.847 23.8061 22.7971 23.8349C22.7472 23.8637 22.7057 23.9052 22.6769 23.9551L22.1045 24.9468C22.0757 24.9967 22.0605 25.0532 22.0605 25.1108C22.0605 25.1684 22.0757 25.225 22.1045 25.2749L22.677 26.2666C22.7058 26.3165 22.7473 26.3579 22.7972 26.3867C22.8471 26.4155 22.9038 26.4307 22.9614 26.4306H24.1065C24.1641 26.4307 24.2208 26.4155 24.2707 26.3867C24.3206 26.3579 24.3621 26.3165 24.3909 26.2666L24.9635 25.2749C24.9923 25.225 25.0074 25.1684 25.0074 25.1108C25.0074 25.0532 24.9923 24.9967 24.9635 24.9468L24.3904 23.9551C24.3617 23.9052 24.3203 23.8638 24.2704 23.835C24.2205 23.8062 24.164 23.791 24.1064 23.791ZM23.917 25.7744H23.1507L22.7679 25.1108L23.1507 24.4473H23.917L24.2998 25.1108L23.917 25.7744Z" fill="black"/>
<path d="M15.9373 16.2139C14.983 15.9761 14.0647 15.612 13.2066 15.1314L12.5246 14.7566V14.4481C13.1646 13.8767 13.5878 13.102 13.7228 12.2548L13.9659 10.7038C14.1683 10.6838 14.3599 10.603 14.5155 10.472C14.671 10.341 14.7832 10.1659 14.8373 9.96983C14.8913 9.77377 14.8847 9.56594 14.8183 9.37372C14.7519 9.1815 14.6288 9.01392 14.4652 8.89306C14.5807 8.55453 14.6685 8.20718 14.7277 7.85444H14.8398C15.0693 7.85474 15.2913 7.77307 15.4659 7.62413C15.6404 7.47519 15.756 7.26879 15.7918 7.04214C15.8277 6.81549 15.7813 6.58351 15.6612 6.38801C15.541 6.19252 15.355 6.04637 15.1366 5.97592C15.0924 4.84033 14.7098 3.74389 14.0379 2.82734C13.4076 1.9674 12.5275 1.32265 11.5176 0.98093L11.5534 0.635414C11.5581 0.589705 11.5532 0.543509 11.539 0.49982C11.5247 0.45613 11.5015 0.415921 11.4707 0.381796C11.4399 0.347672 11.4023 0.320393 11.3603 0.301726C11.3183 0.28306 11.2729 0.273422 11.2269 0.273438H8.73432C8.68837 0.273437 8.64294 0.283086 8.60096 0.301759C8.55898 0.320433 8.52139 0.347714 8.49062 0.381837C8.45986 0.41596 8.4366 0.456164 8.42236 0.499846C8.40811 0.543528 8.4032 0.589714 8.40794 0.635414L8.44376 0.980984C7.43305 1.32371 6.5528 1.97013 5.92327 2.83194C5.2535 3.74773 4.87137 4.84211 4.82553 5.97576C4.60707 6.0461 4.42094 6.19218 4.30069 6.38766C4.18045 6.58314 4.13402 6.81516 4.16977 7.04186C4.20551 7.26856 4.32109 7.47503 4.49565 7.62402C4.67021 7.77302 4.89227 7.85474 5.12177 7.85444H5.20632C5.26568 8.12537 5.34699 8.39103 5.44946 8.64877L5.57382 8.96142C5.43081 9.09282 5.32888 9.2628 5.28033 9.45085C5.23179 9.6389 5.23869 9.83697 5.30022 10.0212C5.36175 10.2054 5.47528 10.3679 5.62709 10.489C5.77891 10.6101 5.96253 10.6847 6.1558 10.7038L6.39894 12.2548C6.52253 13.0313 6.88877 13.7488 7.44517 14.3044V14.8705L6.76245 15.2133C6.72072 15.2247 6.68168 15.2443 6.64761 15.271L6.58056 15.3046C5.76644 15.7057 4.90848 16.0108 4.02392 16.2139C3.01821 16.4528 2.1228 17.0246 1.48309 17.8366C0.843378 18.6486 0.496936 19.653 0.50002 20.6866V27.3984C0.50002 27.4855 0.534591 27.5689 0.596126 27.6305C0.657661 27.692 0.741121 27.7266 0.828145 27.7266H19.133C19.2201 27.7266 19.3035 27.692 19.3651 27.6305C19.4266 27.5689 19.4612 27.4855 19.4612 27.3984V20.6866C19.4642 19.653 19.1178 18.6486 18.4781 17.8366C17.8384 17.0247 16.943 16.4528 15.9373 16.2139ZM3.77219 27.0703H1.15627V20.6866C1.15387 19.8729 1.40428 19.0785 1.87288 18.4132C2.34149 17.7479 3.00516 17.2446 3.77219 16.9728V27.0703ZM8.23803 1.76553C8.44617 1.67105 8.66172 1.59384 8.88252 1.5347C8.95805 1.51461 9.02392 1.46823 9.0683 1.40389C9.11267 1.33956 9.13262 1.2615 9.12457 1.18377L9.09821 0.929688H10.863L10.8366 1.18377C10.8286 1.2615 10.8485 1.33956 10.8929 1.40389C10.9373 1.46823 11.0031 1.51461 11.0787 1.5347C11.2994 1.59384 11.515 1.67093 11.7232 1.7652V2.21364C11.723 2.7482 11.5615 3.27026 11.2599 3.71159C10.9583 4.15291 10.5305 4.49296 10.0325 4.68727C9.50835 4.50869 9.05336 4.17033 8.73148 3.71976C8.40961 3.2692 8.23703 2.72908 8.23803 2.17536V1.76553ZM6.45106 3.22191C6.76375 2.79775 7.14607 2.42965 7.58178 2.13325V2.17536C7.58055 2.87478 7.80133 3.55654 8.21233 4.12246C8.62332 4.68838 9.20333 5.10926 9.86881 5.32448L9.93679 5.34636C10.0045 5.36845 10.0777 5.36784 10.145 5.34461C10.7971 5.12018 11.3629 4.69783 11.7634 4.13648C12.1639 3.57512 12.3793 2.90275 12.3794 2.21315V2.13205C12.815 2.42751 13.1974 2.79469 13.5103 3.21798C14.0891 4.00835 14.4247 4.95037 14.4761 5.92862H5.48544C5.53857 4.95194 5.87401 4.01168 6.45106 3.22191ZM5.12177 7.19819C5.08115 7.19873 5.04084 7.1912 5.00315 7.17603C4.96547 7.16086 4.93118 7.13836 4.90227 7.10983C4.87335 7.0813 4.8504 7.04731 4.83473 7.00984C4.81906 6.97236 4.81099 6.93215 4.81099 6.89153C4.81099 6.85091 4.81906 6.81069 4.83473 6.77322C4.8504 6.73574 4.87335 6.70175 4.90227 6.67322C4.93118 6.64469 4.96547 6.62219 5.00315 6.60702C5.04084 6.59186 5.08115 6.58432 5.12177 6.58487H14.8394C14.88 6.58432 14.9203 6.59186 14.958 6.60702C14.9957 6.62219 15.03 6.64469 15.0589 6.67322C15.0878 6.70175 15.1108 6.73574 15.1265 6.77322C15.1421 6.81069 15.1502 6.85091 15.1502 6.89153C15.1502 6.93215 15.1421 6.97236 15.1265 7.00984C15.1108 7.04731 15.0878 7.0813 15.0589 7.10983C15.03 7.13836 14.9957 7.16086 14.958 7.17603C14.9203 7.1912 14.88 7.19873 14.8394 7.19819H13.6734C13.673 7.19816 13.6725 7.19816 13.6721 7.19819H5.12177ZM14.0615 7.85444C14.0468 7.93291 14.0302 8.01106 14.0123 8.08888V7.85444H14.0615ZM6.10915 7.85444V8.53163L6.05922 8.40618C5.98782 8.22634 5.92821 8.04203 5.88078 7.85444H6.10915ZM7.04732 12.1531L6.76147 10.3298C6.74935 10.2525 6.71003 10.1821 6.65059 10.1312C6.59115 10.0804 6.5155 10.0524 6.43728 10.0524H6.2561C6.2096 10.053 6.16345 10.0444 6.12032 10.027C6.07719 10.0096 6.03794 9.98379 6.00485 9.95111C5.97177 9.91844 5.9455 9.87951 5.92757 9.83661C5.90964 9.7937 5.9004 9.74766 5.9004 9.70115C5.9004 9.65465 5.90964 9.60861 5.92757 9.5657C5.9455 9.52279 5.97177 9.48387 6.00485 9.45119C6.03794 9.41851 6.07719 9.39273 6.12032 9.37534C6.16345 9.35794 6.2096 9.34929 6.2561 9.34987H6.43728C6.5243 9.34987 6.60776 9.3153 6.6693 9.25376C6.73083 9.19223 6.7654 9.10877 6.7654 9.02174V7.85444H13.3561V9.02174C13.3561 9.10877 13.3907 9.19223 13.4522 9.25376C13.5138 9.3153 13.5972 9.34987 13.6842 9.34987H13.8565C13.9118 9.38953 13.9781 9.41084 14.0462 9.41079C14.0512 9.41079 14.0562 9.40986 14.0612 9.40964C14.1238 9.45158 14.1712 9.51251 14.1964 9.58345C14.2217 9.65438 14.2235 9.73157 14.2016 9.8036C14.1796 9.87564 14.1351 9.93871 14.0746 9.98352C14.0141 10.0283 13.9407 10.0525 13.8654 10.0524H13.6842C13.606 10.0524 13.5304 10.0804 13.471 10.1312C13.4115 10.1821 13.3722 10.2525 13.3601 10.3298L13.0743 12.1531C12.9616 12.8715 12.5961 13.5259 12.0436 13.9985C11.491 14.4711 10.7879 14.7309 10.0608 14.7309C9.33371 14.7309 8.63053 14.4711 8.07801 13.9985C7.52549 13.5259 7.15997 12.8715 7.04732 12.1531ZM8.10142 14.978V14.8264C8.17164 14.8702 8.24328 14.9121 8.31672 14.9513C8.85333 15.238 9.45235 15.388 10.0608 15.388C10.6692 15.388 11.2682 15.238 11.8048 14.9513C11.8261 14.9399 11.8471 14.928 11.8681 14.9163V16.2339C11.6275 16.4928 11.3361 16.6994 11.012 16.8406C10.688 16.9819 10.3383 17.0548 9.98477 17.0548C9.63128 17.0548 9.28158 16.9819 8.95753 16.8406C8.63348 16.6994 8.34204 16.4928 8.10142 16.2339V15.1544C8.11764 15.0967 8.11764 15.0357 8.10142 14.978ZM7.1772 15.7393L7.44517 15.6048V16.3583C7.4452 16.4359 7.47278 16.5111 7.52299 16.5703C7.82592 16.9278 8.20305 17.2149 8.62818 17.4119C9.05331 17.6089 9.51623 17.7109 9.98477 17.7109C10.4533 17.7109 10.9162 17.6089 11.3414 17.4119C11.7665 17.2149 12.1436 16.9278 12.4466 16.5703C12.4968 16.511 12.5244 16.4359 12.5244 16.3582V15.5051L12.7839 15.6476V18.1386C12.7839 18.8821 12.4885 19.5951 11.9628 20.1209C11.4371 20.6466 10.7241 20.9419 9.98059 20.9419C9.23711 20.9419 8.52409 20.6466 7.99837 20.1209C7.47265 19.5951 7.17731 18.8821 7.17731 18.1386L7.1772 15.7393ZM12.8976 27.0703H7.60901V24.1961C8.44415 24.555 9.3434 24.7409 10.2524 24.7424C11.1614 24.7439 12.0613 24.5611 12.8976 24.2051V27.0703ZM15.5327 27.0703H13.5539V23.687C13.5539 23.6306 13.5393 23.5751 13.5116 23.5259C13.4839 23.4768 13.444 23.4356 13.3958 23.4063C13.3475 23.3771 13.2925 23.3608 13.2361 23.359C13.1797 23.3573 13.1238 23.3701 13.0738 23.3962C12.2031 23.8512 11.2349 24.0879 10.2526 24.0861C9.27016 24.0843 8.3029 23.8439 7.4339 23.3857C7.38389 23.3594 7.32791 23.3463 7.27139 23.348C7.21487 23.3496 7.15972 23.3658 7.1113 23.395C7.06288 23.4242 7.02283 23.4654 6.99504 23.5146C6.96724 23.5639 6.95264 23.6195 6.95265 23.676V27.0703H4.42844V16.7885C5.14621 16.6082 5.84651 16.3644 6.52106 16.06V18.139C6.52106 19.0565 6.88555 19.9364 7.53433 20.5852C8.18312 21.234 9.06307 21.5985 9.98059 21.5985C10.8981 21.5985 11.7781 21.234 12.4268 20.5852C13.0756 19.9364 13.4401 19.0565 13.4401 18.139V15.9925C14.1101 16.325 14.811 16.5914 15.5327 16.7878V27.0703ZM18.8049 27.0703H16.189V16.9728C16.956 17.2446 17.6197 17.7479 18.0883 18.4132C18.5569 19.0785 18.8073 19.8729 18.8049 20.6866V27.0703Z" fill="black"/>
<path d="M9.9813 19.0936C10.0668 19.0936 10.1505 19.0682 10.2216 19.0207C10.2928 18.9732 10.3482 18.9056 10.3809 18.8266C10.4137 18.7475 10.4223 18.6606 10.4056 18.5767C10.3889 18.4928 10.3477 18.4157 10.2872 18.3552C10.2267 18.2947 10.1496 18.2535 10.0657 18.2368C9.98181 18.2201 9.89484 18.2287 9.81581 18.2614C9.73677 18.2942 9.66922 18.3496 9.6217 18.4208C9.57418 18.4919 9.54882 18.5755 9.54883 18.6611C9.54896 18.7758 9.59456 18.8857 9.67564 18.9668C9.75671 19.0478 9.86664 19.0934 9.9813 19.0936Z" fill="black"/>
<path d="M9.9813 20.451C10.0668 20.451 10.1505 20.4256 10.2216 20.3781C10.2927 20.3306 10.3482 20.2631 10.3809 20.184C10.4137 20.105 10.4223 20.018 10.4056 19.9341C10.3889 19.8502 10.3477 19.7731 10.2872 19.7126C10.2267 19.6521 10.1497 19.6109 10.0658 19.5943C9.98185 19.5776 9.89488 19.5861 9.81584 19.6189C9.73681 19.6516 9.66925 19.707 9.62173 19.7782C9.5742 19.8493 9.54883 19.9329 9.54883 20.0185C9.54894 20.1331 9.59454 20.2431 9.67562 20.3242C9.7567 20.4052 9.86663 20.4509 9.9813 20.451Z" fill="black"/>
<path d="M27.4043 10.8024L27.391 10.7882C27.3544 10.749 27.3087 10.7195 27.258 10.7021C27.2073 10.6847 27.1531 10.68 27.1002 10.6883C27.0472 10.6967 26.9972 10.7179 26.9543 10.7502C26.9115 10.7824 26.8772 10.8246 26.8544 10.8731L25.2378 12.4897L23.1445 12.1009L22.7557 10.0075L24.4285 8.335C24.459 8.30453 24.4832 8.26834 24.4997 8.22851C24.5162 8.18869 24.5247 8.146 24.5247 8.10288C24.5247 8.05977 24.5162 8.01708 24.4997 7.97725C24.4832 7.93742 24.459 7.90123 24.4285 7.87076L24.4143 7.85654C24.3602 7.80256 24.289 7.76914 24.2129 7.76204C23.4048 7.686 22.5945 7.88337 21.9118 8.32254C21.2292 8.76172 20.7137 9.41728 20.4479 10.1842C20.1821 10.9512 20.1814 11.7851 20.4459 12.5525C20.7104 13.32 21.2247 13.9764 21.9066 14.4167V23.0674C21.4819 23.4051 21.1728 23.8664 21.022 24.3876C20.8712 24.9088 20.8863 25.4639 21.0651 25.9762C21.2439 26.4884 21.5776 26.9323 22.02 27.2465C22.4623 27.5606 22.9915 27.7293 23.534 27.7293C24.0765 27.7293 24.6057 27.5606 25.048 27.2465C25.4904 26.9323 25.8241 26.4884 26.0029 25.9762C26.1817 25.4639 26.1968 24.9088 26.046 24.3876C25.8952 23.8664 25.5861 23.4051 25.1614 23.0674V14.7597C25.895 14.4818 26.5185 13.9732 26.9381 13.3105C27.3577 12.6477 27.5508 11.8666 27.4883 11.0847C27.4973 11.0344 27.4943 10.9826 27.4798 10.9336C27.4652 10.8846 27.4394 10.8397 27.4043 10.8024ZM25.4923 25.1119C25.4923 25.4993 25.3774 25.878 25.1622 26.2001C24.947 26.5222 24.6411 26.7733 24.2832 26.9216C23.9253 27.0698 23.5314 27.1086 23.1515 27.033C22.7715 26.9575 22.4225 26.7709 22.1485 26.497C21.8746 26.2231 21.688 25.874 21.6125 25.4941C21.5369 25.1141 21.5757 24.7203 21.7239 24.3624C21.8722 24.0044 22.1232 23.6985 22.4453 23.4833C22.7675 23.2681 23.1462 23.1532 23.5336 23.1532C24.0529 23.1538 24.5507 23.3603 24.9179 23.7275C25.2852 24.0947 25.4917 24.5926 25.4923 25.1119ZM22.5624 22.6846V14.7508C23.1804 14.9903 23.8522 15.0557 24.5047 14.9397V22.6846C23.8815 22.4343 23.1857 22.4343 22.5624 22.6846ZM25.9732 13.4713C25.6422 13.8021 25.2378 14.0499 24.7929 14.1947C24.348 14.3395 23.8752 14.377 23.413 14.3043C22.9507 14.2317 22.5123 14.0508 22.1332 13.7765C21.7542 13.5021 21.4454 13.1421 21.2319 12.7258C21.0185 12.3094 20.9064 11.8485 20.9049 11.3806C20.9034 10.9128 21.0125 10.4512 21.2233 10.0334C21.4341 9.61574 21.7406 9.25375 22.1179 8.977C22.4951 8.70025 22.9324 8.51657 23.3942 8.44093L22.1695 9.66555C22.1319 9.70321 22.104 9.74948 22.0882 9.80035C22.0724 9.85122 22.0693 9.90516 22.079 9.95753L22.5405 12.4422C22.5526 12.5073 22.5842 12.5673 22.6311 12.6141C22.6779 12.661 22.7378 12.6926 22.803 12.7047L25.2877 13.1662C25.34 13.1759 25.394 13.1728 25.4448 13.157C25.4957 13.1412 25.5419 13.1133 25.5796 13.0756L26.8046 11.8506C26.705 12.4649 26.414 13.0321 25.9732 13.4713Z" fill="black"/>
<path d="M9.44922 3.55273H10.6264C10.7134 3.55273 10.7969 3.51816 10.8584 3.45663C10.92 3.39509 10.9545 3.31163 10.9545 3.22461C10.9545 3.13759 10.92 3.05413 10.8584 2.99259C10.7969 2.93105 10.7134 2.89648 10.6264 2.89648H9.44922C9.36219 2.89648 9.27873 2.93105 9.2172 2.99259C9.15566 3.05413 9.12109 3.13759 9.12109 3.22461C9.12109 3.31163 9.15566 3.39509 9.2172 3.45663C9.27873 3.51816 9.36219 3.55273 9.44922 3.55273Z" fill="black"/>
<path d="M9.44922 2.4668H10.6264C10.7134 2.4668 10.7969 2.43223 10.8584 2.37069C10.92 2.30916 10.9545 2.2257 10.9545 2.13867C10.9545 2.05165 10.92 1.96819 10.8584 1.90665C10.7969 1.84512 10.7134 1.81055 10.6264 1.81055H9.44922C9.36219 1.81055 9.27873 1.84512 9.2172 1.90665C9.15566 1.96819 9.12109 2.05165 9.12109 2.13867C9.12109 2.2257 9.15566 2.30916 9.2172 2.37069C9.27873 2.43223 9.36219 2.4668 9.44922 2.4668Z" fill="black"/>
</g>
<defs>
<clipPath id="clip0_6451_10694">
<rect width="28" height="28" fill="white"/>
</clipPath>
</defs>
</svg>
