<svg width="500" height="500" viewBox="0 0 500 500" fill="none" xmlns="http://www.w3.org/2000/svg">
<path d="M212.92 491.76C212.92 491.76 23.86 386.57 27.86 375.26C31.86 363.95 55.15 361.94 51.86 353.95C48.57 345.96 5.88999 113 17.21 99C28.53 85 264.85 1.13 281.49 7.79C298.13 14.45 273.49 38.41 273.49 38.41C273.49 38.41 479.21 121 483.2 130.28C487.19 139.56 460.57 142.93 458.57 143.59C456.57 144.25 477.87 171.59 479.21 191.52C480.55 211.45 459.9 433.84 453.21 454.52C446.52 475.2 433.91 474.52 431.21 469.16C428.51 463.8 428.54 455.85 428.54 455.85C428.54 455.85 238.22 498.41 212.92 491.76Z" fill="#FBA300"/>
<path opacity="0.7" d="M212.92 491.76C212.92 491.76 23.86 386.57 27.86 375.26C31.86 363.95 55.15 361.94 51.86 353.95C48.57 345.96 5.88999 113 17.21 99C28.53 85 264.85 1.13 281.49 7.79C298.13 14.45 273.49 38.41 273.49 38.41C273.49 38.41 479.21 121 483.2 130.28C487.19 139.56 460.57 142.93 458.57 143.59C456.57 144.25 477.87 171.59 479.21 191.52C480.55 211.45 459.9 433.84 453.21 454.52C446.52 475.2 433.91 474.52 431.21 469.16C428.51 463.8 428.54 455.85 428.54 455.85C428.54 455.85 238.22 498.41 212.92 491.76Z" fill="white"/>
<path d="M33.5801 441.13H469.45" stroke="#263238" stroke-linecap="round" stroke-linejoin="round"/>
<path d="M441.26 35.74H291.26V252.58H441.26V35.74Z" stroke="#263238" stroke-linecap="round" stroke-linejoin="round"/>
<path d="M414.089 74.11L331.439 166.94" stroke="#263238" stroke-linecap="round" stroke-linejoin="round"/>
<path d="M430.6 55.56L421.4 65.89" stroke="#263238" stroke-linecap="round" stroke-linejoin="round"/>
<path d="M410.76 90.73L364.66 142.51" stroke="#263238" stroke-linecap="round" stroke-linejoin="round"/>
<path d="M347.749 40.9L301.639 92.68" stroke="#263238" stroke-linecap="round" stroke-linejoin="round"/>
<path d="M437.629 177.68L391.529 229.46" stroke="#263238" stroke-linecap="round" stroke-linejoin="round"/>
<path d="M211.41 35.74H61.4102V252.58H211.41V35.74Z" stroke="#263238" stroke-linecap="round" stroke-linejoin="round"/>
<path d="M142.09 55.07L95.9902 106.85" stroke="#263238" stroke-linecap="round" stroke-linejoin="round"/>
<path d="M138.859 192.24L129.209 203.08" stroke="#263238" stroke-linecap="round" stroke-linejoin="round"/>
<path d="M175.31 151.3L143.16 187.41" stroke="#263238" stroke-linecap="round" stroke-linejoin="round"/>
<path d="M144.069 74.77L86.7793 138.6" stroke="#263238" stroke-linecap="round" stroke-linejoin="round"/>
<path d="M173.769 40.9L150.469 67.07" stroke="#263238" stroke-linecap="round" stroke-linejoin="round"/>
<path d="M114.53 184.03L74.0801 229.46" stroke="#263238" stroke-linecap="round" stroke-linejoin="round"/>
<path d="M198.059 91.22L125.859 172.31" stroke="#263238" stroke-linecap="round" stroke-linejoin="round"/>
<path d="M458.689 259.18H46.1895V277.33H458.689V259.18Z" stroke="#263238" stroke-linecap="round" stroke-linejoin="round"/>
<path d="M458.689 277.33H46.1895V293.64H458.689V277.33Z" stroke="#263238" stroke-linecap="round" stroke-linejoin="round"/>
<path d="M189.189 293.65H48.9395V338.2H189.189V293.65Z" stroke="#263238" stroke-linecap="round" stroke-linejoin="round"/>
<path d="M130.89 311.8H107.24V320.05H130.89V311.8Z" stroke="#263238" stroke-linecap="round" stroke-linejoin="round"/>
<path d="M429.379 321.75V338.2H289.129V293.65H429.379V315.33" stroke="#263238" stroke-linecap="round" stroke-linejoin="round"/>
<path d="M371.08 311.8H347.43V320.05H371.08V311.8Z" stroke="#263238" stroke-linecap="round" stroke-linejoin="round"/>
<path d="M247.61 37.12H216.34V78.36H247.61V37.12Z" stroke="#263238" stroke-linecap="round" stroke-linejoin="round"/>
<path d="M230 37.12H216.34V78.36H230V37.12Z" stroke="#263238" stroke-linecap="round" stroke-linejoin="round"/>
<path d="M286.129 37.12H254.859V78.36H286.129V37.12Z" stroke="#263238" stroke-linecap="round" stroke-linejoin="round"/>
<path d="M268.009 37.12H254.859V78.36H268.009V37.12Z" stroke="#263238" stroke-linecap="round" stroke-linejoin="round"/>
<path d="M247.61 86.97H216.34V128.21H247.61V86.97Z" stroke="#263238" stroke-linecap="round" stroke-linejoin="round"/>
<path d="M230 86.97H216.34V128.21H230V86.97Z" stroke="#263238" stroke-linecap="round" stroke-linejoin="round"/>
<path d="M286.129 86.97H254.859V128.21H286.129V86.97Z" stroke="#263238" stroke-linecap="round" stroke-linejoin="round"/>
<path d="M268.009 86.97H254.859V128.21H268.009V86.97Z" stroke="#263238" stroke-linecap="round" stroke-linejoin="round"/>
<path d="M247.61 136.82H216.34V178.06H247.61V136.82Z" stroke="#263238" stroke-linecap="round" stroke-linejoin="round"/>
<path d="M230 136.82H216.34V178.06H230V136.82Z" stroke="#263238" stroke-linecap="round" stroke-linejoin="round"/>
<path d="M286.129 136.82H254.859V178.06H286.129V136.82Z" stroke="#263238" stroke-linecap="round" stroke-linejoin="round"/>
<path d="M268.009 136.82H254.859V178.06H268.009V136.82Z" stroke="#263238" stroke-linecap="round" stroke-linejoin="round"/>
<path d="M247.61 186.66H216.34V227.9H247.61V186.66Z" stroke="#263238" stroke-linecap="round" stroke-linejoin="round"/>
<path d="M230 186.66H216.34V227.9H230V186.66Z" stroke="#263238" stroke-linecap="round" stroke-linejoin="round"/>
<path d="M286.129 186.66H254.859V227.9H286.129V186.66Z" stroke="#263238" stroke-linecap="round" stroke-linejoin="round"/>
<path d="M268.009 186.66H254.859V227.9H268.009V186.66Z" stroke="#263238" stroke-linecap="round" stroke-linejoin="round"/>
<path d="M241.389 153.52H233.219V178.03H241.389V153.52Z" fill="#CCCCCC" stroke="#263238" stroke-linecap="round" stroke-linejoin="round"/>
<path d="M241.389 150.69H233.219V153.53H241.389V150.69Z" fill="white" stroke="#263238" stroke-linecap="round" stroke-linejoin="round"/>
<path d="M239.219 145.36H235.609V150.72H239.219V145.36Z" fill="white" stroke="#263238" stroke-linecap="round" stroke-linejoin="round"/>
<path d="M271.85 153.52H263.68V178.03H271.85V153.52Z" fill="#263238" stroke="#263238" stroke-linecap="round" stroke-linejoin="round"/>
<path d="M271.85 150.69H263.68V153.53H271.85V150.69Z" fill="white" stroke="#263238" stroke-linecap="round" stroke-linejoin="round"/>
<path d="M269.669 145.36H266.059V150.72H269.669V145.36Z" fill="white" stroke="#263238" stroke-linecap="round" stroke-linejoin="round"/>
<path d="M282.379 159.25H274.209V178.03H282.379V159.25Z" fill="white" stroke="#263238" stroke-linecap="round" stroke-linejoin="round"/>
<path d="M282.379 157.07H274.209V159.24H282.379V157.07Z" fill="white" stroke="#263238" stroke-linecap="round" stroke-linejoin="round"/>
<path d="M280.21 152.99H276.6V157.1H280.21V152.99Z" fill="white" stroke="#263238" stroke-linecap="round" stroke-linejoin="round"/>
<path d="M243.599 64.19H222.539V78.44H243.599V64.19Z" fill="#CCCCCC" stroke="#263238" stroke-linecap="round" stroke-linejoin="round"/>
<path d="M243.599 64.19H222.539V69.17H243.599V64.19Z" fill="white" stroke="#263238" stroke-linecap="round" stroke-linejoin="round"/>
<path d="M425.38 245.53H416.08V277.13H425.38V245.53Z" fill="white" stroke="#263238" stroke-linecap="round" stroke-linejoin="round"/>
<path d="M425.38 245.53H416.08V254.11H425.38V245.53Z" fill="#263238" stroke="#263238" stroke-linecap="round" stroke-linejoin="round"/>
<path d="M442.15 251.39H428.18V277.13H442.15V251.39Z" fill="white" stroke="#263238" stroke-linecap="round" stroke-linejoin="round"/>
<path d="M442.15 251.39H428.18V258.38H442.15V251.39Z" fill="#263238" stroke="#263238" stroke-linecap="round" stroke-linejoin="round"/>
<path d="M71.9195 238.77H57.9395V277.13H71.9195V238.77Z" fill="#263238" stroke="#263238" stroke-linecap="round" stroke-linejoin="round"/>
<path d="M71.9195 238.77H57.9395V249.18H71.9195V238.77Z" fill="white" stroke="#263238" stroke-linecap="round" stroke-linejoin="round"/>
<path d="M232.57 273.1C232.57 273.1 242.11 272.96 246.06 274.73C250.01 276.5 253.55 283.04 254.37 289.31C255.19 295.58 257.09 337.66 257 342C256.91 346.34 254 351.54 251.14 353.17C248.28 354.8 242.69 356.17 242.69 356.17L241.87 355.82C241.87 355.82 248.14 350.17 248.55 345.41C248.96 340.65 246.37 310.67 246.37 310.67L244.37 285.61C244.37 285.61 240.55 279.61 237.56 277.03C234.57 274.45 232.57 273.1 232.57 273.1Z" fill="#CCCCCC" stroke="#263238" stroke-linecap="round" stroke-linejoin="round"/>
<path d="M239.4 275.12C239.4 275.12 243.93 279.03 244.86 280.74C245.448 281.835 245.92 282.988 246.27 284.18H250.8C250.8 284.18 248.45 277.93 245.96 276.37C243.47 274.81 239.4 275.12 239.4 275.12Z" fill="white"/>
<path d="M189.832 273.44C187.525 275.464 185.898 278.149 185.172 281.13C183.812 286.31 184.762 296.39 184.762 296.8C184.762 297.21 186.402 329.08 187.082 332.89C187.762 336.7 190.082 345.02 195.252 347.06C200.422 349.1 245.511 352 245.511 352C244.757 352.96 243.938 353.869 243.062 354.72C241.831 355.87 238.572 354.72 238.572 354.72L188.302 349.82C188.302 349.82 183.132 348.04 180.132 338.37C177.132 328.7 176.181 296.69 176.181 296.69C176.181 296.69 175.092 283.75 177.132 279.94C179.172 276.13 182.862 272.85 185.132 272.72C187.402 272.59 190.852 272.72 190.852 272.72L189.832 273.44Z" fill="#263238" stroke="#263238" stroke-linecap="round" stroke-linejoin="round"/>
<path d="M239.89 356C230.55 356 193.89 352 188.95 350.87C182.35 349.35 178.65 338.45 177.87 334.76C176.99 330.59 175.01 294.76 175.01 291.76C175.01 291.49 175.01 291.16 175.01 290.76C174.94 287.51 174.79 280.76 178.51 275.61C182.57 269.97 189.22 271.03 190.22 271.22C192.88 271.28 229.41 272.13 234 273.44C238.83 274.82 244.51 281.63 245.47 287.18C246.37 292.36 249.88 339.38 249.18 344.18C248.48 348.98 245.51 354.72 241.85 355.77C241.207 355.918 240.55 355.995 239.89 356ZM187.89 273.29C186.423 273.237 184.965 273.544 183.644 274.184C182.323 274.823 181.178 275.777 180.31 276.96C177.02 281.52 177.16 287.77 177.23 290.77C177.23 291.16 177.23 291.5 177.23 291.77C177.23 294.95 179.23 330.48 180.04 334.28C180.89 338.28 184.44 347.53 189.46 348.69C194.97 349.96 238.32 354.47 241.24 353.69C243.61 353.01 246.35 348.35 246.98 343.91C247.61 339.47 244.14 292.48 243.28 287.57C242.42 282.66 237.46 276.74 233.39 275.57C229.74 274.57 200.87 273.67 190.06 273.43H189.84C189.191 273.307 188.531 273.25 187.87 273.26L187.89 273.29Z" fill="#CCCCCC" stroke="#263238" stroke-linecap="round" stroke-linejoin="round"/>
<path d="M234.001 273.47C234.001 273.47 241.541 274.63 242.551 273.87C243.561 273.11 242.801 268.07 241.661 267.69C240.521 267.31 221.871 266.39 209.661 265.51C197.451 264.63 189.061 265.51 188.171 268.32C187.281 271.13 191.001 271.6 191.001 271.6L230.641 273.12L234.001 273.47Z" fill="#263238" stroke="#263238" stroke-linecap="round" stroke-linejoin="round"/>
<path d="M175.352 221.82C175.029 221.4 174.641 221.036 174.202 220.74C173.322 220.146 172.249 219.91 171.202 220.08V219.91L84.1016 227L93.6416 317.35L176.002 307.67C178.035 307.509 179.997 306.846 181.712 305.74C184.912 303.82 188.122 302.85 188.442 287.8C188.762 272.75 177.272 224.39 175.352 221.82Z" fill="#263238" stroke="#263238" stroke-linecap="round" stroke-linejoin="round"/>
<path d="M79.4505 232.3L88.2005 317.68C88.2005 317.68 90.4405 319.34 93.6405 317.35C96.8405 315.36 100.05 314.35 100.37 298.77C100.69 283.19 89.4805 231.44 87.5605 228.77C87.2416 228.336 86.853 227.957 86.4105 227.65C83.2405 225.48 79.0505 228.38 79.4505 232.3Z" fill="#263238" stroke="#263238" stroke-linecap="round" stroke-linejoin="round"/>
<path d="M90 233.43C90 233.43 99.68 287.82 100.41 298.77C101.14 309.72 97.71 313.16 97.71 313.16" stroke="#707070" stroke-linecap="round" stroke-linejoin="round"/>
<path d="M172.712 469.49C207.246 469.49 235.242 462.412 235.242 453.68C235.242 444.948 207.246 437.87 172.712 437.87C138.177 437.87 110.182 444.948 110.182 453.68C110.182 462.412 138.177 469.49 172.712 469.49Z" fill="#CCCCCC" stroke="#263238" stroke-linecap="round" stroke-linejoin="round"/>
<path d="M136 447.86C143.4 446.75 155.23 442.68 158.74 440.09C162.25 437.5 161.89 435.66 161.89 435.66H183.89C183.89 435.66 181.48 444.9 207.74 447.31" fill="#CCCCCC"/>
<path d="M136 447.86C143.4 446.75 155.23 442.68 158.74 440.09C162.25 437.5 161.89 435.66 161.89 435.66H183.89C183.89 435.66 181.48 444.9 207.74 447.31" stroke="#263238" stroke-linecap="round" stroke-linejoin="round"/>
<path d="M176.922 442.62C176.922 442.62 183.042 451.62 191.432 454.22C199.822 456.82 209.432 452.93 207.872 451C206.312 449.07 193.042 447.77 187.562 443.9C186.052 442.781 184.277 442.075 182.411 441.85C180.546 441.626 178.654 441.891 176.922 442.62Z" fill="white"/>
<path d="M174.7 442.06C174.7 442.06 170.09 442.25 168.17 442.06L166.25 441.86C166.802 444.011 166.736 446.274 166.06 448.39C164.91 451.65 160.69 453.76 161.06 457.39C161.43 461.02 162.4 462.19 160.68 463.72C158.96 465.25 157.99 466.03 159.14 466.6C160.29 467.17 169.5 468.33 176.99 467.37C177.577 466.774 177.965 466.011 178.103 465.187C178.241 464.362 178.121 463.514 177.76 462.76C177.107 461.781 176.712 460.652 176.61 459.479C176.509 458.306 176.705 457.127 177.18 456.05C178.18 453.36 177.76 452.59 176.18 449.52C175.211 447.152 174.708 444.619 174.7 442.06Z" fill="#263238" stroke="#263238" stroke-linecap="round" stroke-linejoin="round"/>
<path d="M161.002 440.3C159.995 441.926 158.651 443.317 157.062 444.38C154.752 445.74 149.862 447.5 149.732 448.73C149.602 449.96 151.082 451.73 148.232 452.4C145.382 453.07 140.082 453.89 135.052 456.47C130.022 459.05 136.282 460.41 135.872 461.09C135.462 461.77 133.562 461.5 134.372 462.72C135.182 463.94 138.992 464.08 138.992 464.08C138.992 464.08 135.992 463.94 136.822 462.72C137.652 461.5 139.132 460.14 137.912 459.72C136.692 459.3 133.292 459.45 135.462 457.82C138.035 455.797 141.19 454.654 144.462 454.56C148.652 454.36 151.242 452.86 151.462 451.56C151.682 450.26 149.372 449.26 151.062 448.17C152.752 447.08 157.152 445.67 158.542 444.48C159.932 443.29 161.202 440.8 161.002 440.3Z" fill="#263238" stroke="#263238" stroke-linecap="round" stroke-linejoin="round"/>
<path d="M172.841 440.19C178.021 440.19 182.471 439.61 184.511 438.78C183.913 437.857 183.674 436.747 183.841 435.66H161.841C161.841 435.66 162.051 436.77 160.521 438.46C162.101 439.46 167.001 440.19 172.841 440.19Z" fill="#263238" stroke="#263238" stroke-linecap="round" stroke-linejoin="round"/>
<path d="M161.842 392.3V435.66C161.842 436.53 166.762 437.23 172.842 437.23C178.922 437.23 183.842 436.53 183.842 435.66V392.3H161.842Z" fill="#CCCCCC" stroke="#263238" stroke-linecap="round" stroke-linejoin="round"/>
<path d="M173.792 394.57H169.592V435.03H173.792V394.57Z" fill="white"/>
<path d="M169.85 394.57H165.65V435.03H169.85V394.57Z" fill="#263238" stroke="#263238" stroke-linecap="round" stroke-linejoin="round"/>
<path d="M183.842 392.3C183.842 393.17 178.912 393.87 172.842 393.87C166.772 393.87 161.842 393.17 161.842 392.3C161.842 391.43 166.762 390.73 172.842 390.73C178.922 390.73 183.842 391.43 183.842 392.3Z" fill="#CCCCCC" stroke="#263238" stroke-linecap="round" stroke-linejoin="round"/>
<path d="M171 369.73H176.16V391.31C176.16 391.742 175.988 392.157 175.683 392.463C175.377 392.768 174.962 392.94 174.53 392.94H172.64C172.208 392.94 171.793 392.768 171.487 392.463C171.182 392.157 171.01 391.742 171.01 391.31V369.73H171Z" fill="#CCCCCC" stroke="#263238" stroke-linecap="round" stroke-linejoin="round"/>
<path d="M259.482 445.55C259.297 445.546 259.112 445.523 258.932 445.48C253.272 444.04 239.852 440.48 237.592 438.2C235.472 436.08 220.292 392.49 211.432 366.7C211.315 366.42 211.256 366.119 211.26 365.815C211.264 365.511 211.33 365.211 211.454 364.934C211.579 364.657 211.758 364.409 211.983 364.204C212.207 363.999 212.471 363.842 212.758 363.744C213.045 363.645 213.35 363.606 213.653 363.63C213.956 363.653 214.25 363.739 214.519 363.881C214.787 364.023 215.024 364.219 215.213 364.456C215.403 364.693 215.542 364.967 215.622 365.26C224.272 390.46 238.622 431.26 240.812 435.14C242.442 436.27 251.952 439.14 260.022 441.19C260.551 441.316 261.016 441.632 261.326 442.079C261.637 442.526 261.771 443.072 261.704 443.612C261.638 444.152 261.374 444.648 260.964 445.006C260.554 445.363 260.026 445.557 259.482 445.55Z" fill="#CCCCCC" stroke="#263238" stroke-linecap="round" stroke-linejoin="round"/>
<path d="M247.921 447C247.739 447.001 247.557 446.978 247.381 446.93C241.711 445.5 226.001 440.52 223.741 438.25C221.611 436.13 206.431 392.54 197.581 366.75C197.391 366.196 197.428 365.588 197.685 365.061C197.941 364.534 198.397 364.131 198.951 363.94C199.506 363.749 200.113 363.786 200.64 364.043C201.167 364.3 201.571 364.756 201.761 365.31C210.421 390.51 224.761 431.31 226.951 435.19C228.581 436.32 240.391 440.6 248.461 442.64C248.991 442.766 249.455 443.082 249.766 443.529C250.076 443.976 250.211 444.522 250.144 445.062C250.077 445.602 249.813 446.098 249.403 446.456C248.993 446.813 248.466 447.007 247.921 447Z" fill="#CCCCCC" stroke="#263238" stroke-linecap="round" stroke-linejoin="round"/>
<path d="M221.08 439.85V444.21L225.97 445.71V441.26L221.08 439.85Z" fill="white" stroke="#263238" stroke-linecap="round" stroke-linejoin="round"/>
<path d="M225.97 441.26L283.6 433.6L278.72 432.19L221.08 439.85L225.97 441.26Z" fill="white" stroke="#263238" stroke-linecap="round" stroke-linejoin="round"/>
<path d="M225.971 445.71L283.601 438.04V433.6L225.971 441.26V445.71Z" fill="#263238" stroke="#263238" stroke-linecap="round" stroke-linejoin="round"/>
<path d="M201.761 365.26C201.571 364.706 201.167 364.25 200.64 363.993C200.113 363.736 199.506 363.699 198.951 363.89C198.397 364.081 197.941 364.484 197.685 365.011C197.428 365.538 197.391 366.146 197.581 366.7C198.531 369.47 199.581 372.45 200.581 375.55L205.071 374.98L201.761 365.26Z" fill="#263238" stroke="#263238" stroke-linecap="round" stroke-linejoin="round"/>
<path d="M215.622 365.26C215.542 364.967 215.403 364.693 215.213 364.456C215.024 364.219 214.787 364.023 214.519 363.881C214.25 363.739 213.956 363.653 213.653 363.63C213.35 363.606 213.045 363.645 212.758 363.744C212.471 363.842 212.207 363.999 211.983 364.204C211.758 364.409 211.579 364.657 211.454 364.934C211.33 365.211 211.264 365.511 211.26 365.815C211.256 366.119 211.315 366.42 211.432 366.7C212.212 368.96 213.032 371.36 213.902 373.86L218.382 373.28L215.622 365.26Z" fill="#263238" stroke="#263238" stroke-linecap="round" stroke-linejoin="round"/>
<path d="M197.58 366.7C198.53 369.47 199.58 372.45 200.58 375.55H200.76L197.58 366.7Z" fill="#263238" stroke="#263238" stroke-linecap="round" stroke-linejoin="round"/>
<path d="M174.602 321.46C174.602 321.46 99.7016 330.38 95.2416 332.39C90.7816 334.4 90.3316 335.28 90.5616 336.62C90.7916 337.96 90.7816 362.71 92.5616 363.15C94.3416 363.59 166.802 373.15 169.252 372.96C171.702 372.77 255.752 362.04 256.872 360.7C257.992 359.36 258.002 359.36 258.002 358C258.002 356.64 256.662 331.25 255.772 329.47C254.882 327.69 182.202 321.47 178.412 321.47L174.602 321.46Z" fill="#263238" stroke="#263238" stroke-linecap="round" stroke-linejoin="round"/>
<path d="M95.2305 337.23C95.2305 337.23 166.68 344.11 171.92 344.11C177.16 344.11 251.24 332 251.24 332" stroke="#707070" stroke-linecap="round" stroke-linejoin="round"/>
<path d="M132 282.24C132 282.24 141.53 282.1 145.48 283.87C149.43 285.64 152.98 292.18 153.79 298.45C154.6 304.72 156.52 346.8 156.38 351.16C156.24 355.52 153.38 360.7 150.52 362.33C147.66 363.96 141.26 364.98 141.26 364.98C141.26 364.98 147.53 359.33 147.94 354.57C148.35 349.81 145.76 319.83 145.76 319.83L143.76 294.77C143.76 294.77 139.95 288.77 136.95 286.19C133.95 283.61 132 282.24 132 282.24Z" fill="#CCCCCC" stroke="#263238" stroke-linecap="round" stroke-linejoin="round"/>
<path d="M138.701 284C138.701 284 143.231 287.9 144.161 289.62C144.749 290.715 145.221 291.868 145.571 293.06H150.101C150.101 293.06 147.751 286.81 145.261 285.25C142.771 283.69 138.701 284 138.701 284Z" fill="white"/>
<path d="M87.3504 311.73C93.3979 311.73 98.3004 304.804 98.3004 296.26C98.3004 287.716 93.3979 280.79 87.3504 280.79C81.3029 280.79 76.4004 287.716 76.4004 296.26C76.4004 304.804 81.3029 311.73 87.3504 311.73Z" fill="#CCCCCC" stroke="#263238" stroke-linecap="round" stroke-linejoin="round"/>
<path d="M89.29 282.58C86.9834 284.604 85.3562 287.289 84.63 290.27C83.26 295.45 84.22 305.53 84.22 305.94C84.22 306.35 85.85 338.22 86.53 342.04C87.21 345.86 89.53 354.16 94.71 356.2C99.89 358.24 145 361.11 145 361.11C144.245 362.07 143.427 362.979 142.55 363.83C141.32 364.98 138.05 363.83 138.05 363.83L87.79 358.93C87.79 358.93 82.61 357.16 79.62 347.48C76.63 337.8 75.62 305.8 75.62 305.8C75.62 305.8 74.53 292.86 76.62 289.05C78.71 285.24 82.34 281.96 84.62 281.83C86.9 281.7 90.34 281.83 90.34 281.83L89.29 282.58Z" fill="#263238" stroke="#263238" stroke-linecap="round" stroke-linejoin="round"/>
<path d="M139.341 365.11C130.001 365.11 93.3409 361.11 88.4109 359.98C81.8109 358.46 78.1009 347.56 77.3209 343.87C76.4509 339.7 74.4709 303.87 74.4709 300.87C74.4709 300.6 74.4709 300.27 74.4709 299.87C74.4009 296.62 74.2509 289.87 77.9609 284.72C82.0209 279.08 88.6709 280.14 89.6709 280.33C92.3409 280.39 128.871 281.24 133.461 282.55C138.281 283.93 143.961 290.74 144.931 296.29C145.831 301.47 149.331 348.49 148.641 353.29C147.951 358.09 144.961 363.83 141.311 364.88C140.665 365.028 140.004 365.105 139.341 365.11ZM87.3409 282.4C85.874 282.347 84.4163 282.654 83.0952 283.294C81.774 283.933 80.6293 284.887 79.7609 286.07C76.4809 290.63 76.6209 296.88 76.6809 299.88C76.6809 300.27 76.6809 300.61 76.6809 300.88C76.6809 304.06 78.6809 339.59 79.4909 343.39C80.3409 347.39 83.8909 356.65 88.9009 357.8C94.4209 359.07 137.771 363.58 140.681 362.8C143.051 362.12 145.801 357.46 146.431 353.02C147.061 348.58 143.581 301.59 142.731 296.68C141.881 291.77 136.901 285.86 132.831 284.68C129.191 283.68 100.321 282.78 89.5009 282.54H89.2909C88.6406 282.428 87.9806 282.381 87.3209 282.4H87.3409Z" fill="#CCCCCC" stroke="#263238" stroke-linecap="round" stroke-linejoin="round"/>
<path d="M133.441 282.61C133.441 282.61 140.971 283.77 141.981 283.02C142.991 282.27 142.231 277.21 141.101 276.83C139.971 276.45 121.311 275.53 109.101 274.65C96.8914 273.77 88.4914 274.65 87.6114 277.46C86.7314 280.27 90.5114 280.74 90.5114 280.74L130.151 282.26L133.441 282.61Z" fill="#263238" stroke="#263238" stroke-linecap="round" stroke-linejoin="round"/>
<path d="M169.41 397.16V409.59H185.1V398.18L183.06 395.12H169.62L169.41 397.16Z" fill="#263238" stroke="#263238" stroke-linecap="round" stroke-linejoin="round"/>
<path d="M169.62 395.12L174.3 399.2V409.18H169.41L169.62 395.12Z" fill="#CCCCCC" stroke="#263238" stroke-linecap="round" stroke-linejoin="round"/>
<path d="M172.19 400.75L135.05 406.19L125.98 402.66L151.95 398.84L158.82 401.61" stroke="#263238" stroke-width="2" stroke-linecap="round" stroke-linejoin="round"/>
<path d="M289.648 259.7L288.648 314.93L294.909 383.71L297.488 435.77L295.599 440.49C295.599 440.49 293.718 447.09 292.298 448.97C290.878 450.85 274.858 457.46 276.298 462.18C277.738 466.9 289.968 464.06 292.298 464.06C294.628 464.06 306.449 458.88 306.449 458.88C306.449 458.88 313.048 459.35 314.928 456.99C315.713 455.919 316.248 454.686 316.494 453.381C316.74 452.076 316.69 450.733 316.349 449.45C315.879 447.09 315.879 440.45 315.879 436.24C315.879 432.03 314.928 422.57 314.928 421.16C314.928 419.75 320.118 326.39 320.118 326.39L325.298 304.7L334.729 336.29L342.729 411.73L343.669 438.6L346.029 447.09C346.029 447.09 346.499 456.52 346.969 457.93C347.439 459.34 354.519 465 357.819 466.93C361.119 468.86 373.819 471.65 374.819 466.46C375.819 461.27 371.989 455.62 369.159 452.79L366.328 449.96C366.328 449.96 364.919 440.53 364.449 437.7C363.979 434.87 362.559 435.81 363.029 431.57C363.499 427.33 363.979 366.03 363.979 359.43C363.979 352.83 366.798 300.03 365.858 293.43C364.918 286.83 363.439 258 363.439 258L291.779 251.4L289.648 259.7Z" fill="#263238" stroke="#263238" stroke-linecap="round" stroke-linejoin="round"/>
<path d="M308 151.53L292.21 161.3C292.21 161.3 295.95 173.76 293.04 186.02C290.13 198.28 289.51 202.85 289.51 202.85L290.34 243.78L287.84 261.85C287.84 261.85 299.48 264.97 304.67 266.63C309.86 268.29 320.25 271.2 320.25 271.2L324.62 262.06L327.52 271.61C327.52 271.61 343.31 271.61 348.92 269.33C354.53 267.05 366.58 260.81 366.58 260.81L362.84 211.16V199.32L361.6 157.56L346.6 152.36L340.99 149.66L310.24 150.29L308 151.53Z" fill="#263238" stroke="#263238" stroke-linecap="round" stroke-linejoin="round"/>
<path d="M361.569 157.56C361.569 157.56 368.929 159.21 373.249 165.38C377.569 171.55 390.129 197.91 390.129 197.91C390.129 197.91 394.039 206.35 395.479 209.03L396.929 211.71C396.929 211.71 399.399 219.32 398.159 223.03C396.919 226.74 390.159 229.41 388.069 230.03C385.968 230.512 383.836 230.846 381.689 231.03L373.869 216.03L362.339 196.03C362.339 196.03 360.999 159.41 361.569 157.56Z" stroke="#263238" stroke-linecap="round" stroke-linejoin="round"/>
<path d="M397.099 212.28C396.999 211.92 396.929 211.71 396.929 211.71L395.479 209C394.039 206.32 390.129 197.88 390.129 197.88C390.129 197.88 377.569 171.53 373.249 165.35C368.929 159.17 361.569 157.53 361.569 157.53C360.999 159.38 362.339 196.03 362.339 196.03L372.409 213.47C378.049 212.27 388.999 210.41 397.099 212.28Z" fill="#FBA300" stroke="#263238" stroke-linecap="round" stroke-linejoin="round"/>
<path d="M383.54 205.94C375.93 209.44 372.41 213.5 372.41 213.5" stroke="#263238" stroke-linecap="round" stroke-linejoin="round"/>
<path d="M386.43 204.71C386.43 204.71 390.54 204.5 392.43 205.32" stroke="#263238" stroke-linecap="round" stroke-linejoin="round"/>
<path d="M362.34 196.06L365.63 174.24" stroke="#263238" stroke-linecap="round" stroke-linejoin="round"/>
<path d="M368.509 173.62L365.629 187" stroke="#263238" stroke-linecap="round" stroke-linejoin="round"/>
<path d="M331.46 175.62L348.34 152.97L346.61 152.37L341 149.66L310.25 150.29L307.97 151.53L303.43 154.34L326.06 181.64L331.46 175.62Z" fill="#FBA300" stroke="#263238" stroke-linecap="round" stroke-linejoin="round"/>
<path d="M318.449 154.63L322.009 157.33L325.199 162.24L322.259 176.73L326.059 181.64L331.459 175.62L327.289 162L328.639 157.21L333.549 154.63L325.449 147.02L319.929 152.79L318.449 154.63Z" fill="#263238" stroke="#263238" stroke-linecap="round" stroke-linejoin="round"/>
<path d="M312.08 137.94L312.24 145.88L325.19 155.1L336.52 145.07L335.71 135.19L312.08 137.94Z" fill="white" stroke="#263238" stroke-linecap="round" stroke-linejoin="round"/>
<path d="M315.109 98.5C315.109 98.5 308.019 101.92 306.059 107.3C304.099 112.68 307.529 133.95 308.749 135.67C309.969 137.39 317.589 145.11 320.749 145.84C323.909 146.57 328.079 145.6 329.309 145.35C330.539 145.1 336.609 137.35 337.589 134.93C338.569 132.51 339.539 111.21 337.829 106.08C336.119 100.95 325.809 94.37 315.109 98.5Z" fill="white" stroke="#263238" stroke-linecap="round" stroke-linejoin="round"/>
<path d="M305.579 120.19C304.828 120.221 304.113 120.519 303.563 121.031C303.013 121.542 302.664 122.234 302.579 122.98C302.059 125.77 307.119 131.52 307.119 131.52L305.579 120.19Z" fill="white" stroke="#263238" stroke-linecap="round" stroke-linejoin="round"/>
<path d="M339.239 118.09C339.239 118.09 342.379 115.82 342.379 119.49C342.379 123.16 338.549 129.78 338.549 129.78L339.239 118.09Z" fill="white" stroke="#263238" stroke-linecap="round" stroke-linejoin="round"/>
<path d="M318.598 115.44C317.204 114.948 315.714 114.789 314.247 114.975C312.78 115.161 311.376 115.686 310.148 116.51" stroke="#263238" stroke-linecap="round" stroke-linejoin="round"/>
<path d="M325 114.1C325 114.1 331.31 112.1 333.45 114.5" stroke="#263238" stroke-linecap="round" stroke-linejoin="round"/>
<path d="M319.799 127.51C319.799 127.51 322.889 128.85 324.229 128.59C325.242 128.312 326.197 127.854 327.049 127.24" stroke="#263238" stroke-linecap="round" stroke-linejoin="round"/>
<path d="M317.52 133.42C317.52 133.42 324.9 135.16 329.06 132.21" stroke="#263238" stroke-linecap="round" stroke-linejoin="round"/>
<path d="M315.379 121.61C315.97 121.61 316.449 120.921 316.449 120.07C316.449 119.219 315.97 118.53 315.379 118.53C314.788 118.53 314.309 119.219 314.309 120.07C314.309 120.921 314.788 121.61 315.379 121.61Z" fill="#263238"/>
<path d="M328.92 120.6C329.511 120.6 329.99 119.911 329.99 119.06C329.99 118.209 329.511 117.52 328.92 117.52C328.329 117.52 327.85 118.209 327.85 119.06C327.85 119.911 328.329 120.6 328.92 120.6Z" fill="#263238"/>
<path d="M318.459 121.34C317.619 122.541 316.577 123.586 315.379 124.43" stroke="#263238" stroke-linecap="round" stroke-linejoin="round"/>
<path d="M326.379 120.94C327.896 121.71 329.463 122.378 331.069 122.94" stroke="#263238" stroke-linecap="round" stroke-linejoin="round"/>
<path d="M338.79 117.54C338.79 112.64 338.53 108.1 337.85 106.08C336.14 100.94 325.85 94.37 315.11 98.5C315.11 98.5 308.02 101.92 306.06 107.3C305.31 109.37 305.35 113.81 305.77 118.58L305.85 118.66C305.85 118.66 309.21 115.66 308.94 113.83C308.67 112 307.6 109.27 307.6 107.66C307.6 106.05 309.07 101.22 312.16 100.95C315.25 100.68 320.88 104.44 323.42 103.77C325.96 103.1 328.52 100.95 331.07 100.55C332.185 100.46 333.292 100.799 334.165 101.498C335.039 102.197 335.613 103.202 335.77 104.31C335.77 105.92 334.69 111.01 335.09 112.31C336.012 114.419 337.043 116.478 338.18 118.48L338.79 117.54Z" fill="#263238" stroke="#263238" stroke-linecap="round" stroke-linejoin="round"/>
<path d="M321.63 152.51L315.15 161.09L305.77 151.71L310.95 144.58L321.63 152.51Z" fill="#FBA300" stroke="#263238" stroke-linecap="round" stroke-linejoin="round"/>
<path d="M329.08 151.71L335.71 160.28L342.68 148.79L337.36 143.34L329.08 151.71Z" fill="#FBA300" stroke="#263238" stroke-linecap="round" stroke-linejoin="round"/>
<path d="M292.179 161.3C292.179 161.3 284.279 164.41 280.959 167.53C277.639 170.65 272.229 182.7 272.229 183.53C272.229 184.36 256.439 210.12 256.439 210.12L216.759 242.53C216.759 242.53 205.339 241.53 204.299 241.91C203.259 242.29 199.299 242.32 197.649 242.32C195.999 242.32 194.529 242.94 194.949 244.19C195.369 245.44 199.099 245.85 199.099 245.85L204.019 247.73L196.399 255C196.399 255 187.259 261.65 187.049 262.69C186.839 263.73 187.469 263.69 188.919 263.31C190.369 262.93 196.449 259.87 196.449 259.87C196.449 259.87 188.729 265.53 188.869 266.22C189.009 266.91 189.139 267.87 190.379 267.6C191.619 267.33 198.659 263.46 198.659 263.46C198.659 263.46 191.209 268.46 192.589 269.53C193.969 270.6 195.349 268.84 195.349 268.84L205.009 264.15C205.009 264.15 198.519 269.67 198.009 269.94C197.499 270.21 199.009 270.77 201.009 270.08C203.009 269.39 210.109 264.42 210.109 264.42C210.109 264.42 213.699 261.94 215.769 260.7C217.839 259.46 221.559 255.32 221.979 254.76C222.399 254.2 265.159 233.52 268.469 229.38C271.779 225.24 289.469 202.86 289.469 202.86C291.43 195.511 292.986 188.06 294.129 180.54C295.789 169.08 292.179 161.3 292.179 161.3Z" fill="white" stroke="#263238" stroke-linecap="round" stroke-linejoin="round"/>
<path d="M272.23 183.53C272.23 184.13 263.91 197.87 259.35 205.35L278 217.35L289.48 202.85C291.441 195.501 292.996 188.05 294.14 180.53C295.79 169.08 292.14 161.3 292.14 161.3C292.14 161.3 284.24 164.41 280.92 167.53C277.6 170.65 272.23 182.7 272.23 183.53Z" fill="#FBA300" stroke="#263238" stroke-linecap="round" stroke-linejoin="round"/>
<path d="M263.309 197.5L282.249 211.29" stroke="#263238" stroke-linecap="round" stroke-linejoin="round"/>
<path d="M280.189 181.85L289.479 202.85L283.689 180.21" stroke="#263238" stroke-linecap="round" stroke-linejoin="round"/>
<path d="M204.84 249.18C204.84 249.18 208.55 252.88 210.84 253.09C213.13 253.3 215.78 251.23 215.78 251.23" stroke="#263238" stroke-linecap="round" stroke-linejoin="round"/>
<path d="M196.449 259.86L201.549 263.38" stroke="#263238" stroke-linecap="round" stroke-linejoin="round"/>
<path d="M343.719 233.19C343.719 233.19 343.799 233.59 343.929 234.3C344.759 238.77 347.769 255.65 347.769 265.58C347.785 272.616 348.675 279.623 350.419 286.44L363.179 283.64L356.799 229.92L343.719 233.19Z" fill="#CCCCCC" stroke="#263238" stroke-linecap="round" stroke-linejoin="round"/>
<path d="M377.659 212.49C377.659 212.49 370.809 213.89 368.939 214.82C367.069 215.75 343.719 221.05 342.629 221.21C341.539 221.37 334.529 219.21 333.129 219.21C331.729 219.21 323.479 221.21 322.389 221.21C321.299 221.21 319.269 219.65 318.959 220.74C318.783 221.218 318.749 221.736 318.861 222.233C318.972 222.73 319.225 223.184 319.589 223.54L320.359 224.32C320.359 224.32 318.499 226.32 318.649 227.59C318.877 228.669 319.243 229.715 319.739 230.7L321.739 231.01C321.739 231.01 326.869 239.11 327.959 239.73C329.049 240.35 331.699 240.36 336.839 239.89C341.979 239.42 347.119 235.37 347.119 235.37L381.659 231.06C381.659 231.06 391.659 230.28 394.919 226.66C396.149 225.268 397.076 223.635 397.639 221.865C398.202 220.095 398.389 218.227 398.189 216.38C397.935 214.78 397.502 213.214 396.899 211.71C396.899 211.71 382.799 210.46 377.659 212.49Z" fill="white" stroke="#263238" stroke-linecap="round" stroke-linejoin="round"/>
<path d="M321.77 231.01L327.53 230.39" stroke="#263238" stroke-linecap="round" stroke-linejoin="round"/>
<path d="M320.359 224.32L324.409 221.67" stroke="#263238" stroke-linecap="round" stroke-linejoin="round"/>
<path d="M346.059 221.05C346.059 221.05 351.189 226.34 351.819 231.95C352.449 237.56 358.039 275.39 359.129 281.77C360.219 288.15 361.629 294.7 361.629 294.7C361.629 294.7 377.509 290.18 382.329 286.76C387.149 283.34 394.169 279.44 394.169 279.44C394.169 279.44 388.559 245.65 387.629 238.33C386.699 231.01 387.629 221.33 383.419 217C379.209 212.67 376.419 212.33 376.419 212.33L346.059 221.05Z" fill="white" stroke="#263238" stroke-linecap="round" stroke-linejoin="round"/>
<path d="M417.159 317.68C417.159 317.68 415.009 323.61 410.429 324.41C405.849 325.21 397.779 316.34 402.899 311.76C408.019 307.18 414.999 314.46 417.159 317.68Z" fill="#FBA300" stroke="#263238" stroke-width="0.75" stroke-linecap="round" stroke-linejoin="round"/>
<path d="M424.16 288.62C424.16 288.62 417.43 305.04 420.16 313.11C422.89 321.18 439.54 327.11 444.39 316.61C449.24 306.11 438.47 291.31 434.39 288.08C430.31 284.85 425.51 285.93 424.16 288.62Z" fill="#FBA300" stroke="#263238" stroke-width="0.75" stroke-linecap="round" stroke-linejoin="round"/>
<path d="M463.46 295.62C463.46 295.62 451.88 306.11 450.54 316.62C449.2 327.13 457 330.88 465.07 329.54C473.14 328.2 477.18 307.74 474.76 298.32C472.34 288.9 463.46 295.62 463.46 295.62Z" fill="#FBA300" stroke="#263238" stroke-width="0.75" stroke-linecap="round" stroke-linejoin="round"/>
<path d="M465.608 353.75C465.608 353.75 452.688 354.29 452.148 360.48C451.608 366.67 457.798 368 463.998 362.63C470.198 357.26 470.998 354 465.608 353.75Z" fill="#FBA300" stroke="#263238" stroke-width="0.75" stroke-linecap="round" stroke-linejoin="round"/>
<path d="M452.369 362C452.369 362 462.549 357.35 467.129 356.54" stroke="#263238" stroke-width="0.75" stroke-miterlimit="10"/>
<path d="M468.488 394.25C468.488 394.25 458.998 385.47 454.228 389.45C449.458 393.43 452.868 398.78 461.048 399.37C469.228 399.96 472.088 398.26 468.488 394.25Z" fill="#FBA300" stroke="#263238" stroke-width="0.75" stroke-linecap="round" stroke-linejoin="round"/>
<path d="M453.328 390.65C453.328 390.65 463.818 394.58 467.618 397.26" stroke="#263238" stroke-width="0.75" stroke-miterlimit="10"/>
<path d="M418.429 391.67C418.429 391.67 431.509 379.56 438.089 385.05C444.669 390.54 439.959 397.9 428.689 398.72C417.419 399.54 413.459 397.19 418.429 391.67Z" fill="#FBA300" stroke="#263238" stroke-width="0.75" stroke-linecap="round" stroke-linejoin="round"/>
<path d="M439.319 386.69C439.319 386.69 424.869 392.12 419.629 395.82" stroke="#263238" stroke-width="0.75" stroke-miterlimit="10"/>
<path d="M433.58 366.67C433.58 366.67 432.24 373.13 427.39 375.55C422.54 377.97 413.93 372.86 418.51 365.05C423.09 357.24 431.16 363.44 433.58 366.67Z" fill="#FBA300" stroke="#263238" stroke-width="0.75" stroke-linecap="round" stroke-linejoin="round"/>
<path d="M422.279 346.48C422.279 346.48 419.849 341.1 410.429 344.6C401.009 348.1 397.249 353.48 403.169 355.36C409.089 357.24 422.279 346.48 422.279 346.48Z" fill="#FBA300" stroke="#263238" stroke-width="0.75" stroke-linecap="round" stroke-linejoin="round"/>
<path d="M420.47 346.24C420.47 346.24 410.47 347.32 405.1 351.9" stroke="#263238" stroke-width="0.75" stroke-miterlimit="10"/>
<path d="M449.189 281.89C449.189 281.89 450.809 285.66 454.039 284.89C457.269 284.12 458.039 279.24 463.189 280.58C468.339 281.92 472.609 287.85 472.609 285.16C472.609 282.47 466.149 275.47 458.879 275.47C451.609 275.47 449.459 278.39 449.189 281.89Z" fill="#FBA300" stroke="#263238" stroke-width="0.75" stroke-linecap="round" stroke-linejoin="round"/>
<path d="M422.279 346.48C422.279 346.48 433.869 344.26 438.689 357.13C439.175 358.417 439.579 359.733 439.899 361.07" stroke="#263238" stroke-width="0.75" stroke-miterlimit="10"/>
<path d="M470.639 334C470.639 334 473.069 328.61 482.489 332.11C491.909 335.61 495.669 340.99 489.749 342.88C483.829 344.77 470.639 334 470.639 334Z" fill="#FBA300" stroke="#263238" stroke-width="0.75" stroke-linecap="round" stroke-linejoin="round"/>
<path d="M472.799 334.37C472.799 334.37 482.499 333.83 487.089 339.5" stroke="#263238" stroke-width="0.75" stroke-miterlimit="10"/>
<path d="M470.639 334C467.923 333.62 465.154 333.997 462.639 335.09" stroke="#263238" stroke-width="0.75" stroke-miterlimit="10"/>
<path d="M428.449 324.36C422.769 318.56 417.159 317.68 417.159 317.68C417.159 317.68 408.879 315.49 405.639 318.46" stroke="#263238" stroke-width="0.75" stroke-miterlimit="10"/>
<path d="M429.61 294.55L429.1 292.3" stroke="#263238" stroke-width="0.75" stroke-miterlimit="10"/>
<path d="M442.709 413.53C442.709 413.53 443.919 367.18 442.709 353.11C441.499 339.04 435.879 322.54 435.879 322.54L430.139 296.93" stroke="#263238" stroke-width="0.75" stroke-miterlimit="10"/>
<path d="M466.629 304.5L467.669 302.28" stroke="#263238" stroke-width="0.75" stroke-miterlimit="10"/>
<path d="M445.529 413.48C445.529 413.48 445.929 371.2 447.529 359.14C449.129 347.08 455.529 328.14 455.529 328.14L465.459 307" stroke="#263238" stroke-width="0.75" stroke-miterlimit="10"/>
<path d="M452.369 362C452.369 362 449.549 386.24 447.939 413.59" stroke="#263238" stroke-width="0.75" stroke-miterlimit="10"/>
<path d="M438.689 413.48C438.689 413.48 439.499 374.82 437.889 369.59C436.279 364.36 433.579 366.67 433.579 366.67C433.579 366.67 426.139 367.54 423.439 371.86" stroke="#263238" stroke-width="0.75" stroke-miterlimit="10"/>
<path d="M440.539 364.08C442.639 375.87 440.699 413.52 440.699 413.52" stroke="#263238" stroke-width="0.75" stroke-miterlimit="10"/>
<path d="M460.339 336.37C457.483 338.425 455.346 341.325 454.229 344.66C449.399 357.53 449.949 413.54 449.949 413.54" stroke="#263238" stroke-width="0.75" stroke-miterlimit="10"/>
<path d="M429.859 325.9C432.881 329.549 435.195 333.731 436.679 338.23C443.119 356.73 445.529 404.63 444.319 413.48" stroke="#263238" stroke-width="0.75" stroke-miterlimit="10"/>
<path d="M446.199 343.21C445.809 366.56 445.529 413.48 445.529 413.48" stroke="#263238" stroke-width="0.75" stroke-miterlimit="10"/>
<path d="M446.25 340.3C446.51 324.86 446.82 309.75 447.14 301.63C447.94 280.72 449.19 281.89 449.19 281.89C449.19 281.89 450.68 277.19 459.04 277.73" stroke="#263238" stroke-width="0.75" stroke-miterlimit="10"/>
<path d="M435.999 357.93C435.999 357.93 429.269 351.93 431.999 348.98C434.729 346.03 451.379 343.87 456.219 347.7C461.059 351.53 450.299 356.95 446.269 358.13C442.239 359.31 437.289 358.92 435.999 357.93Z" fill="#FBA300" stroke="#263238" stroke-width="0.75" stroke-linecap="round" stroke-linejoin="round"/>
<path d="M442.16 353C442.066 353.592 442.016 354.19 442.01 354.79" stroke="#263238" stroke-width="0.75" stroke-miterlimit="10"/>
<path d="M444.48 346C443.784 347.434 443.206 348.922 442.75 350.45" stroke="#263238" stroke-width="0.75" stroke-miterlimit="10"/>
<path d="M435.999 397.16C435.999 397.16 429.269 391.16 431.999 388.16C434.729 385.16 451.379 383.05 456.219 386.88C461.059 390.71 450.299 396.13 446.269 397.31C442.239 398.49 437.289 398.15 435.999 397.16Z" fill="#FBA300" stroke="#263238" stroke-width="0.75" stroke-linecap="round" stroke-linejoin="round"/>
<path d="M444.48 385.25C444.48 385.25 442 390.17 442 394" stroke="#263238" stroke-width="0.75" stroke-miterlimit="10"/>
<path d="M440.999 380.57C440.999 380.57 436.429 376.5 438.259 374.5C440.089 372.5 451.409 371.02 454.699 373.63C457.989 376.24 450.699 379.9 447.939 380.71C445.179 381.52 441.869 381.24 440.999 380.57Z" fill="#FBA300" stroke="#263238" stroke-width="0.75" stroke-linecap="round" stroke-linejoin="round"/>
<path d="M446.748 372.48C445.813 374.356 445.243 376.392 445.068 378.48" stroke="#263238" stroke-width="0.75" stroke-miterlimit="10"/>
<path d="M452.849 406.81H434.639V447.2H452.849V406.81Z" fill="#263238" stroke="#263238" stroke-width="0.75" stroke-linecap="round" stroke-linejoin="round"/>
</svg>
