<svg width="768" height="758" viewBox="0 0 768 758" fill="none" xmlns="http://www.w3.org/2000/svg">
<g clip-path="url(#clip0_5462_9681)">
<path d="M768 21H0V779H768V21Z" fill="white"/>
<path d="M472.483 554.032C417.752 491.116 328.348 459.938 245.978 475.042C222.824 479.287 200.024 487.059 180.721 500.436C161.418 513.814 145.794 533.146 139.611 555.687C131.24 586.209 141.955 621.064 166.069 641.756C183.248 656.498 205.577 663.811 227.635 669.188C271.171 679.8 316.233 684.232 361.021 682.305C387.436 681.168 414.236 677.698 438.251 666.726C460.424 656.596 481.204 638.053 492.362 616.227C503.825 593.804 487.15 570.892 472.483 554.032Z" fill="#FFA500" fill-opacity="0.07"/>
<path d="M571.702 519.226C581.778 503.347 593.94 488.37 609.701 478C625.462 467.629 645.233 462.263 663.649 466.534C682.064 470.805 698.299 485.898 700.826 504.495C702.695 518.257 697.315 531.915 691.274 544.44C677.082 573.864 657.752 602.086 629.761 619.197C607.494 632.809 560.283 646.833 547.545 614.15C535.841 584.12 556.063 543.874 571.702 519.226Z" fill="#FFA500" fill-opacity="0.07"/>
<path d="M300.09 81.1035C335.521 79.4207 371.296 80.3804 406.547 82.2041C452.475 84.5797 498.698 88.3227 542.935 100.798C592.626 114.81 642.246 141.12 672.462 183.95C702.241 226.159 720.518 291.298 700.292 340.856C686.531 374.574 656.253 398.545 626.164 419.332C596.077 440.12 564.044 460.169 543.541 490.326C539.654 496.045 536.159 502.151 531.054 506.834C525.948 511.516 518.715 514.617 512.01 512.792C506.871 511.393 502.909 507.409 499.369 503.457C486.807 489.435 476.037 473.634 461.387 461.776C433.839 439.48 396.598 434.052 361.35 429.448C321.631 424.261 281.913 419.065 242.192 413.885C210.837 409.795 173.792 404.959 144.766 392.338C98.2732 372.122 66.0311 324.925 60.1943 274.894C53.1886 214.85 82.1606 140.731 139.566 115.241C190.005 92.8434 244.625 83.7368 300.09 81.1035Z" fill="#FFA500" fill-opacity="0.07"/>
<path d="M458.241 692.203H429.965C425.615 692.203 422.087 688.704 422.087 684.386V496.243C422.087 491.927 418.56 488.427 414.209 488.427H302.087" stroke="#FA6800" stroke-miterlimit="10" stroke-linecap="round" stroke-linejoin="round"/>
<path d="M466.703 667.017H438.427C434.077 667.017 430.549 663.519 430.549 659.201V480.216C430.549 475.9 427.022 472.399 422.67 472.399H310.549" stroke="#FA6800" stroke-miterlimit="10" stroke-linecap="round" stroke-linejoin="round"/>
<path d="M457.471 635.726H420.239C416.606 635.726 413.66 632.803 413.66 629.199V501.966C413.66 497.65 410.134 494.149 405.782 494.149H268.242" stroke="#FA6800" stroke-miterlimit="10" stroke-linecap="round" stroke-linejoin="round"/>
<path d="M330.784 703.979L358.272 508.418C358.324 507.775 359.264 507.742 359.363 508.38L389.33 703.979" stroke="#021627" stroke-width="2" stroke-miterlimit="10" stroke-linecap="round" stroke-linejoin="round"/>
<path d="M183.222 702.498L214.355 574.91L261.731 702.498" stroke="#021627" stroke-width="2" stroke-miterlimit="10" stroke-linecap="round" stroke-linejoin="round"/>
<path d="M114.168 520.96C113.862 520.126 113.533 519.305 113.255 518.454C113.533 519.305 113.839 520.138 114.168 520.96Z" fill="#FA6800"/>
<path d="M123.932 452.352C127.543 460.767 131.564 468.996 135.526 477.251C139.722 485.996 143.997 494.594 149.298 502.75C160.217 519.555 174.03 534.427 189.353 547.366C205.864 561.308 224.846 572.093 244.279 581.477C244.439 581.555 244.602 581.626 244.762 581.703C240.728 581.856 236.691 581.879 232.667 581.75C224.615 581.491 216.619 580.502 208.69 579.08C215.74 580.906 222.883 582.273 230.358 582.514C242.614 582.908 254.977 582.021 267.015 579.681C278.957 577.358 290.987 573.596 301.176 566.828C305.79 563.763 310.012 560.011 313.246 555.51C314.983 553.09 316.393 550.484 317.483 547.751C317.41 547.455 317.364 547.155 317.282 546.861C311.396 525.552 292.636 522.776 275.835 513.313C258.112 503.33 242.947 488.86 232.361 471.572C222.542 455.537 216.774 437.568 208.925 420.592C201.601 404.753 192.094 396.584 175.322 390.766C162.88 386.45 149.138 383.491 136.647 387.663C125.511 391.383 117.28 400.238 112.002 410.835C112.887 425.17 118.399 439.457 123.932 452.352Z" fill="#FA6800"/>
<path d="M300.604 488.813C300.693 480.474 300.451 472.889 302.627 464.587C305.509 453.595 314.054 447.592 324.71 444.203C327.051 443.459 329.627 442.925 331.933 443.773C334.598 444.751 336.298 447.358 337.335 449.982C340.686 458.472 338.941 468 337.152 476.943C333.146 496.966 329.139 516.989 325.133 537.013C324.902 538.166 324.567 539.466 323.523 540.021C322.721 540.447 321.746 540.292 320.855 540.116C311.854 538.336 303.068 535.489 294.743 531.657C298.239 533.267 300.584 490.681 300.604 488.813Z" fill="#F9F8FA"/>
<path d="M322.454 607.064C329.117 605.203 332.452 604.613 338.892 602.089C338.903 631.175 343.021 680.219 342.886 688.59C334.613 689.518 328.14 692.547 319.772 692.638C313.21 682.555 310.535 654.018 306.827 642.988C305.97 640.438 302.231 627.703 298.055 613.209C306.245 611.388 314.376 609.322 322.454 607.064Z" fill="#F9F8FA"/>
<path d="M307.149 548.712C316.685 550.892 326.472 551.893 336.141 553.307C341.235 554.053 351.649 556.927 356.453 553.395C362.53 548.93 352.577 546.321 348.073 543.823C340.318 539.522 332.452 535.423 324.634 531.239C317.413 527.373 308.14 519.133 300.773 527.105C296.036 532.232 295.494 540.412 294.955 546.987C299.088 547.131 303.09 547.784 307.149 548.712Z" fill="#021627"/>
<path d="M152.895 514.604C157.305 500.79 177.264 497.623 189.585 498.604C215.223 500.643 240.938 501.266 266.436 503.335C287.206 505.021 309.813 509.478 324.094 525.909C335.766 539.336 337.65 557.814 340.954 574.642C347.073 605.8 348.784 635.014 348.071 666.583C348.054 667.326 348.021 668.12 347.577 668.717C346.996 669.498 345.919 669.686 344.952 669.815C332.761 671.434 320.568 673.053 308.377 674.672C307.653 674.768 306.867 674.851 306.242 674.478C305.558 674.069 305.28 673.238 305.057 672.477C303.154 665.978 278.007 566.545 279.781 566.265C258.727 569.579 242.078 568.617 220.829 566.924C205.813 565.728 190.535 563.154 177.433 555.775C164.77 548.641 147.794 530.585 152.895 514.604Z" fill="#021627"/>
<path d="M146.782 509.199C148.295 511.45 148.178 513.499 148.934 514.723C152.79 514.672 156.657 514.731 160.513 514.79C170.62 514.943 180.819 515.086 190.763 513.013C199.411 511.211 208.011 508.597 216.342 505.694C229.205 501.211 241.267 498.051 240.321 482.421C239.132 462.276 236.678 436.895 242.408 417.248C244.722 409.318 245.976 403.407 249.44 395.899C250.392 393.836 251.348 391.711 251.483 389.446C251.58 387.828 251.253 386.215 250.861 384.64C244.462 358.859 222.737 358.547 199.688 356.524C196.118 356.211 192.501 355.9 188.969 356.499C184.613 357.238 179.529 358.513 175.74 360.768C155.538 372.793 154.171 392.995 148.089 413.864C145.052 424.288 140.292 434.156 137.245 444.578C130.741 466.833 133.756 489.816 146.782 509.199Z" fill="#FA6800"/>
<path d="M348.557 688.29C351.036 689.665 354.745 690.486 357.402 691.281C364.271 693.333 371.389 694.492 378.165 696.863C381.717 698.107 385.11 702.514 381.246 705.639C379.562 707 377.288 707.344 375.129 707.591C357.94 709.562 340.563 708.603 323.286 707.641C322.346 707.59 321.316 707.499 320.648 706.841C320.268 706.467 320.061 705.959 319.869 705.461C317.768 700.001 316.322 693.899 314.997 688.318C317.313 687.758 319.763 688.716 322.09 688.892C325.11 689.117 328.41 689.355 331.163 687.85C334.882 685.817 338.299 683.243 341.273 680.237C341.551 679.956 341.835 679.665 342.201 679.518C343.403 679.035 344.583 680.326 344.99 681.55C345.783 683.933 345.824 686.601 348.097 688.023C348.248 688.114 348.4 688.203 348.557 688.29Z" fill="#021627"/>
<path d="M299.875 483.285C299.669 480.453 299.889 477.826 302.555 476.83C306.234 475.456 307.477 477.398 309.828 473.616C314.358 466.328 317.574 457.223 320.64 449.235C324.334 439.609 331.3 427.047 330.934 416.704C330.916 416.165 330.87 415.597 330.552 415.162C330.182 414.655 329.532 414.448 328.922 414.288C323.491 412.879 317.783 413.023 312.181 413.38C275.244 415.736 254.621 455.472 237.149 482.686C234.515 486.79 219.166 506.542 215.135 506.225C229.253 507.333 240.123 514.428 253.18 518.342C261.195 520.744 270.01 527.835 277.509 528.853C279.933 529.182 289.822 511.147 291.264 508.785C295.046 502.594 300.383 495.535 300.267 488.03C300.243 486.555 299.99 484.887 299.875 483.285Z" fill="#021627"/>
<path d="M343.906 486.735C343.069 492.897 342.112 498.832 340.557 504.852C340.422 505.377 340.275 505.923 339.906 506.323C339.321 506.958 338.348 507.05 337.481 507.002C335.65 506.9 333.876 506.37 332.075 506.027C320.863 503.897 302.214 511.379 293.585 501.008C291.851 498.925 291.299 496.132 290.935 493.455C288.299 474.109 294.531 455.208 294.265 435.771C294.124 425.39 298.01 419.125 303.328 410.656C308.429 402.53 315.605 399.769 324.805 402.866C340.308 408.084 349.176 424.381 348.449 439.87C347.715 455.497 346.021 471.173 343.906 486.735Z" fill="#021627"/>
<path d="M199.614 336.468C199.463 338.342 203.417 342.625 204.626 343.976C206.543 346.118 208.776 347.775 211.47 348.828C218.491 351.575 225.849 351.829 231.352 346.086C233.965 343.36 235.741 339.955 237.227 336.496C239.493 331.225 242.656 316.689 241.221 311.138C239.918 306.1 234.473 310.49 229.517 308.8C225.204 307.328 221.921 306.01 217.307 306.806C213.206 307.514 209.252 309.537 206.675 312.839C205.981 313.73 205.352 314.63 204.776 315.532C203.412 318.407 202.156 321.336 201.248 324.386C200.491 326.93 200.234 329.51 199.826 332.086C199.797 333.55 199.731 335.013 199.614 336.468Z" fill="#F9F8FA"/>
<path d="M196.693 369.969C200.772 372.805 205.815 374.681 210.776 375.078C211.73 375.155 223.848 373.812 222.112 371.54C217.565 365.585 220.049 360.282 222.9 353.81C223.338 352.817 227.156 346.704 226.761 346.016C226.649 345.821 226.511 345.639 226.336 345.472C225.422 344.605 224.006 344.628 222.742 344.614C218.011 344.561 213.584 343.081 209.741 340.361C207.913 339.068 206.265 337.543 204.695 335.954C203.797 335.045 202.147 331.878 200.774 331.766C200.643 331.755 200.543 331.822 200.436 331.869C198.823 338.288 198.032 343.901 194.793 350.041C192.284 354.794 186.091 357.147 184.335 357.465C187.106 362.343 192.026 366.725 196.693 369.969Z" fill="#F9F8FA"/>
<path d="M210.295 326.822C210.42 325.836 210.541 324.632 211.456 324.226C212.387 323.812 213.392 324.561 214.389 324.782C217.574 325.488 220.511 322.059 222.333 319.884C222.703 319.443 223.067 319.033 223.434 318.657C225.517 316.526 227.661 315.492 231.203 315.78C234.701 316.065 238.203 317.263 241.647 316.596C245.465 315.856 248.651 312.692 249.545 308.935C250.993 302.852 245.961 294.752 239.022 295.895C237.149 296.202 235.123 297.142 233.478 296.205C232.553 295.679 232.03 294.685 231.394 293.834C228.95 290.567 224.162 289.271 220.385 290.855C219.39 291.272 218.467 291.864 217.435 292.18C215.458 292.785 213.335 292.323 211.271 292.212C208.828 292.082 206.276 292.494 204.263 293.874C202.251 295.253 200.903 297.733 201.339 300.121C201.466 300.823 201.741 301.519 201.649 302.227C201.328 304.716 197.336 304.813 196.143 307.027C195 309.149 197.087 311.76 196.497 314.094C196.146 315.483 194.883 316.562 194.737 317.987C194.557 319.752 196.192 320.987 196.895 322.458C197.674 324.083 198.404 326.212 198.563 327.994C198.892 331.668 196.651 335.618 202.127 335.157C206.63 334.775 209.742 331.217 210.295 326.822Z" fill="#002440"/>
<path d="M279.489 421.622C281.65 424.193 283.42 426.842 289.637 426.435C297.534 425.918 305.219 421.939 309.728 415.41C310.982 413.595 312.012 411.574 312.31 409.396C314.104 396.275 299.219 387.773 289.719 382.464C278.83 376.38 267.052 372.102 255.182 368.333C244.653 364.989 233.652 359.183 222.315 360.082C222.02 360.104 221.712 360.159 221.417 360.236C221.539 361.692 221.614 363.152 221.626 364.61C226.807 372.695 230.025 382.282 232.117 391.604C233.47 397.63 236.489 404.584 235.874 410.801C248.413 412.511 260.879 414.75 273.224 417.515C276.439 418.232 278.05 419.911 279.489 421.622Z" fill="#FA6800"/>
<path d="M298.391 393.85C293.588 394.386 289.562 397.956 287.23 402.157C284.899 406.358 283.977 411.164 283.088 415.879C280.547 429.35 279.719 444.972 275.167 457.887C272.339 465.91 261.335 476.978 266.777 486.132C268.373 488.815 271.744 490.332 274.83 489.756C280.294 488.738 282.841 482.663 285.163 477.653C288.158 471.191 292.603 466.222 296.571 460.549C301.534 453.454 305.128 444.752 308.721 436.915C313.329 426.867 317.41 415.413 313.648 405.026C311.344 398.664 305.189 393.11 298.391 393.85Z" fill="#F9F8FA"/>
<mask id="mask0_5462_9681" style="mask-type:luminance" maskUnits="userSpaceOnUse" x="170" y="331" width="68" height="75">
<path d="M237.516 382.979C237.559 382.769 237.576 382.555 237.604 382.341C236.2 377.335 228.974 377.419 224.913 375.313C224.093 374.887 223.394 374.355 222.787 373.754C222.708 373.674 222.626 373.597 222.549 373.513C221.274 372.141 220.497 370.4 220.195 368.427C218.96 360.367 223.155 353.099 226.76 346.016C226.647 345.821 226.509 345.639 226.333 345.472C225.419 344.605 224.002 344.628 222.738 344.614C218.009 344.561 213.581 343.081 209.738 340.361C207.91 339.068 206.262 337.543 204.692 335.954C203.793 335.045 202.144 331.878 200.77 331.766C200.64 331.755 200.54 331.822 200.432 331.869C198.818 338.288 198.686 344.289 194.789 350.04C193.315 352.215 191.573 354.15 189.504 355.57C188.419 356.601 187.098 357.356 185.281 357.662C184.822 357.739 184.352 357.776 183.876 357.788C183.684 357.815 183.504 357.865 183.308 357.885C183.077 357.908 182.893 357.852 182.729 357.768C179.799 357.642 176.777 356.956 174.523 358.661C173.462 359.466 172.801 360.68 172.284 361.902C168.465 370.915 171.149 382.652 175.975 390.761C179.652 396.939 186.108 402.654 193.132 404.594C199.818 406.442 206.796 404.882 213.157 402.586C215.946 401.579 218.597 400.58 221.144 399.419C228.805 395.927 235.416 392.037 237.422 383.417C237.453 383.272 237.487 383.126 237.516 382.979Z" fill="white"/>
</mask>
<g mask="url(#mask0_5462_9681)">
<path d="M212.104 348.091C212.286 348.19 212.501 348.278 212.73 348.361C216.716 349.986 221.102 350.984 225.302 350.376C226.354 350.822 226.005 351.675 225.475 353.215C224.733 355.376 224.064 357.562 223.471 359.767C219.594 355.838 215.719 351.907 211.842 347.978C211.929 348.017 212.017 348.055 212.104 348.091Z" fill="#CAC4D0"/>
</g>
<path d="M151.379 375.472C143.441 384.476 140.183 396.616 137.486 407.986C133.999 422.682 130.511 437.378 127.023 452.074C126.204 455.525 125.381 459.003 125.281 462.547C125.12 468.232 126.763 475.466 128.107 480.942C129.833 487.97 134.071 487.537 140.381 486.915C150.359 485.931 163.934 482.937 170.671 474.863C173.874 471.026 174.903 465.896 175.824 460.999C177.093 454.265 178.362 447.531 179.631 440.797C184.815 413.283 189.996 384.902 184.131 357.521C170.157 359.582 159.541 366.217 151.379 375.472Z" fill="#FA6800"/>
<path d="M184.407 402.789C172.872 405.77 173.907 420.414 172.861 429.448C171.318 442.79 168.753 456.017 165.194 468.975" stroke="#002440" stroke-miterlimit="10" stroke-linecap="round" stroke-linejoin="round"/>
<path d="M306.934 435C302.521 453.879 292.417 482.551 292.229 501.93" stroke="#CAC4D0" stroke-width="0.5" stroke-miterlimit="10" stroke-linecap="round" stroke-linejoin="round"/>
<path d="M224.554 337.808C225.244 339.584 226.763 340.884 228.419 341.116C230.076 341.347 231.813 340.505 232.844 338.97" fill="white"/>
<path d="M117.731 497.828C149.675 490.633 176.747 485.376 205.497 498.796C224.219 507.535 236.854 523.811 240.398 541.131C243.943 558.453 238.243 570.587 222.858 578.219" stroke="#002440" stroke-width="4" stroke-miterlimit="10" stroke-linecap="round" stroke-linejoin="round"/>
<path d="M285.3 568.575C284.426 562.007 284.232 553.87 283.358 547.301" stroke="#CAC4D0" stroke-width="0.5" stroke-miterlimit="10" stroke-linecap="round" stroke-linejoin="round"/>
<path d="M292.68 508.284C272.116 505.18 258.884 507.898 232.409 507.898" stroke="#CAC4D0" stroke-width="0.5" stroke-miterlimit="10" stroke-linecap="round" stroke-linejoin="round"/>
<path d="M204.091 326.119C204.091 329.458 206.819 332.164 210.183 332.164C213.548 332.164 216.275 329.458 216.275 326.119C216.275 322.781 213.547 320.075 210.183 320.075C206.818 320.075 204.091 322.781 204.091 326.119Z" fill="#F9F8FA"/>
<path d="M246.192 582.291C246.032 582.214 244.441 581.556 244.281 581.478C224.847 572.094 205.865 561.31 189.355 547.367C174.032 534.428 160.219 519.556 149.299 502.751C143.998 494.593 139.724 485.998 135.527 477.252C131.566 468.996 127.543 460.767 123.934 452.353C118.401 439.458 112.887 425.171 112.004 410.836C109.053 416.759 107.013 423.219 105.93 429.646C101.244 457.473 104.448 491.554 113.255 518.457C113.533 519.307 113.862 520.129 114.168 520.963C120.04 536.972 131.884 551.268 154.052 563.738C193.37 585.855 224.549 582.544 232.601 582.803C236.627 582.929 242.158 582.443 246.192 582.291Z" fill="#002440"/>
<path d="M167.945 456.834C174.13 458.175 180.2 460.137 186.272 461.959C195.914 464.853 205.683 466.522 215.476 469.109C218.259 469.844 221.084 470.561 223.964 470.587C228.915 470.634 233.696 468.646 238.647 468.539C245.267 468.394 251.733 472.06 255.331 477.515C261.389 486.7 251.348 484.24 245.029 484.149C240.101 484.077 235.174 484.006 230.246 483.935C210.874 483.655 192.556 484.629 173.122 486.25C162.566 487.131 144.16 489.585 134.769 483.371C130.205 480.351 122.683 465.654 126.872 461.259C127.657 460.435 128.741 459.972 129.803 459.553C139.306 455.801 149.594 454.432 159.802 455.498C162.546 455.784 165.257 456.251 167.945 456.834Z" fill="#F9F8FA"/>
<path d="M110.312 454.403C110.638 458.323 111.283 462.245 111.913 466.046C112.716 470.898 113.524 475.757 114.73 480.528C115.785 484.708 117.201 488.921 119.951 492.256C124.467 497.735 132.683 499.862 139.412 497.657C144.711 495.922 143.98 494.049 141.722 489.691C137.039 480.654 132.173 471.199 128.15 461.798C124.073 452.27 120.321 443.251 116.979 433.453C116.274 431.385 115.569 429.318 114.959 427.221C114.051 424.096 113.355 420.91 112.881 417.691C113.303 420.554 112.429 424.187 112.143 427.065C111.819 430.339 111.426 433.608 110.964 436.866C110.137 442.681 109.822 448.512 110.312 454.403Z" fill="#002440"/>
<path d="M80.9133 703.979L109.73 508.418C109.784 507.775 110.77 507.742 110.873 508.38L142.287 703.979" stroke="#021627" stroke-width="2" stroke-miterlimit="10" stroke-linecap="round" stroke-linejoin="round"/>
<path d="M377.492 502.249H92.031V510.93H377.492V502.249Z" fill="#FA8900"/>
<path d="M213.046 325.248C212.682 323.069 209.676 321.852 207.881 323.156" stroke="#021627" stroke-width="0.5" stroke-miterlimit="10" stroke-linecap="round" stroke-linejoin="round"/>
<path d="M307.859 502.639H179.376C178.082 502.639 177.033 501.604 177.033 500.327V498.945C177.033 497.668 178.082 496.633 179.376 496.633H307.859C309.152 496.633 310.201 497.668 310.201 498.945V500.327C310.201 501.605 309.152 502.639 307.859 502.639Z" fill="#021627"/>
<path d="M310.618 502.64H196.82L206.723 438.138C207.067 435.899 208.994 434.229 211.232 434.229H316.011C318.715 434.229 320.751 436.633 320.336 439.339L310.618 502.64Z" fill="#021627"/>
<path d="M262.086 466.24L267.023 470.312" stroke="#FA6800" stroke-miterlimit="10" stroke-linecap="round" stroke-linejoin="round"/>
<path d="M255.6 466.24L260.535 470.312" stroke="#FA6800" stroke-miterlimit="10" stroke-linecap="round" stroke-linejoin="round"/>
<path d="M277.432 411.192C277.123 415.411 279.395 420.872 281.318 423.545" stroke="#002440" stroke-miterlimit="10" stroke-linecap="round" stroke-linejoin="round"/>
<path d="M537.216 298.148C535.714 298.582 534.278 299.152 532.923 299.846C533.018 299.946 533.119 300.036 533.206 300.148C534.52 301.875 534.175 304.332 532.433 305.636C530.691 306.94 528.215 306.597 526.9 304.87C526.808 304.748 526.742 304.616 526.665 304.487C525.592 305.597 524.628 306.806 523.788 308.098C523.93 308.14 524.072 308.169 524.211 308.228C526.22 309.071 527.158 311.371 526.309 313.365C525.458 315.358 523.14 316.289 521.133 315.446C520.974 315.379 520.836 315.29 520.693 315.207C520.32 316.692 520.09 318.228 520.016 319.797C520.176 319.756 520.331 319.709 520.498 319.688C522.664 319.423 524.635 320.948 524.903 323.096C525.171 325.244 523.633 327.201 521.469 327.466C521.278 327.489 521.093 327.483 520.907 327.479C521.344 329.004 521.93 330.461 522.642 331.834C522.773 331.704 522.902 331.57 523.054 331.457C524.794 330.153 527.272 330.495 528.587 332.222C529.902 333.949 529.556 336.406 527.814 337.712C527.648 337.836 527.472 337.931 527.293 338.025C528.436 339.118 529.683 340.101 531.02 340.95C531.069 340.759 531.118 340.566 531.198 340.38C532.049 338.386 534.367 337.455 536.374 338.298C538.383 339.143 539.322 341.441 538.472 343.434C538.386 343.636 538.276 343.818 538.162 343.997C539.69 344.373 541.273 344.602 542.887 344.67C542.83 344.473 542.775 344.274 542.749 344.065C542.481 341.917 544.019 339.961 546.183 339.694C548.347 339.429 550.32 340.954 550.588 343.102C550.616 343.322 550.613 343.538 550.604 343.75C552.157 343.304 553.637 342.708 555.034 341.982C554.885 341.84 554.737 341.696 554.61 341.527C553.295 339.801 553.64 337.343 555.382 336.039C557.123 334.736 559.6 335.078 560.915 336.805C561.044 336.975 561.144 337.155 561.241 337.337C562.336 336.197 563.316 334.951 564.164 333.62C563.976 333.571 563.787 333.524 563.603 333.449C561.594 332.604 560.655 330.306 561.506 328.312C562.356 326.319 564.674 325.388 566.683 326.231C566.865 326.308 567.03 326.408 567.194 326.51C567.56 325.007 567.778 323.457 567.839 321.872C567.669 321.916 567.5 321.968 567.319 321.989C565.154 322.254 563.182 320.729 562.913 318.581C562.646 316.433 564.184 314.476 566.348 314.211C566.524 314.189 566.696 314.197 566.87 314.198C566.421 312.691 565.832 311.254 565.113 309.897C564.998 310.007 564.892 310.122 564.761 310.22C563.021 311.524 560.543 311.182 559.228 309.455C557.914 307.728 558.259 305.271 559.999 303.965C560.127 303.87 560.267 303.802 560.402 303.723C559.278 302.665 558.052 301.716 556.743 300.891C556.702 301.027 556.674 301.164 556.616 301.299C555.766 303.291 553.447 304.223 551.439 303.379C549.43 302.536 548.492 300.236 549.341 298.243C549.4 298.106 549.481 297.988 549.552 297.86C548.069 297.504 546.538 297.289 544.976 297.221C545.005 297.351 545.048 297.475 545.065 297.61C545.332 299.758 543.795 301.714 541.63 301.981C539.466 302.246 537.494 300.721 537.225 298.573C537.208 298.432 537.218 298.291 537.216 298.148ZM541.928 305.102C550.75 304.018 558.788 310.237 559.88 318.989C560.972 327.742 554.705 335.717 545.884 336.799C537.061 337.883 529.024 331.664 527.932 322.912C526.84 314.159 533.107 306.185 541.928 305.102Z" fill="#FA6800"/>
<path d="M541.759 340.093C552.399 341.276 562.025 333.647 563.217 323.091C564.409 312.534 556.723 302.985 546.083 301.801C535.443 300.618 525.817 308.244 524.625 318.801C523.432 329.358 531.12 338.911 541.759 340.093ZM531.669 319.72C532.459 313.381 538.6 308.774 545.355 309.452C552.111 310.128 556.964 315.836 556.173 322.174C555.382 328.513 549.244 333.12 542.489 332.443C535.732 331.766 530.878 326.058 531.669 319.72Z" fill="#FA6800"/>
<path d="M407.745 334.034C406.521 334.396 405.35 334.872 404.247 335.456C404.324 335.541 404.409 335.616 404.478 335.712C405.555 337.172 405.278 339.244 403.862 340.34C402.446 341.436 400.424 341.141 399.348 339.681C399.272 339.578 399.217 339.465 399.156 339.356C398.283 340.29 397.5 341.307 396.819 342.396C396.935 342.431 397.051 342.456 397.163 342.507C398.804 343.224 399.575 345.166 398.887 346.845C398.199 348.525 396.311 349.304 394.669 348.589C394.54 348.533 394.428 348.457 394.31 348.386C394.008 349.639 393.826 350.934 393.767 352.256C393.896 352.223 394.024 352.182 394.159 352.165C395.924 351.947 397.537 353.238 397.761 355.051C397.985 356.865 396.736 358.511 394.972 358.731C394.816 358.75 394.666 358.743 394.514 358.74C394.875 360.028 395.356 361.258 395.941 362.418C396.047 362.307 396.151 362.196 396.276 362.099C397.692 361.003 399.713 361.299 400.79 362.759C401.867 364.22 401.59 366.291 400.174 367.387C400.039 367.492 399.894 367.572 399.75 367.651C400.685 368.577 401.704 369.408 402.797 370.128C402.837 369.966 402.876 369.805 402.94 369.647C403.628 367.968 405.518 367.187 407.157 367.904C408.797 368.621 409.568 370.563 408.88 372.243C408.811 372.413 408.72 372.567 408.628 372.717C409.877 373.039 411.166 373.236 412.483 373.296C412.436 373.13 412.391 372.963 412.368 372.786C412.144 370.972 413.394 369.326 415.159 369.106C416.924 368.888 418.537 370.18 418.761 371.993C418.784 372.178 418.781 372.36 418.775 372.54C420.041 372.167 421.248 371.668 422.385 371.059C422.263 370.939 422.142 370.816 422.037 370.674C420.961 369.214 421.237 367.142 422.653 366.045C424.07 364.949 426.091 365.245 427.168 366.705C427.274 366.847 427.355 367.001 427.435 367.155C428.326 366.196 429.121 365.146 429.81 364.026C429.656 363.985 429.502 363.946 429.352 363.879C427.711 363.162 426.94 361.22 427.628 359.54C428.317 357.861 430.204 357.081 431.846 357.797C431.995 357.862 432.13 357.948 432.264 358.033C432.557 356.768 432.733 355.459 432.779 354.122C432.639 354.159 432.502 354.201 432.355 354.219C430.59 354.439 428.977 353.146 428.753 351.333C428.529 349.52 429.779 347.873 431.544 347.653C431.688 347.635 431.828 347.643 431.969 347.644C431.601 346.372 431.115 345.158 430.525 344.012C430.432 344.104 430.346 344.201 430.24 344.283C428.823 345.379 426.802 345.084 425.725 343.624C424.649 342.164 424.925 340.092 426.341 338.995C426.446 338.915 426.558 338.858 426.668 338.792C425.748 337.896 424.747 337.093 423.676 336.394C423.643 336.509 423.619 336.624 423.573 336.737C422.885 338.416 420.996 339.196 419.357 338.48C417.717 337.763 416.946 335.821 417.634 334.141C417.681 334.026 417.747 333.926 417.804 333.82C416.594 333.515 415.345 333.33 414.07 333.27C414.095 333.379 414.13 333.485 414.144 333.598C414.368 335.412 413.119 337.058 411.355 337.276C409.59 337.495 407.977 336.203 407.753 334.391C407.739 334.273 407.746 334.155 407.745 334.034ZM411.606 339.913C418.799 339.02 425.369 344.286 426.283 351.674C427.195 359.061 422.105 365.774 414.912 366.665C407.719 367.558 401.149 362.292 400.235 354.904C399.323 347.517 404.413 340.804 411.606 339.913Z" fill="#FA6800"/>
<path d="M411.763 367.483C419.396 368.383 426.28 362.747 427.112 354.918C427.943 347.091 422.411 339.99 414.78 339.09C407.147 338.189 400.262 343.826 399.431 351.653C398.598 359.48 404.131 366.582 411.763 367.483ZM403.453 352.238C404.071 346.986 408.977 343.184 414.391 343.762C419.806 344.34 423.707 349.08 423.09 354.331C422.472 359.583 417.566 363.385 412.152 362.807C406.737 362.231 402.834 357.489 403.453 352.238Z" fill="#FA6800"/>
<path d="M464.56 295.194C461.917 295.955 459.39 296.959 457.006 298.184C457.173 298.36 457.353 298.519 457.504 298.716C459.817 301.755 459.209 306.079 456.146 308.374C453.083 310.669 448.724 310.066 446.412 307.027C446.249 306.813 446.134 306.579 445.999 306.353C444.11 308.306 442.414 310.433 440.938 312.707C441.185 312.78 441.437 312.833 441.68 312.936C445.214 314.42 446.867 318.466 445.371 321.974C443.875 325.481 439.797 327.121 436.262 325.635C435.984 325.519 435.742 325.361 435.488 325.215C434.831 327.831 434.427 330.532 434.295 333.291C434.574 333.22 434.848 333.137 435.143 333.1C438.952 332.632 442.422 335.317 442.893 339.096C443.365 342.875 440.658 346.318 436.849 346.787C436.516 346.828 436.189 346.815 435.861 346.808C436.632 349.493 437.66 352.055 438.917 354.471C439.147 354.241 439.373 354.007 439.64 353.806C442.703 351.511 447.062 352.114 449.374 355.153C451.687 358.193 451.079 362.517 448.016 364.812C447.724 365.03 447.412 365.198 447.1 365.364C449.111 367.288 451.306 369.014 453.658 370.509C453.744 370.172 453.83 369.834 453.971 369.505C455.467 365.999 459.545 364.359 463.081 365.844C466.615 367.328 468.268 371.376 466.772 374.883C466.62 375.237 466.426 375.559 466.225 375.874C468.916 376.537 471.698 376.94 474.539 377.058C474.438 376.711 474.341 376.362 474.295 375.994C473.824 372.215 476.53 368.772 480.339 368.305C484.149 367.836 487.618 370.521 488.09 374.301C488.138 374.687 488.131 375.065 488.116 375.441C490.85 374.655 493.455 373.608 495.911 372.33C495.65 372.08 495.391 371.826 495.165 371.531C492.852 368.491 493.46 364.168 496.523 361.872C499.585 359.577 503.945 360.181 506.256 363.22C506.484 363.519 506.659 363.837 506.831 364.157C508.758 362.15 510.482 359.958 511.975 357.614C511.645 357.529 511.313 357.447 510.989 357.311C507.454 355.827 505.802 351.78 507.298 348.272C508.794 344.766 512.872 343.126 516.406 344.61C516.729 344.745 517.018 344.923 517.308 345.099C517.95 342.457 518.335 339.727 518.441 336.939C518.14 337.018 517.844 337.107 517.526 337.145C513.717 337.613 510.247 334.928 509.775 331.149C509.304 327.37 512.01 323.927 515.819 323.458C516.13 323.421 516.432 323.434 516.738 323.437C515.95 320.786 514.91 318.256 513.646 315.871C513.445 316.063 513.257 316.267 513.029 316.438C509.966 318.733 505.607 318.13 503.293 315.09C500.98 312.051 501.588 307.727 504.651 305.432C504.877 305.263 505.121 305.142 505.358 305.006C503.378 303.143 501.221 301.473 498.919 300.023C498.847 300.262 498.796 300.503 498.696 300.738C497.2 304.245 493.122 305.885 489.586 304.399C486.052 302.915 484.399 298.869 485.895 295.361C485.998 295.121 486.139 294.912 486.265 294.689C483.656 294.062 480.963 293.683 478.215 293.564C478.267 293.793 478.343 294.012 478.372 294.25C478.843 298.029 476.138 301.472 472.328 301.94C468.518 302.409 465.049 299.724 464.577 295.945C464.546 295.691 464.565 295.444 464.56 295.194ZM473.097 309.375C487.537 307.601 500.691 317.778 502.479 332.104C504.267 346.43 494.01 359.483 479.57 361.257C465.13 363.031 451.976 352.854 450.188 338.526C448.4 324.2 458.657 311.149 473.097 309.375Z" fill="#FA6800"/>
<path d="M472.776 367.045C490.412 369.005 506.367 356.362 508.342 338.864C510.317 321.367 497.578 305.537 479.941 303.576C462.305 301.616 446.349 314.257 444.374 331.754C442.399 349.252 455.14 365.085 472.776 367.045ZM454.872 332.922C456.199 321.167 466.919 312.674 478.766 313.991C490.615 315.309 499.174 325.943 497.847 337.699C496.519 349.454 485.801 357.948 473.953 356.63C462.104 355.313 453.544 344.677 454.872 332.922Z" stroke="#292929" stroke-miterlimit="10" stroke-linecap="round" stroke-linejoin="round"/>
<path d="M327.667 122.338C330.971 118.544 336.748 118.124 340.573 121.401C344.397 124.679 344.82 130.411 341.517 134.205" stroke="#021627" stroke-miterlimit="10" stroke-linecap="round" stroke-linejoin="round"/>
<path d="M353.613 168.21C358.438 168.21 362.35 164.329 362.35 159.542C362.35 154.754 358.438 150.873 353.613 150.873C348.788 150.873 344.876 154.754 344.876 159.542C344.876 164.329 348.788 168.21 353.613 168.21Z" stroke="#021627" stroke-miterlimit="10" stroke-linecap="round" stroke-linejoin="round"/>
<path d="M579.556 189.838C579.37 177.378 590.225 167.751 602.121 168.317C606.258 168.512 610.052 169.872 613.236 172.032C618.191 166.413 625.585 163.003 633.688 163.387C644.804 163.914 655.563 171.373 656.462 181.603C667.346 184.687 675.55 194.697 674.986 206.4C674.637 213.63 671.195 219.987 665.99 224.271C667.306 227.982 667.18 232.344 664.781 236.69C663.495 239.018 661.465 240.906 659.042 242.037C654.608 244.109 650.421 244.005 646.891 242.637L646.61 262.836C646.593 264.048 645.019 264.525 644.323 263.528L633.674 248.278C623.75 252.308 614.845 246.263 614.182 237.319C611.545 238.621 608.557 239.308 605.405 239.159C596.304 238.727 589.133 231.62 588.434 222.838C583.46 225.776 576.969 226.399 570.524 223.197C566.953 221.424 564.147 218.349 562.734 214.643C557.745 201.555 567.417 189.654 579.556 189.838Z" fill="#FA8900"/>
<path d="M652.86 214.561C658.729 214.839 663.626 218.502 665.725 223.558" stroke="#021627" stroke-miterlimit="10" stroke-linecap="round" stroke-linejoin="round"/>
<path d="M588.569 221.357C589.041 211.561 597.427 203.999 607.301 204.466" stroke="#021627" stroke-miterlimit="10" stroke-linecap="round" stroke-linejoin="round"/>
<path d="M578.029 189.857C581.803 189.609 585.324 190.506 588.29 192.221" stroke="#021627" stroke-miterlimit="10" stroke-linecap="round" stroke-linejoin="round"/>
<path d="M598.356 176.242C606.287 176.618 612.409 183.302 612.03 191.17" stroke="#021627" stroke-miterlimit="10" stroke-linecap="round" stroke-linejoin="round"/>
<path d="M610.947 230.47C603.952 231.128 597.744 226.036 597.08 219.094" stroke="#021627" stroke-miterlimit="10" stroke-linecap="round" stroke-linejoin="round"/>
<path d="M570.902 211.984C568.83 206.057 571.994 199.585 577.969 197.529" stroke="#021627" stroke-miterlimit="10" stroke-linecap="round" stroke-linejoin="round"/>
<path d="M658.346 228.634C656.866 233.164 651.966 235.644 647.401 234.176" stroke="#021627" stroke-miterlimit="10" stroke-linecap="round" stroke-linejoin="round"/>
<path d="M637.445 185.088C642.719 181.486 649.358 180.17 656.128 181.537" stroke="#021627" stroke-miterlimit="10" stroke-linecap="round" stroke-linejoin="round"/>
<path d="M660.198 192.479C663.738 195.08 666.06 199.229 666.139 203.936" stroke="#021627" stroke-miterlimit="10" stroke-linecap="round" stroke-linejoin="round"/>
<path d="M621.79 197.927C626.207 197.05 631.07 199.14 633.446 202.939C635.823 206.738 635.552 211.99 632.797 215.528" stroke="#021627" stroke-miterlimit="10" stroke-linecap="round" stroke-linejoin="round"/>
<path d="M620.303 219.506C618.762 220.896 617.977 223.065 618.275 225.111C618.573 227.156 619.948 229.014 621.823 229.913" stroke="#021627" stroke-miterlimit="10" stroke-linecap="round" stroke-linejoin="round"/>
<path d="M507.662 123.604L508.327 187.586L494.815 187.659L494.151 123.676L507.662 123.604Z" fill="#FA6800"/>
<path d="M477.63 134.18L478.186 187.746L464.674 187.819L464.118 134.251L477.63 134.18Z" fill="#FA6800"/>
<path d="M434.06 142.301L434.533 187.981L448.045 187.908L447.57 142.301H434.06Z" fill="#FA6800"/>
<path d="M419.8 163.506L420.054 188.057L406.544 188.129L406.289 163.577L419.8 163.506Z" fill="#FA6800"/>
<path d="M519.596 187.609L400.882 188.339" stroke="#101C59" stroke-miterlimit="10" stroke-linecap="round" stroke-linejoin="round"/>
<path d="M466.669 138.088V152.666" stroke="#021627" stroke-miterlimit="10" stroke-linecap="round" stroke-linejoin="round"/>
<path d="M497.266 160.699V179.114" stroke="#021627" stroke-miterlimit="10" stroke-linecap="round" stroke-linejoin="round"/>
<path d="M408.272 170.291V176.384" stroke="#021627" stroke-miterlimit="10" stroke-linecap="round" stroke-linejoin="round"/>
<path d="M436.834 158.758C436.834 159.628 436.834 160.498 436.834 161.368" stroke="#021627" stroke-miterlimit="10" stroke-linecap="round" stroke-linejoin="round"/>
<path d="M243.88 412.094C244.052 409.713 243.881 407.305 243.375 404.971" stroke="#002440" stroke-miterlimit="10" stroke-linecap="round" stroke-linejoin="round"/>
<path d="M574.876 242.498L544.268 272.867H422.683L384.923 310.965" stroke="#FA6800" stroke-miterlimit="10" stroke-linecap="round" stroke-linejoin="round"/>
<path d="M575.845 255.566L548.576 282.622H441.088L399.464 323.92" stroke="#FA6800" stroke-miterlimit="10" stroke-linecap="round" stroke-linejoin="round"/>
<path d="M546.679 198.695H359.932" stroke="#FA6800" stroke-miterlimit="10" stroke-linecap="round" stroke-linejoin="round"/>
<path d="M541.114 227.406H391.293L359.727 258.725" stroke="#FA6800" stroke-miterlimit="10" stroke-linecap="round" stroke-linejoin="round"/>
<path d="M487.32 245.444L470.624 262.008H394.571L373.237 283.175" stroke="#FA6800" stroke-miterlimit="10" stroke-linecap="round" stroke-linejoin="round"/>
<path d="M402.731 244.707H464.317" stroke="#FA6800" stroke-miterlimit="10" stroke-linecap="round" stroke-linejoin="round"/>
<path d="M522.194 212.314H414.603" stroke="#FA6800" stroke-miterlimit="10" stroke-linecap="round" stroke-linejoin="round"/>
<path d="M500.676 252.069H540.002" stroke="#FA6800" stroke-miterlimit="10" stroke-linecap="round" stroke-linejoin="round"/>
<path d="M551.874 198.327C551.874 201.172 549.548 203.48 546.679 203.48C543.81 203.48 541.484 201.172 541.484 198.327C541.484 195.481 543.81 193.174 546.679 193.174C549.548 193.174 551.874 195.481 551.874 198.327Z" fill="#FA6800"/>
<path d="M365.127 198.327C365.127 201.172 362.802 203.48 359.932 203.48C357.063 203.48 354.738 201.172 354.738 198.327C354.738 195.481 357.063 193.174 359.932 193.174C362.802 193.174 365.127 195.481 365.127 198.327Z" fill="#FA6800"/>
<path d="M538.518 257.958C541.387 257.958 543.713 255.651 543.713 252.805C543.713 249.959 541.387 247.652 538.518 247.652C535.649 247.652 533.324 249.959 533.324 252.805C533.324 255.651 535.649 257.958 538.518 257.958Z" fill="#FA6800"/>
<path d="M464.317 249.86C467.186 249.86 469.512 247.553 469.512 244.708C469.512 241.862 467.186 239.555 464.317 239.555C461.448 239.555 459.123 241.862 459.123 244.708C459.123 247.553 461.448 249.86 464.317 249.86Z" fill="#FA6800"/>
<path d="M490.288 244.708C490.288 247.553 487.962 249.86 485.093 249.86C482.224 249.86 479.898 247.553 479.898 244.708C479.898 241.862 482.224 239.555 485.093 239.555C487.962 239.555 490.288 241.862 490.288 244.708Z" fill="#FA6800"/>
<path d="M405.701 249.125C408.57 249.125 410.895 246.818 410.895 243.972C410.895 241.126 408.57 238.819 405.701 238.819C402.832 238.819 400.506 241.126 400.506 243.972C400.506 246.818 402.832 249.125 405.701 249.125Z" fill="#FA6800"/>
<path d="M391.602 308.756C391.602 311.602 389.276 313.909 386.407 313.909C383.538 313.909 381.212 311.602 381.212 308.756C381.212 305.911 383.538 303.604 386.407 303.604C389.276 303.602 391.602 305.911 391.602 308.756Z" fill="#FA6800"/>
<path d="M399.779 328.905C402.647 328.905 404.972 326.598 404.972 323.752C404.972 320.907 402.647 318.6 399.779 318.6C396.911 318.6 394.586 320.907 394.586 323.752C394.586 326.598 396.911 328.905 399.779 328.905Z" fill="#FA6800"/>
<path d="M375.278 285.198C378.147 285.198 380.473 282.891 380.473 280.045C380.473 277.2 378.147 274.893 375.278 274.893C372.41 274.893 370.084 277.2 370.084 280.045C370.084 282.891 372.41 285.198 375.278 285.198Z" fill="#FA6800"/>
<path d="M505.127 257.958C507.996 257.958 510.322 255.651 510.322 252.805C510.322 249.959 507.996 247.652 505.127 247.652C502.258 247.652 499.933 249.959 499.933 252.805C499.933 255.651 502.258 257.958 505.127 257.958Z" fill="#FA6800"/>
<path d="M546.309 227.407C546.309 230.252 543.983 232.56 541.114 232.56C538.245 232.56 535.919 230.252 535.919 227.407C535.919 224.561 538.245 222.254 541.114 222.254C543.983 222.254 546.309 224.561 546.309 227.407Z" fill="#FA6800"/>
<path d="M581.038 255.566C581.038 258.412 578.712 260.719 575.843 260.719C572.976 260.719 570.648 258.412 570.648 255.566C570.648 252.72 572.974 250.413 575.843 250.413C578.712 250.413 581.038 252.72 581.038 255.566Z" fill="#FA6800"/>
<path d="M579.699 242.131C579.699 244.977 577.373 247.284 574.504 247.284C571.636 247.284 569.309 244.977 569.309 242.131C569.309 239.286 571.635 236.979 574.504 236.979C577.373 236.977 579.699 239.284 579.699 242.131Z" fill="#FA6800"/>
<path d="M522.194 217.468C525.063 217.468 527.388 215.161 527.388 212.315C527.388 209.469 525.063 207.162 522.194 207.162C519.325 207.162 516.999 209.469 516.999 212.315C516.999 215.161 519.325 217.468 522.194 217.468Z" fill="#FA6800"/>
<path d="M414.603 217.468C417.472 217.468 419.798 215.161 419.798 212.315C419.798 209.469 417.472 207.162 414.603 207.162C411.734 207.162 409.408 209.469 409.408 212.315C409.408 215.161 411.734 217.468 414.603 217.468Z" fill="#FA6800"/>
<path d="M361.922 262.376C364.791 262.376 367.116 260.069 367.116 257.223C367.116 254.377 364.791 252.07 361.922 252.07C359.053 252.07 356.727 254.377 356.727 257.223C356.727 260.069 359.053 262.376 361.922 262.376Z" fill="#FA6800"/>
<path d="M119.167 200.236C119.167 201.8 120.445 203.069 122.023 203.069H176.966C178.543 203.069 179.821 201.8 179.821 200.236C179.821 198.671 178.543 197.402 176.966 197.402H122.023C120.445 197.402 119.167 198.671 119.167 200.236Z" fill="#FA8900"/>
<path d="M206.721 197.402H189.161C187.584 197.402 186.306 198.671 186.306 200.236C186.306 201.8 187.584 203.069 189.161 203.069H206.721C208.298 203.069 209.576 201.8 209.576 200.236C209.575 198.671 208.297 197.402 206.721 197.402Z" fill="#FA8900"/>
<path d="M189.172 211.35H139.189C137.612 211.35 136.334 212.619 136.334 214.183C136.334 215.748 137.612 217.016 139.189 217.016H189.174C190.751 217.016 192.029 215.748 192.029 214.183C192.028 212.617 190.75 211.35 189.172 211.35Z" fill="#FA8900"/>
<path d="M196.866 214.181C196.866 215.746 198.144 217.014 199.721 217.014H210.364C211.942 217.014 213.22 215.746 213.22 214.181C213.22 212.617 211.942 211.348 210.364 211.348H199.721C198.144 211.349 196.866 212.617 196.866 214.181Z" fill="#FA8900"/>
<path d="M128.314 211.35H122.023C120.445 211.35 119.167 212.619 119.167 214.183C119.167 215.748 120.445 217.016 122.023 217.016H128.314C129.892 217.016 131.17 215.748 131.17 214.183C131.168 212.617 129.89 211.35 128.314 211.35Z" fill="#FA8900"/>
<path d="M109.596 211.35H84.4138C82.8363 211.35 81.5583 212.619 81.5583 214.183C81.5583 215.748 82.8363 217.016 84.4138 217.016H109.596C110.544 217.016 111.314 216.254 111.314 215.312V213.054C111.312 212.112 110.544 211.35 109.596 211.35Z" fill="#FA8900"/>
<path d="M144.244 227.191C144.244 228.755 145.522 230.024 147.1 230.024H209.291C210.868 230.024 212.146 228.755 212.146 227.191C212.146 225.626 210.868 224.357 209.291 224.357H147.1C145.522 224.357 144.244 225.626 144.244 227.191Z" fill="#FA8900"/>
<path d="M99.9934 227.191C99.9934 228.755 101.271 230.024 102.849 230.024H131.852C133.429 230.024 134.707 228.755 134.707 227.191C134.707 225.626 133.429 224.357 131.852 224.357H102.849C101.273 224.357 99.9934 225.626 99.9934 227.191Z" fill="#FA8900"/>
<path d="M78.6323 241.137C78.6323 242.702 79.9103 243.971 81.4877 243.971H85.3139C86.8914 243.971 88.1693 242.702 88.1693 241.137C88.1693 239.573 86.8914 238.304 85.3139 238.304H81.4877C79.9103 238.304 78.6323 239.573 78.6323 241.137Z" fill="#FA8900"/>
<path d="M91.9832 241.137C91.9832 242.702 93.2611 243.971 94.8386 243.971H132.234C133.812 243.971 135.089 242.702 135.089 241.137C135.089 239.573 133.812 238.304 132.234 238.304H94.8386C93.2611 238.304 91.9832 239.573 91.9832 241.137Z" fill="#FA8900"/>
<path d="M141.192 241.137C141.192 242.702 142.47 243.971 144.048 243.971H157.792C159.369 243.971 160.647 242.702 160.647 241.137C160.647 239.573 159.369 238.304 157.792 238.304H144.048C142.472 238.304 141.192 239.573 141.192 241.137Z" fill="#FA8900"/>
<path d="M169.04 241.137C169.04 242.702 170.318 243.971 171.895 243.971H186.022C187.599 243.971 188.877 242.702 188.877 241.137C188.877 239.573 187.599 238.304 186.022 238.304H171.895C170.318 238.304 169.04 239.573 169.04 241.137Z" fill="#FA8900"/>
<path d="M198.795 241.137C198.795 242.702 200.073 243.971 201.651 243.971H209.292C210.87 243.971 212.148 242.702 212.148 241.137C212.148 239.573 210.87 238.304 209.292 238.304H201.651C200.073 238.304 198.795 239.573 198.795 241.137Z" fill="#FA8900"/>
<path d="M110.294 255.082C110.294 256.647 111.572 257.916 113.149 257.916H118.501C120.078 257.916 121.356 256.647 121.356 255.082C121.356 253.518 120.078 252.249 118.501 252.249H113.149C111.572 252.251 110.294 253.518 110.294 255.082Z" fill="#FA8900"/>
<path d="M132.663 255.082C132.663 256.647 133.941 257.916 135.518 257.916H162.387C163.965 257.916 165.243 256.647 165.243 255.082C165.243 253.518 163.965 252.249 162.387 252.249H135.518C133.942 252.251 132.663 253.518 132.663 255.082Z" fill="#FA8900"/>
<path d="M171.032 255.082C171.032 256.647 172.31 257.916 173.887 257.916H194.88C196.457 257.916 197.735 256.647 197.735 255.082C197.735 253.518 196.457 252.249 194.88 252.249H173.887C172.31 252.251 171.032 253.518 171.032 255.082Z" fill="#FA8900"/>
<path d="M144.969 159.996C144.969 161.56 146.247 162.829 147.824 162.829H210.016C211.593 162.829 212.871 161.56 212.871 159.996C212.871 158.431 211.593 157.162 210.016 157.162H147.824C146.247 157.162 144.969 158.431 144.969 159.996Z" fill="#FA8900"/>
<path d="M167.696 145.113H160.094C158.517 145.113 157.239 146.382 157.239 147.947C157.239 149.511 158.517 150.78 160.094 150.78H167.696C169.273 150.78 170.551 149.511 170.551 147.947C170.551 146.382 169.273 145.113 167.696 145.113Z" fill="#FA8900"/>
<path d="M148.545 145.113H122.726C121.149 145.113 119.871 146.382 119.871 147.947C119.871 149.511 121.149 150.78 122.726 150.78H148.545C150.122 150.78 151.4 149.511 151.4 147.947C151.4 146.382 150.122 145.113 148.545 145.113Z" fill="#FA8900"/>
<path d="M174.989 147.947C174.989 149.511 176.267 150.78 177.844 150.78H210.016C211.593 150.78 212.871 149.511 212.871 147.947C212.871 146.382 211.593 145.113 210.016 145.113H177.844C176.267 145.113 174.989 146.382 174.989 147.947Z" fill="#FA8900"/>
<path d="M141.917 173.941C141.917 175.505 143.195 176.774 144.772 176.774H158.517C160.094 176.774 161.372 175.505 161.372 173.941C161.372 172.376 160.094 171.107 158.517 171.107H144.772C143.195 171.109 141.917 172.376 141.917 173.941Z" fill="#FA8900"/>
<path d="M169.765 173.941C169.765 175.505 171.043 176.774 172.62 176.774H186.747C188.324 176.774 189.602 175.505 189.602 173.941C189.602 172.376 188.324 171.107 186.747 171.107H172.62C171.043 171.109 169.765 172.376 169.765 173.941Z" fill="#FA8900"/>
<path d="M197.877 173.941C197.877 175.505 199.155 176.774 200.732 176.774H211.137C212.714 176.774 213.992 175.505 213.992 173.941C213.992 172.376 212.714 171.107 211.137 171.107H200.732C199.155 171.109 197.877 172.376 197.877 173.941Z" fill="#FA8900"/>
<path d="M155.004 187.888C155.004 189.453 156.282 190.721 157.859 190.721H173.892C175.47 190.721 176.748 189.453 176.748 187.888C176.748 186.324 175.47 185.055 173.892 185.055H157.859C156.282 185.055 155.004 186.324 155.004 187.888Z" fill="#FA8900"/>
<path d="M111.019 187.888C111.019 189.453 112.297 190.721 113.874 190.721H119.227C120.805 190.721 122.083 189.453 122.083 187.888C122.083 186.324 120.805 185.055 119.227 185.055H113.874C112.297 185.055 111.019 186.324 111.019 187.888Z" fill="#FA8900"/>
<path d="M127.422 187.888C127.422 189.453 128.7 190.721 130.277 190.721H142.115C143.693 190.721 144.971 189.453 144.971 187.888C144.971 186.324 143.693 185.055 142.115 185.055H130.277C128.7 185.055 127.422 186.324 127.422 187.888Z" fill="#FA8900"/>
<path d="M187.312 187.888C187.312 189.453 188.59 190.721 190.167 190.721H211.16C212.737 190.721 214.015 189.453 214.015 187.888C214.015 186.324 212.737 185.055 211.16 185.055H190.167C188.59 185.055 187.312 186.324 187.312 187.888Z" fill="#FA8900"/>
<path d="M109.833 154.427C109.504 154.427 109.176 154.309 108.916 154.071L102.118 147.837L108.864 140.941C109.384 140.408 110.242 140.396 110.776 140.912C111.312 141.427 111.324 142.278 110.805 142.81L105.99 147.732L110.753 152.1C111.301 152.603 111.335 153.452 110.828 153.996C110.56 154.283 110.197 154.427 109.833 154.427Z" fill="#FA8900"/>
<path d="M118.031 154.427C117.702 154.427 117.373 154.309 117.114 154.071L110.315 147.837L117.06 140.941C117.581 140.408 118.438 140.396 118.972 140.912C119.508 141.427 119.521 142.278 119.002 142.81L114.186 147.732L118.949 152.1C119.498 152.603 119.531 153.452 119.025 153.996C118.759 154.283 118.396 154.427 118.031 154.427Z" fill="#FA8900"/>
<path d="M210.226 262.414C209.862 262.414 209.499 262.27 209.232 261.984C208.725 261.439 208.759 260.59 209.307 260.087L214.071 255.72L209.255 250.797C208.735 250.267 208.748 249.416 209.284 248.899C209.819 248.384 210.676 248.396 211.197 248.928L217.941 255.824L211.143 262.058C210.883 262.296 210.555 262.414 210.226 262.414Z" fill="#FA8900"/>
<path d="M202.028 262.414C201.664 262.414 201.302 262.27 201.035 261.984C200.528 261.439 200.562 260.59 201.11 260.087L205.873 255.72L201.058 250.797C200.537 250.267 200.551 249.416 201.087 248.899C201.621 248.384 202.479 248.396 202.999 248.928L209.745 255.824L202.947 262.058C202.684 262.296 202.356 262.414 202.028 262.414Z" fill="#FA8900"/>
<path d="M317.649 275.03H315.961C311.352 275.03 307.616 271.343 307.616 266.794V206.483C307.616 201.933 311.352 198.246 315.961 198.246H317.649C322.259 198.246 325.994 201.935 325.994 206.483V266.794C325.994 271.342 322.259 275.03 317.649 275.03Z" fill="#FA8900"/>
<path d="M347.342 330.539L345.701 331.42C342.146 333.328 337.703 332.015 335.779 328.488L312.186 285.221C310.261 281.693 311.585 277.285 315.141 275.376L316.782 274.495C320.337 272.587 324.78 273.9 326.704 277.427L350.297 320.694C352.222 324.223 350.898 328.63 347.342 330.539Z" fill="#FA8900"/>
<path d="M342.027 356.897C336.915 346.888 339.347 335.47 347.457 331.391C355.569 327.313 366.287 332.119 371.4 342.128" stroke="#FA8900" stroke-width="5" stroke-miterlimit="10" stroke-linecap="round" stroke-linejoin="round"/>
<path d="M317.433 270.292C319.065 270.292 320.388 268.979 320.388 267.36C320.388 265.74 319.065 264.428 317.433 264.428C315.801 264.428 314.478 265.74 314.478 267.36C314.478 268.979 315.801 270.292 317.433 270.292Z" fill="#002440"/>
<path d="M322.921 281.183C322.921 282.802 321.598 284.115 319.966 284.115C318.333 284.115 317.01 282.802 317.01 281.183C317.01 279.564 318.333 278.251 319.966 278.251C321.598 278.251 322.921 279.562 322.921 281.183Z" fill="#002440"/>
<path d="M317.855 220.028C327.998 220.028 336.22 211.87 336.22 201.807C336.22 191.744 327.998 183.586 317.855 183.586C307.713 183.586 299.491 191.744 299.491 201.807C299.491 211.87 307.713 220.028 317.855 220.028Z" stroke="#021627" stroke-miterlimit="10" stroke-linecap="round" stroke-linejoin="round"/>
<path d="M317.855 214.204C324.756 214.204 330.351 208.653 330.351 201.806C330.351 194.959 324.756 189.408 317.855 189.408C310.954 189.408 305.36 194.959 305.36 201.806C305.36 208.653 310.954 214.204 317.855 214.204Z" fill="#021627"/>
<path d="M342.027 356.897C336.915 346.888 339.347 335.47 347.457 331.391C355.569 327.313 366.287 332.119 371.4 342.128" stroke="#021627" stroke-miterlimit="10" stroke-linecap="round" stroke-linejoin="round"/>
<path d="M318.212 198.244V174.757C318.212 165.411 310.575 157.834 301.154 157.834H217.862" stroke="#FA6800" stroke-miterlimit="10" stroke-linecap="round" stroke-linejoin="round"/>
<path d="M217.863 194.277H255.188C262.954 194.277 270.402 197.338 275.893 202.787L311.281 237.897" stroke="#FA6800" stroke-miterlimit="10" stroke-linecap="round" stroke-linejoin="round"/>
<path d="M217.863 206.424H247.397C255.163 206.424 262.611 209.485 268.103 214.933L310.725 257.222" stroke="#FA6800" stroke-miterlimit="10" stroke-linecap="round" stroke-linejoin="round"/>
<path d="M310.617 502.64L321.483 437.84C321.8 435.949 320.331 434.229 318.399 434.229H270.411" stroke="#FA6800" stroke-miterlimit="10" stroke-linecap="round" stroke-linejoin="round"/>
<path d="M629.779 549.474H462.857C457.335 549.474 452.857 553.951 452.857 559.474V709.77C452.857 715.293 457.335 719.77 462.857 719.77H629.779C635.302 719.77 639.779 715.293 639.779 709.77V559.474C639.779 553.951 635.302 549.474 629.779 549.474Z" fill="#021627" fill-opacity="0.79"/>
<path d="M639.778 583.055H452.857" stroke="#002440" stroke-miterlimit="10" stroke-linecap="round" stroke-linejoin="round"/>
<path d="M639.778 616.636H452.857" stroke="#002440" stroke-miterlimit="10" stroke-linecap="round" stroke-linejoin="round"/>
<path d="M639.778 650.217H452.857" stroke="#002440" stroke-miterlimit="10" stroke-linecap="round" stroke-linejoin="round"/>
<path d="M639.778 683.797H452.857" stroke="#002440" stroke-miterlimit="10" stroke-linecap="round" stroke-linejoin="round"/>
<path d="M496.357 696.009H470.894C468.155 696.009 465.933 698.23 465.933 700.97C465.933 703.71 468.155 705.931 470.894 705.931H496.357C499.097 705.931 501.318 703.71 501.318 700.97C501.318 698.23 499.097 696.009 496.357 696.009Z" fill="white"/>
<path d="M618.663 696.009H523.971C521.231 696.009 519.01 698.23 519.01 700.97C519.01 703.71 521.231 705.931 523.971 705.931H618.663C621.402 705.931 623.624 703.71 623.624 700.97C623.624 698.23 621.402 696.009 618.663 696.009Z" fill="white"/>
<path d="M496.357 663.191H470.894C468.155 663.191 465.933 665.413 465.933 668.153C465.933 670.892 468.155 673.114 470.894 673.114H496.357C499.097 673.114 501.318 670.892 501.318 668.153C501.318 665.413 499.097 663.191 496.357 663.191Z" fill="white"/>
<path d="M618.663 663.191H523.971C521.231 663.191 519.01 665.413 519.01 668.153C519.01 670.892 521.231 673.114 523.971 673.114H618.663C621.402 673.114 623.624 670.892 623.624 668.153C623.624 665.413 621.402 663.191 618.663 663.191Z" fill="white"/>
<path d="M496.357 630.373H470.894C468.155 630.373 465.933 632.594 465.933 635.334C465.933 638.074 468.155 640.295 470.894 640.295H496.357C499.097 640.295 501.318 638.074 501.318 635.334C501.318 632.594 499.097 630.373 496.357 630.373Z" fill="white"/>
<path d="M618.663 630.373H523.971C521.231 630.373 519.01 632.594 519.01 635.334C519.01 638.074 521.231 640.295 523.971 640.295H618.663C621.402 640.295 623.624 638.074 623.624 635.334C623.624 632.594 621.402 630.373 618.663 630.373Z" fill="white"/>
<path d="M496.357 597.555H470.894C468.155 597.555 465.933 599.776 465.933 602.516C465.933 605.256 468.155 607.477 470.894 607.477H496.357C499.097 607.477 501.318 605.256 501.318 602.516C501.318 599.776 499.097 597.555 496.357 597.555Z" fill="white"/>
<path d="M618.663 597.555H523.971C521.231 597.555 519.01 599.776 519.01 602.516C519.01 605.256 521.231 607.477 523.971 607.477H618.663C621.402 607.477 623.624 605.256 623.624 602.516C623.624 599.776 621.402 597.555 618.663 597.555Z" fill="white"/>
<path d="M496.357 564.738H470.894C468.155 564.738 465.933 566.959 465.933 569.699C465.933 572.439 468.155 574.661 470.894 574.661H496.357C499.097 574.661 501.318 572.439 501.318 569.699C501.318 566.959 499.097 564.738 496.357 564.738Z" fill="white"/>
<path d="M618.663 564.738H523.971C521.231 564.738 519.01 566.959 519.01 569.699C519.01 572.439 521.231 574.661 523.971 574.661H618.663C621.402 574.661 623.624 572.439 623.624 569.699C623.624 566.959 621.402 564.738 618.663 564.738Z" fill="white"/>
<path d="M585.548 279.871C588.417 279.871 590.742 277.564 590.742 274.718C590.742 271.872 588.417 269.565 585.548 269.565C582.679 269.565 580.353 271.872 580.353 274.718C580.353 277.564 582.679 279.871 585.548 279.871Z" fill="#FA6800"/>
<path d="M629.331 265.815C629.331 268.661 627.006 270.968 624.137 270.968C621.267 270.968 618.942 268.661 618.942 265.815C618.942 262.969 621.267 260.662 624.137 260.662C627.006 260.662 629.331 262.969 629.331 265.815Z" fill="#FA6800"/>
<path d="M617.409 258.946C617.409 261.791 615.084 264.099 612.214 264.099C609.345 264.099 607.02 261.791 607.02 258.946C607.02 256.1 609.345 253.793 612.214 253.793C615.084 253.793 617.409 256.1 617.409 258.946Z" fill="#FA6800"/>
<path d="M601.485 253.088C604.354 253.088 606.68 250.781 606.68 247.935C606.68 245.089 604.354 242.782 601.485 242.782C598.616 242.782 596.291 245.089 596.291 247.935C596.291 250.781 598.616 253.088 601.485 253.088Z" fill="#FA6800"/>
<path d="M624.287 263.271L625.441 513.984L675.633 563.783V639.913L645.344 669.965" stroke="#FA6800" stroke-miterlimit="10" stroke-linecap="round" stroke-linejoin="round"/>
<path d="M601.702 246.1V497.957L557.279 542.032" stroke="#FA6800" stroke-miterlimit="10" stroke-linecap="round" stroke-linejoin="round"/>
<path d="M612.499 258.532V535.736" stroke="#FA6800" stroke-miterlimit="10" stroke-linecap="round" stroke-linejoin="round"/>
<path d="M585.548 274.719V491.088L535.356 540.887" stroke="#FA6800" stroke-miterlimit="10" stroke-linecap="round" stroke-linejoin="round"/>
<path d="M535.291 545.976C538.16 545.976 540.486 543.669 540.486 540.823C540.486 537.977 538.16 535.67 535.291 535.67C532.422 535.67 530.097 537.977 530.097 540.823C530.097 543.669 532.422 545.976 535.291 545.976Z" fill="#FA6800"/>
<path d="M618.306 540.061C618.306 542.907 615.981 545.214 613.111 545.214C610.244 545.214 607.917 542.907 607.917 540.061C607.917 537.216 610.242 534.908 613.111 534.908C615.981 534.908 618.306 537.214 618.306 540.061Z" fill="#FA6800"/>
<path d="M644.394 676.485C647.262 676.485 649.588 674.178 649.588 671.333C649.588 668.487 647.262 666.18 644.394 666.18C641.525 666.18 639.199 668.487 639.199 671.333C639.199 674.178 641.525 676.485 644.394 676.485Z" fill="#FA6800"/>
<path d="M557.279 545.976C560.148 545.976 562.474 543.669 562.474 540.823C562.474 537.977 560.148 535.67 557.279 535.67C554.41 535.67 552.084 537.977 552.084 540.823C552.084 543.669 554.41 545.976 557.279 545.976Z" fill="#FA6800"/>
</g>
<defs>
<clipPath id="clip0_5462_9681">
<rect width="768" height="758" fill="white"/>
</clipPath>
</defs>
</svg>
